<svg width="20" height="20" viewBox="0 0 20 20" fill="none" xmlns="http://www.w3.org/2000/svg">
<path d="M6.60627 5.76654C6.60028 5.54507 6.6825 5.33507 6.83485 5.18273C6.9872 5.03038 7.19719 4.94816 7.41866 4.95415L14.5056 5.14676C14.7271 5.15281 14.9419 5.24657 15.1028 5.40743C15.2636 5.56829 15.3574 5.78307 15.3634 6.00453L15.556 13.0915C15.5582 13.3104 15.4742 13.5167 15.3222 13.6659C15.1702 13.8152 14.9623 13.8955 14.7433 13.8895C14.5243 13.8836 14.3117 13.7918 14.1513 13.6341C13.991 13.4763 13.8956 13.2652 13.8859 13.0461L13.7481 7.97539L7.09153 14.6319C6.93916 14.7843 6.72911 14.8665 6.5076 14.8605C6.28608 14.8545 6.07125 14.7607 5.91037 14.5998C5.74948 14.4389 5.65571 14.2241 5.64969 14.0026C5.64367 13.7811 5.72589 13.571 5.87826 13.4187L12.5348 6.76213L7.46405 6.62432C7.24258 6.61826 7.0278 6.5245 6.86694 6.36364C6.70609 6.20278 6.61232 5.98801 6.60627 5.76654Z" fill="#DA2328"/>
</svg>
