<svg width="20" height="20" viewBox="0 0 20 20" fill="none" xmlns="http://www.w3.org/2000/svg">
<path d="M6.60627 5.7666C6.60028 5.54513 6.6825 5.33513 6.83485 5.18279C6.9872 5.03044 7.19719 4.94822 7.41866 4.95421L14.5056 5.14682C14.7271 5.15287 14.9419 5.24663 15.1028 5.40749C15.2636 5.56835 15.3574 5.78313 15.3634 6.0046L15.556 13.0916C15.5582 13.3104 15.4742 13.5167 15.3222 13.666C15.1702 13.8152 14.9623 13.8955 14.7433 13.8896C14.5243 13.8836 14.3117 13.7919 14.1513 13.6342C13.991 13.4764 13.8956 13.2653 13.8859 13.0462L13.7481 7.97545L7.09153 14.632C6.93916 14.7844 6.72911 14.8666 6.5076 14.8606C6.28608 14.8545 6.07125 14.7608 5.91037 14.5999C5.74948 14.439 5.65571 14.2242 5.64969 14.0026C5.64367 13.7811 5.72589 13.5711 5.87826 13.4187L12.5348 6.76219L7.46405 6.62438C7.24258 6.61832 7.0278 6.52456 6.86694 6.3637C6.70609 6.20284 6.61232 5.98807 6.60627 5.7666V5.7666Z" fill="white"/>
</svg>
