<svg width="40" height="40" viewBox="0 0 40 40" fill="none" xmlns="http://www.w3.org/2000/svg">
<path d="M20.6667 17.3333C21.1971 17.3333 21.7058 17.544 22.0809 17.9191C22.456 18.2942 22.6667 18.8029 22.6667 19.3333C22.6667 19.5101 22.7369 19.6797 22.8619 19.8047C22.987 19.9298 23.1565 20 23.3333 20C23.5101 20 23.6797 19.9298 23.8047 19.8047C23.9298 19.6797 24 19.5101 24 19.3333C24 18.4493 23.6488 17.6014 23.0237 16.9763C22.3986 16.3512 21.5507 16 20.6667 16C20.4899 16 20.3203 16.0702 20.1953 16.1953C20.0702 16.3203 20 16.4899 20 16.6667C20 16.8435 20.0702 17.013 20.1953 17.1381C20.3203 17.2631 20.4899 17.3333 20.6667 17.3333Z" fill="#2A2B2A"/>
<path d="M20.6 15.2C21.7139 15.2 22.7822 15.6425 23.5698 16.4302C24.3575 17.2178 24.8 18.2861 24.8 19.4C24.8 19.5591 24.8632 19.7117 24.9757 19.8243C25.0883 19.9368 25.2409 20 25.4 20C25.5591 20 25.7117 19.9368 25.8243 19.8243C25.9368 19.7117 26 19.5591 26 19.4C26 17.9678 25.4311 16.5943 24.4184 15.5816C23.4057 14.5689 22.0322 14 20.6 14C20.4409 14 20.2883 14.0632 20.1757 14.1757C20.0632 14.2883 20 14.4409 20 14.6C20 14.7591 20.0632 14.9117 20.1757 15.0243C20.2883 15.1368 20.4409 15.2 20.6 15.2ZM25.85 22.346C25.817 22.2497 25.76 22.1633 25.6845 22.0951C25.6089 22.0269 25.5172 21.979 25.418 21.956L21.818 21.134C21.7203 21.1118 21.6186 21.1145 21.5221 21.1418C21.4257 21.169 21.3377 21.22 21.266 21.29C21.182 21.368 21.176 21.374 20.786 22.118C19.4919 21.5217 18.455 20.4805 17.864 19.184C18.626 18.8 18.632 18.8 18.71 18.71C18.78 18.6383 18.831 18.5503 18.8582 18.4539C18.8855 18.3574 18.8882 18.2557 18.866 18.158L18.044 14.6C18.021 14.5008 17.9731 14.4091 17.9049 14.3335C17.8367 14.258 17.7503 14.201 17.654 14.168C17.5139 14.118 17.3692 14.0818 17.222 14.06C17.0704 14.0248 16.9156 14.0047 16.76 14C16.028 14 15.326 14.2908 14.8084 14.8084C14.2908 15.326 14 16.028 14 16.76C14.0032 19.2096 14.9777 21.558 16.7098 23.2902C18.442 25.0223 20.7904 25.9968 23.24 26C23.6024 26 23.9613 25.9286 24.2962 25.7899C24.6311 25.6512 24.9353 25.4479 25.1916 25.1916C25.4479 24.9353 25.6512 24.6311 25.7899 24.2962C25.9286 23.9613 26 23.6024 26 23.24C26.0002 23.0873 25.9881 22.9348 25.964 22.784C25.9388 22.635 25.9006 22.4884 25.85 22.346ZM23.24 24.8C21.1081 24.7984 19.0641 23.9508 17.5566 22.4434C16.0492 20.9359 15.2016 18.8919 15.2 16.76C15.2016 16.3467 15.3664 15.9509 15.6587 15.6587C15.9509 15.3664 16.3467 15.2016 16.76 15.2H16.958L17.6 17.984L17.276 18.152C16.76 18.422 16.352 18.638 16.568 19.106C16.9197 20.1017 17.4889 21.0066 18.234 21.7549C18.9792 22.5032 19.8817 23.0761 20.876 23.432C21.38 23.636 21.578 23.258 21.848 22.736L22.022 22.406L24.8 23.042V23.24C24.7984 23.6533 24.6336 24.0491 24.3413 24.3413C24.0491 24.6336 23.6533 24.7984 23.24 24.8Z" fill="#2A2B2A"/>
<rect x="1" y="1" width="38" height="38" rx="19" stroke="#DA2328" stroke-width="2"/>
</svg>
