<svg width="26" height="25" viewBox="0 0 26 25" fill="none" xmlns="http://www.w3.org/2000/svg">
<path d="M13 0.5L15.9187 9.48278H25.3637L17.7225 15.0344L20.6412 24.0172L13 18.4656L5.35879 24.0172L8.27747 15.0344L0.636266 9.48278H10.0813L13 0.5Z" fill="#F1FF4C"/>
<path d="M13 1.30902L15.6809 9.56003L15.737 9.73278H15.9187H24.5943L17.5756 14.8322L17.4286 14.939L17.4848 15.1117L20.1657 23.3627L13.1469 18.2633L13 18.1565L12.8531 18.2633L5.83432 23.3627L8.51524 15.1117L8.57137 14.939L8.42442 14.8322L1.40569 9.73278H10.0813H10.263L10.3191 9.56003L13 1.30902Z" stroke="black" stroke-opacity="0.26" stroke-width="0.5"/>
</svg>
