<svg width="66" height="80" viewBox="0 0 66 80" fill="none" xmlns="http://www.w3.org/2000/svg">
<path d="M54.784 42.3286C54.6934 32.1574 63.0348 27.2744 63.4121 27.0363C58.7182 20.1221 51.4132 19.1749 48.8072 19.0634C42.5939 18.4303 36.6774 22.7459 33.528 22.7459C30.3786 22.7459 25.5086 19.1546 20.3569 19.2559C13.5751 19.3572 7.33165 23.2221 3.84014 29.3309C-3.19822 41.6245 2.04408 59.8446 8.89629 69.8234C12.252 74.7013 16.2466 80.1972 21.4989 79.9946C26.5601 79.7919 28.4719 76.7021 34.5795 76.7021C40.6871 76.7021 42.4077 79.9946 47.7557 79.8983C53.1942 79.792 56.6455 74.914 59.976 70.0209C63.8197 64.3578 65.4094 58.8771 65.5 58.5884C65.3793 58.5377 54.8947 54.4905 54.784 42.3286Z" fill="#BDBDBD"/>
<path d="M44.3098 12.4514C47.0665 9.15425 48.9276 4.56963 48.415 0C44.4437 0.157411 39.637 2.61418 36.7855 5.91133C34.2328 8.82532 31.9935 13.4933 32.6003 17.9699C37.0293 18.3089 41.5525 15.7437 44.3098 12.4514Z" fill="#BDBDBD"/>
</svg>
