<svg width="181" height="80" viewBox="0 0 181 80" fill="none" xmlns="http://www.w3.org/2000/svg">
<path d="M71.5 28.5C71.5 27.0811 72.6487 26 74 26C75.3513 26 76.5 27.1486 76.5 28.5C76.5 29.8514 75.3513 31 74 31C72.5811 31 71.5 29.8514 71.5 28.5Z" fill="#BDBDBD"/>
<path d="M114.5 46.5C114.5 45.0811 115.649 44 117 44C118.351 44 119.5 45.1486 119.5 46.5C119.5 47.8514 118.351 49 117 49C115.581 49 114.5 47.9189 114.5 46.5Z" fill="#BDBDBD"/>
<path d="M27.9635 45.313C25.6287 45.313 24.0236 43.5739 24.0236 41.0696C24.0236 38.5652 25.6287 36.8261 27.9635 36.8261C30.2983 36.8261 31.9034 38.5652 31.9034 41.0696C31.9034 43.6435 30.2983 45.313 27.9635 45.313ZM27.9635 33C23.0751 33 19.5 36.4087 19.5 41C19.5 45.5913 23.0751 49 27.9635 49C32.9249 49 36.5 45.5913 36.5 41C36.5 36.4087 32.8519 33 27.9635 33Z" fill="#BDBDBD"/>
<path d="M66.1522 41.3819C65.9348 41.0259 65.7174 40.7411 65.5 40.5275L65.3551 40.3851L65.5 40.2427C65.7174 40.0291 65.9348 39.7443 66.1522 39.3883L70.4276 33.123H65.2101L61.9493 38.0356C61.7319 38.3204 61.3696 38.4628 60.8623 38.4628H60.1377V29.1359C60.1377 27.2848 58.9783 27 57.6739 27H55.5V49H60.1377V42.3786H60.5725C61.0797 42.3786 61.442 42.4498 61.6594 42.7346L64.1957 47.5049C64.9203 48.7864 65.6449 49 66.9493 49H70.5L67.8189 44.7282L66.1522 41.3819Z" fill="#BDBDBD"/>
<path d="M88.8128 33C86.4668 33 85.045 33.9782 84.192 34.8865L83.9076 35.1659L83.8365 34.8166C83.6232 33.9083 82.7702 33.4192 81.5616 33.4192H79.5V49H84.0498V41.7336C84.0498 41.0349 84.1209 40.4061 84.3341 39.8472C84.8318 38.1703 86.2536 37.1223 87.9597 37.1223C89.3815 37.1223 89.9502 37.821 89.9502 39.7773V46.5546C89.9502 48.1616 90.7322 48.9301 92.3673 48.9301H94.5V39.0087C94.4289 35.0961 92.5095 33 88.8128 33Z" fill="#BDBDBD"/>
<path d="M74.8809 33H72.5V45.3408V49H75.0397H75.1191H76.3095H77.5V35.4395C77.5 33.7892 76.627 33 74.8809 33Z" fill="#BDBDBD"/>
<path d="M45.9635 45.026C43.6287 45.026 42.0236 43.1861 42.0236 40.5368C42.0236 37.8874 43.6287 36.0476 45.9635 36.0476C48.2983 36.0476 49.9034 37.8874 49.9034 40.5368C49.9764 43.2597 48.3712 45.026 45.9635 45.026ZM45.9635 32C41.0751 32 37.5 35.6061 37.5 40.4632C37.5 45.3203 41.0751 49 45.9635 49C50.9249 49 54.5 45.3939 54.5 40.5368C54.5 35.6797 50.9249 32 45.9635 32Z" fill="#BDBDBD"/>
<path d="M144.964 45.0817C142.629 45.0817 141.024 43.234 141.024 40.5733C141.024 37.9126 142.629 36.0649 144.964 36.0649C147.298 36.0649 148.903 37.9126 148.903 40.5733C148.903 43.3079 147.298 45.0817 144.964 45.0817ZM144.964 32C140.075 32 136.5 35.6215 136.5 40.4994C136.5 45.3774 140.075 48.9989 144.964 48.9989C149.852 49.0728 153.5 45.5252 153.5 40.5733C153.5 35.6215 149.852 32 144.964 32Z" fill="#BDBDBD"/>
<path d="M104.72 44.379C102.151 44.379 101.271 42.1815 101.271 40.0573C101.271 39.1051 101.491 36.1752 104.5 36.1752C105.968 36.1752 107.95 36.6147 107.95 40.2038C107.95 43.6465 106.188 44.379 104.72 44.379ZM110.372 32.3662C109.491 32.3662 108.83 32.7325 108.463 33.3917L108.317 33.6115L108.096 33.3917C107.362 32.7325 105.968 32 103.766 32C99.4358 32 96.5 35.2962 96.5 40.1306C96.5 44.965 99.5092 48.4076 103.913 48.4076C105.381 48.4076 106.555 48.0414 107.509 47.3822L107.876 47.0892V47.5287C107.876 49.7261 106.482 50.8981 103.913 50.8981C102.665 50.8981 101.564 50.6051 100.757 50.3121C99.8027 50.0191 99.2156 50.2389 98.7753 51.2643L98.4083 52.1433L97.8945 53.4618L98.1881 53.6083C99.8027 54.4873 101.931 55 103.913 55C107.876 55 112.5 52.949 112.5 47.2357V32.2197L110.372 32.3662Z" fill="#BDBDBD"/>
<path d="M10.2804 45.1042H6.63553V40.4593C6.63553 39.4853 6.98598 38.9609 7.757 38.8111H10.2103C11.9626 38.8111 13.0841 40.0098 13.0841 41.9577C13.1542 43.9055 12.1028 45.1042 10.2804 45.1042ZM6.63553 32.5928V31.3941C6.63553 30.3453 7.05606 29.8208 7.96727 29.7459H9.78973C11.4019 29.7459 12.3131 30.7948 12.3131 32.443C12.3131 33.7166 11.6822 35.2899 9.8598 35.2899H6.56541L6.63553 32.5928ZM14.9065 37.2378L14.2757 36.8632L14.8365 36.3388C15.4673 35.7394 16.5888 34.316 16.5888 31.9935C16.5888 28.3225 13.9252 26 9.8598 26H5.23366H4.67292C3.48133 26.0749 2.5 27.1238 2.5 28.3974V49H4.67292H10C14.5561 49 17.5 46.3779 17.5 42.2573C17.4299 40.0847 16.5187 38.1368 14.9065 37.2378Z" fill="#BDBDBD"/>
<path d="M173.268 32C171.406 32 169.543 32.8987 168.397 34.4714L168.039 34.9207L167.753 34.3965C166.893 32.8238 165.46 32 163.454 32C161.305 32 159.944 33.1982 159.228 33.9471L158.798 34.4714L158.655 33.7974C158.44 32.8987 157.652 32.3744 156.434 32.3744H154.5V49H158.87V41.6608C158.87 40.9868 158.941 40.3877 159.085 39.7137C159.514 37.9163 160.661 36.0441 162.523 36.1938C163.741 36.3436 164.314 37.2423 164.314 39.1145V49H168.684V41.6608C168.684 40.837 168.755 40.2379 168.899 39.6388C169.257 37.9163 170.475 36.1938 172.266 36.1938C173.627 36.1938 174.128 37.0176 174.128 39.1145V46.5286C174.128 48.1762 174.844 48.9251 176.42 48.9251H178.498V38.2907C178.569 34.0969 176.85 32 173.268 32Z" fill="#BDBDBD"/>
<path d="M133.342 42.9914C133.342 42.9914 131.407 45.0431 128.802 45.0431C126.495 45.0431 124.114 43.6509 124.114 40.5C124.114 37.7888 125.974 35.8836 128.579 35.8836C129.398 35.8836 130.365 36.1767 130.514 36.6897V36.7629C130.886 37.9353 131.928 37.9353 132.151 37.9353H134.607V35.8103C134.607 33.0259 130.96 32 128.505 32C123.295 32 119.5 35.5905 119.5 40.5C119.5 45.4095 123.221 49 128.43 49C132.895 49 135.351 46.069 135.351 46.069L135.5 45.9224L133.565 42.6983L133.342 42.9914Z" fill="#BDBDBD"/>
</svg>
