<svg width="161" height="50" viewBox="0 0 161 50" fill="none" xmlns="http://www.w3.org/2000/svg">
<path d="M20.5143 17.8409V23.1818H33.4378C33.0947 26.1364 32.0654 28.4091 30.4643 29.8864C28.6344 31.7045 25.6608 33.75 20.5143 33.75C12.6229 33.75 6.44711 27.3864 6.44711 19.5455C6.44711 11.7045 12.5086 5.34091 20.5143 5.34091C24.7459 5.34091 27.9482 7.04545 30.2355 9.20455L34.0097 5.45455C30.8074 2.38636 26.4614 0 20.5143 0C9.64939 0 0.5 8.75 0.5 19.5455C0.5 30.3409 9.64939 39.0909 20.5143 39.0909C26.347 39.0909 30.8074 37.1591 34.2384 33.6364C37.7838 30.1136 38.9274 25.1136 38.9274 21.1364C38.9274 19.8864 38.8131 18.75 38.6987 17.8409H20.5143Z" fill="#BDBDBD"/>
<path d="M54.9381 13.4092C47.9616 13.4092 42.1289 18.7501 42.1289 26.0228C42.1289 33.2955 47.8473 38.6365 54.9381 38.6365C62.0288 38.6365 67.7472 33.4092 67.7472 26.1365C67.7472 18.7501 62.0288 13.4092 54.9381 13.4092ZM54.9381 33.7501C51.0496 33.7501 47.7329 30.5683 47.7329 26.1365C47.7329 21.591 51.0496 18.5228 54.9381 18.5228C58.8265 18.5228 62.1432 21.591 62.1432 26.1365C62.1432 30.5683 58.8265 33.7501 54.9381 33.7501Z" fill="#BDBDBD"/>
<path d="M117.496 16.2501H117.267C116.009 14.7728 113.607 13.4092 110.519 13.4092C104.115 13.4092 98.625 18.8637 98.625 26.0228C98.625 33.0683 104.115 38.6365 110.519 38.6365C113.607 38.6365 116.009 37.2728 117.267 35.7955H117.496V37.6137C117.496 42.3865 114.865 45.0001 110.748 45.0001C107.317 45.0001 105.258 42.6137 104.343 40.4546L99.5399 42.5001C100.912 45.7955 104.686 50.0001 110.862 50.0001C117.381 50.0001 122.985 46.1365 122.985 36.8183V14.091H117.724V16.2501H117.496ZM111.091 33.7501C107.203 33.7501 104.343 30.4546 104.343 26.1365C104.343 21.7046 107.317 18.5228 111.091 18.5228C114.865 18.5228 117.839 21.8183 117.839 26.2501C117.953 30.5683 114.98 33.7501 111.091 33.7501Z" fill="#BDBDBD"/>
<path d="M83.4146 13.4092C76.4382 13.4092 70.6055 18.7501 70.6055 26.0228C70.6055 33.2955 76.3238 38.6365 83.4146 38.6365C90.5054 38.6365 96.2238 33.4092 96.2238 26.1365C96.2238 18.7501 90.5054 13.4092 83.4146 13.4092ZM83.4146 33.7501C79.5261 33.7501 76.2095 30.5683 76.2095 26.1365C76.2095 21.591 79.5261 18.5228 83.4146 18.5228C87.3031 18.5228 90.6198 21.591 90.6198 26.1365C90.6198 30.5683 87.3031 33.7501 83.4146 33.7501Z" fill="#BDBDBD"/>
<path d="M127.219 0.568359H132.708V38.7502H127.219V0.568359Z" fill="#BDBDBD"/>
<path d="M149.635 33.7501C146.776 33.7501 144.832 32.5001 143.459 29.8865L160.5 22.9546L159.928 21.4774C158.899 18.6365 155.582 13.4092 149.063 13.4092C142.544 13.4092 137.055 18.5228 137.055 26.0228C137.055 33.0683 142.43 38.6365 149.635 38.6365C155.468 38.6365 158.784 35.1137 160.271 33.0683L155.925 30.2274C154.439 32.3865 152.494 33.7501 149.635 33.7501ZM149.292 18.1819C151.579 18.1819 153.524 19.3183 154.095 20.9092L142.659 25.6819C142.544 20.4546 146.433 18.1819 149.292 18.1819Z" fill="#BDBDBD"/>
</svg>
