<svg width="181" height="80" viewBox="0 0 181 80" fill="none" xmlns="http://www.w3.org/2000/svg">
<path d="M32.5 15H22.5V25H32.5V15Z" fill="#BDBDBD"/>
<path d="M31.9093 66.261V30.6461H22.5V66.261H31.9093ZM94.4495 66.6129V57.8851C93.0699 57.8851 91.9026 57.8147 91.0536 57.674C90.0632 57.5332 89.3203 57.1813 88.8251 56.6886C88.3299 56.1959 88.0115 55.492 87.8346 54.577C87.6931 53.6972 87.6224 52.5359 87.6224 51.1282V38.67H94.4495V30.6461H87.6224V16.745H78.1777V51.1985C78.1777 54.1195 78.4253 56.583 78.9205 58.5538C79.4158 60.4894 80.2647 62.073 81.4321 63.2696C82.5994 64.4661 84.1558 65.3108 86.0306 65.8386C87.9408 66.3665 90.3461 66.6129 93.2114 66.6129H94.4495ZM148.5 66.261V14H139.055V66.261H148.5ZM69.0867 34.1301C66.4691 31.3147 62.7903 29.907 58.121 29.907C55.8571 29.907 53.8054 30.3645 51.9307 31.2795C50.0912 32.1946 48.4994 33.4615 47.2614 35.0803L46.7308 35.749V35.1507V30.6461H37.4276V66.261H46.8015V47.2922V48.5943C46.8015 48.3831 46.8015 48.172 46.8015 47.9608C46.9076 44.6175 47.7212 42.1541 49.2777 40.5704C50.9402 38.8811 52.9565 38.0365 55.2558 38.0365C57.9795 38.0365 60.0665 38.8811 61.4461 40.5C62.7903 42.1189 63.4978 44.4064 63.4978 47.3274V47.3977V66.2258H73.0132V46.0252C73.0486 40.9575 71.7044 36.9456 69.0867 34.1301ZM134.174 48.3831C134.174 45.8141 133.714 43.421 132.83 41.1687C131.91 38.9515 130.636 36.9807 129.045 35.2915C127.417 33.6023 125.472 32.3001 123.208 31.3499C120.944 30.3997 118.433 29.9422 115.709 29.9422C113.127 29.9422 110.686 30.4349 108.422 31.3851C106.158 32.3705 104.177 33.6726 102.515 35.3267C100.852 36.9807 99.5079 38.9515 98.5528 41.2039C97.5623 43.4562 97.1025 45.8845 97.1025 48.4535C97.1025 51.0226 97.5623 53.4509 98.482 55.7032C99.4017 57.9555 100.711 59.9263 102.338 61.5803C103.965 63.2344 105.981 64.5717 108.316 65.5219C110.65 66.5073 113.233 67 115.992 67C123.986 67 128.939 63.3752 131.91 59.9967L125.118 54.8586C123.703 56.5478 120.307 58.8353 116.063 58.8353C113.41 58.8353 111.216 58.2371 109.554 57.0053C107.891 55.8088 106.759 54.1195 106.158 52.0432L106.052 51.7264H134.174V48.3831ZM106.123 45.1102C106.123 42.506 109.129 37.9661 115.603 37.9309C122.076 37.9309 125.118 42.4708 125.118 45.075L106.123 45.1102Z" fill="#BDBDBD"/>
<path d="M159.214 62.1429C159.036 61.7143 158.786 61.3571 158.464 61.0357C158.143 60.7143 157.786 60.4643 157.357 60.2857C156.929 60.1071 156.464 60 156 60C155.5 60 155.071 60.1071 154.643 60.2857C154.214 60.4643 153.857 60.7143 153.536 61.0357C153.214 61.3571 152.964 61.7143 152.786 62.1429C152.607 62.5714 152.5 63.0357 152.5 63.5C152.5 64 152.607 64.4286 152.786 64.8571C152.964 65.2857 153.214 65.6429 153.536 65.9643C153.857 66.2857 154.214 66.5357 154.643 66.7143C155.071 66.8929 155.536 67 156 67C156.5 67 156.929 66.8929 157.357 66.7143C157.786 66.5357 158.143 66.2857 158.464 65.9643C158.786 65.6429 159.036 65.2857 159.214 64.8571C159.393 64.4286 159.5 63.9643 159.5 63.5C159.5 63.0357 159.393 62.5714 159.214 62.1429ZM158.643 64.6429C158.5 65 158.286 65.3214 158.036 65.5714C157.786 65.8214 157.464 66.0357 157.107 66.1786C156.75 66.3214 156.393 66.3929 155.964 66.3929C155.571 66.3929 155.179 66.3214 154.821 66.1786C154.464 66.0357 154.143 65.8214 153.893 65.5714C153.643 65.3214 153.429 65 153.286 64.6429C153.143 64.2857 153.071 63.9286 153.071 63.5C153.071 63.1071 153.143 62.7143 153.286 62.3571C153.429 62 153.643 61.6786 153.893 61.4286C154.143 61.1786 154.464 60.9643 154.821 60.8214C155.179 60.6786 155.536 60.6071 155.964 60.6071C156.357 60.6071 156.75 60.6786 157.107 60.8214C157.464 60.9643 157.786 61.1786 158.036 61.4286C158.286 61.6786 158.5 62 158.643 62.3571C158.786 62.7143 158.857 63.0714 158.857 63.5C158.893 63.9286 158.786 64.2857 158.643 64.6429ZM156.643 63.7857C156.929 63.75 157.143 63.6429 157.321 63.4643C157.5 63.2857 157.607 63.0357 157.607 62.6786C157.607 62.2857 157.5 62 157.25 61.7857C157.036 61.5714 156.643 61.4643 156.179 61.4643H154.607V65.5H155.357V63.8571H155.893L156.893 65.5H157.679L156.643 63.7857ZM156.25 63.2143C156.143 63.2143 156.036 63.2143 155.893 63.2143H155.357V62.0714H155.893C156 62.0714 156.107 62.0714 156.25 62.0714C156.357 62.0714 156.464 62.1071 156.571 62.1429C156.679 62.1786 156.75 62.25 156.786 62.3214C156.821 62.3929 156.857 62.5 156.857 62.6429C156.857 62.7857 156.821 62.8929 156.786 62.9643C156.714 63.0357 156.643 63.1071 156.571 63.1429C156.464 63.1786 156.357 63.2143 156.25 63.2143Z" fill="#BDBDBD"/>
</svg>
