<svg width="156" height="25" viewBox="0 0 156 25" fill="none" xmlns="http://www.w3.org/2000/svg">
<path d="M129.002 18.5492H128.882L123.777 0.791017H115.542V23.1785H120.997L120.69 4.8068H120.81L126.291 23.1785H134.193V0.789916H128.701L129.002 18.5492ZM24.2292 0.789916L20.1209 23.4142H26.116L29.1537 2.87821H29.2803L32.2377 23.4153H38.1975L34.1079 0.789916H24.2292ZM57.7631 0.792118L55.0228 18.0899H54.8983L52.1712 0.792118H43.1208L42.6296 23.4142H48.1785L48.3173 3.06986H48.4429L52.1492 23.4142H57.7774L61.4848 3.07647L61.6082 3.06986L61.7525 23.4142H67.3036L66.8135 0.792118H57.7631ZM6.37297 6.60983C6.26834 6.14723 6.29367 5.68463 6.34984 5.4291C6.50955 4.70217 6.98977 3.90584 8.37866 3.90584C9.68054 3.90584 10.4383 4.7275 10.4383 5.95448V7.35219H15.9796V5.77275C15.9796 0.837277 11.6378 0.0673828 8.49431 0.0673828C4.55012 0.0673828 1.32956 1.40341 0.735896 5.09427C0.573987 6.08555 0.554161 6.99423 0.789866 8.1397C1.75361 12.7635 9.63649 14.1028 10.7809 17.0271C10.9956 17.5723 10.9263 18.2794 10.8205 18.7067C10.641 19.4469 10.142 20.2168 8.66063 20.2168C7.27504 20.2168 6.42915 19.4072 6.42915 18.1726L6.42584 15.9774H0.475961L0.472656 17.7265C0.472656 22.7732 4.36728 24.2899 8.53837 24.2899C12.5586 24.2899 15.854 22.9043 16.3871 19.1275C16.6581 17.1692 16.4587 15.8849 16.3629 15.4058C15.4234 10.6664 7.00629 9.26536 6.37297 6.60983ZM78.5712 6.6627C78.4621 6.21111 78.493 5.75292 78.5447 5.5029C78.7001 4.78037 79.1759 3.99285 80.5526 3.99285C81.8391 3.99285 82.5947 4.8024 82.5947 6.01286V7.40065H88.0765V5.83553C88.0765 0.960636 83.7743 0.192945 80.6716 0.192945C76.7615 0.192945 73.5685 1.49923 72.9881 5.16697C72.8262 6.15384 72.8008 7.0559 73.0387 8.18486C73.9937 12.7602 81.7983 14.0896 82.9339 16.9819C83.141 17.5271 83.0782 18.2221 82.9769 18.6462C82.7962 19.3918 82.2973 20.1386 80.8368 20.1386C79.4578 20.1386 78.6273 19.3412 78.6273 18.1197L78.6229 15.9411H72.7259V17.6747C72.7259 22.6697 76.5864 24.1687 80.7168 24.1687C84.6874 24.1687 87.9553 22.7952 88.4785 19.0581C88.7472 17.1251 88.549 15.8519 88.4553 15.3749C87.5246 10.6862 79.188 9.29289 78.5712 6.6627ZM103.738 17.5216C103.742 17.8091 103.733 18.1417 103.686 18.384C103.576 18.9469 103.101 20.0119 101.558 20.0119C100.02 20.0119 99.5401 18.9469 99.4299 18.384C99.3826 18.1417 99.3715 17.8091 99.3737 17.5216V0.787713H93.7653V17.0028C93.7565 17.4225 93.7972 18.2717 93.8171 18.4975C94.1982 22.7148 97.476 24.0773 101.557 24.0773C105.633 24.0773 108.91 22.7148 109.303 18.4975C109.323 18.2717 109.366 17.4214 109.359 17.0028V0.787713H103.736V17.5216H103.738ZM147.894 10.695V14.0081H150.166V17.2892C150.172 17.5745 150.161 17.8895 150.114 18.1483C150.015 18.7574 149.449 19.785 147.848 19.785C146.244 19.785 145.68 18.7563 145.576 18.1483C145.533 17.8895 145.52 17.5745 145.527 17.2892V6.93805C145.527 6.57018 145.55 6.16816 145.617 5.87628C145.735 5.31896 146.213 4.23406 147.826 4.23406C149.524 4.23406 149.943 5.37954 150.045 5.87628C150.11 6.19019 150.114 6.73099 150.114 6.72878V8.00313H155.707V7.24755C155.705 7.24755 155.727 6.47435 155.662 5.76834C155.251 1.51355 151.803 0.174221 147.873 0.174221C143.941 0.174221 140.574 1.52456 140.086 5.76834C140.038 6.13401 139.989 6.84553 139.989 7.24755L139.986 16.766C139.989 17.1923 140.002 17.5073 140.064 18.2607C140.429 22.38 143.941 23.8559 147.868 23.8559C151.798 23.8559 155.309 22.38 155.677 18.2607C155.738 17.5062 155.747 17.1912 155.748 16.766V10.695H147.894Z" fill="#BDBDBD"/>
</svg>
