<svg width="181" height="80" viewBox="0 0 181 80" fill="none" xmlns="http://www.w3.org/2000/svg">
<g clip-path="url(#clip0_41_6758)">
<path d="M64.087 43.0355L63.0143 46.0533H62.9249C62.7462 45.3728 62.4184 44.3373 61.8821 43.0947L56.1314 28.7456H50.5V51.6154H54.2245V37.503C54.2245 36.6154 54.2245 35.6095 54.1947 34.3669C54.1649 33.7456 54.1053 33.2722 54.0755 32.9172H54.1649C54.3437 33.8047 54.5523 34.4556 54.7012 34.8698L61.6139 51.5562H64.236L71.089 34.7219C71.238 34.3373 71.387 33.568 71.536 32.9172H71.6254C71.536 34.6035 71.4764 36.1124 71.4466 37.0296V51.5266H75.4095V28.6864H69.9866L64.087 43.0355ZM79.1638 35.1361H83.0372V51.5266H79.1638V35.1361ZM81.1303 28.213C80.4748 28.213 79.9385 28.4497 79.4915 28.8639C79.0446 29.2781 78.8062 29.8107 78.8062 30.4615C78.8062 31.0828 79.0446 31.6154 79.4915 32.0296C79.9385 32.4438 80.4748 32.6509 81.1303 32.6509C81.7858 32.6509 82.3519 32.4142 82.7691 32.0296C83.216 31.6154 83.4544 31.0828 83.4544 30.4615C83.4544 29.8402 83.216 29.3077 82.7691 28.8639C82.3817 28.4497 81.8156 28.213 81.1303 28.213ZM96.7732 34.9882C96.0581 34.8402 95.3132 34.7515 94.5981 34.7515C92.8401 34.7515 91.2311 35.1361 89.8903 35.9053C88.5495 36.6746 87.4768 37.7396 86.7915 39.071C86.0764 40.432 85.7189 42 85.7189 43.8047C85.7189 45.3728 86.0764 46.7633 86.7617 48.0355C87.447 49.2781 88.4005 50.284 89.6818 50.9645C90.9034 51.645 92.3336 52 93.9426 52C95.7899 52 97.3691 51.6154 98.6206 50.9053L98.6504 50.8757V47.3254L98.5014 47.4438C97.9352 47.858 97.2797 48.213 96.6242 48.4201C95.9389 48.6568 95.3132 48.7751 94.7769 48.7751C93.2275 48.7751 92.0058 48.3314 91.1418 47.355C90.2479 46.4083 89.8009 45.1065 89.8009 43.4793C89.8009 41.7929 90.2479 40.4615 91.1716 39.4852C92.0952 38.5089 93.3169 38.0059 94.8067 38.0059C96.0581 38.0059 97.3393 38.4201 98.5014 39.2485L98.6504 39.3669V35.6095L98.6206 35.5799C98.114 35.3728 97.5479 35.1361 96.7732 34.9882ZM109.556 34.8698C108.602 34.8698 107.708 35.1657 106.934 35.787C106.278 36.3195 105.831 37.0888 105.444 38.0059H105.414V35.1361H101.541V51.5266H105.414V43.1538C105.414 41.7337 105.712 40.5503 106.368 39.6923C107.023 38.8047 107.857 38.3609 108.87 38.3609C109.228 38.3609 109.585 38.4497 110.032 38.5089C110.45 38.6272 110.748 38.7456 110.956 38.8935L111.105 39.0118V35.1657L111.016 35.1361C110.748 34.9586 110.211 34.8698 109.556 34.8698ZM120.103 34.7811C117.392 34.7811 115.217 35.5799 113.697 37.1479C112.148 38.716 111.403 40.8757 111.403 43.5976C111.403 46.142 112.178 48.213 113.668 49.7219C115.157 51.2012 117.183 51.9704 119.716 51.9704C122.368 51.9704 124.483 51.1716 126.003 49.574C127.552 47.9763 128.297 45.8462 128.297 43.213C128.297 40.6095 127.582 38.5385 126.122 37.0296C124.722 35.5207 122.666 34.7811 120.103 34.7811ZM123.202 47.3846C122.487 48.3018 121.355 48.7456 119.954 48.7456C118.554 48.7456 117.422 48.3018 116.617 47.3254C115.813 46.4083 115.426 45.0769 115.426 43.3905C115.426 41.645 115.843 40.3136 116.617 39.3669C117.422 38.4201 118.524 37.9467 119.925 37.9467C121.295 37.9467 122.368 38.3905 123.143 39.3077C123.917 40.2249 124.335 41.5562 124.335 43.3018C124.275 45.0769 123.947 46.4675 123.202 47.3846ZM136.938 41.9408C135.717 41.4379 134.942 41.0533 134.584 40.7278C134.286 40.432 134.137 40.0178 134.137 39.4852C134.137 39.0414 134.316 38.5976 134.763 38.3018C135.21 38.0059 135.717 37.858 136.461 37.858C137.117 37.858 137.802 37.9763 138.458 38.1538C139.113 38.3314 139.709 38.5976 140.186 38.9527L140.335 39.071V35.4615L140.246 35.432C139.799 35.2544 139.203 35.0769 138.488 34.929C137.773 34.8107 137.117 34.7515 136.581 34.7515C134.733 34.7515 133.214 35.1953 132.022 36.1716C130.83 37.0888 130.264 38.3314 130.264 39.7811C130.264 40.5503 130.383 41.2308 130.651 41.7929C130.919 42.355 131.307 42.8876 131.843 43.3314C132.379 43.7456 133.154 44.2189 134.227 44.6627C135.121 45.0473 135.806 45.3432 136.223 45.5799C136.64 45.8166 136.908 46.0828 137.117 46.2899C137.266 46.5266 137.355 46.8225 137.355 47.2071C137.355 48.3018 136.521 48.8343 134.823 48.8343C134.167 48.8343 133.482 48.716 132.677 48.4497C131.873 48.1834 131.128 47.7988 130.502 47.355L130.353 47.2367V50.9941L130.443 51.0237C131.009 51.2899 131.694 51.4675 132.528 51.6746C133.363 51.8225 134.108 51.9408 134.763 51.9408C136.759 51.9408 138.398 51.497 139.56 50.5207C140.752 49.574 141.378 48.3609 141.378 46.7929C141.378 45.6982 141.08 44.7219 140.424 43.9823C139.56 43.2722 138.488 42.5325 136.938 41.9408ZM151.598 34.7811C148.886 34.7811 146.711 35.5799 145.192 37.1479C143.672 38.716 142.897 40.8757 142.897 43.5976C142.897 46.142 143.672 48.213 145.162 49.7219C146.652 51.2012 148.678 51.9704 151.211 51.9704C153.862 51.9704 155.978 51.1716 157.497 49.574C159.047 47.9763 159.792 45.8462 159.792 43.213C159.792 40.6095 159.077 38.5385 157.617 37.0296C156.216 35.5207 154.16 34.7811 151.598 34.7811ZM154.667 47.3846C153.952 48.3018 152.819 48.7456 151.419 48.7456C149.989 48.7456 148.886 48.3018 148.082 47.3254C147.277 46.4083 146.89 45.0769 146.89 43.3905C146.89 41.645 147.307 40.3136 148.082 39.3669C148.886 38.4201 149.989 37.9467 151.389 37.9467C152.73 37.9467 153.833 38.3905 154.607 39.3077C155.382 40.2249 155.799 41.5562 155.799 43.3018C155.799 45.0769 155.412 46.4675 154.667 47.3846ZM180.5 38.3018V35.1361H176.597V30.284L176.478 30.3136L172.783 31.4083L172.693 31.4379V35.1361H166.853V33.0651C166.853 32.1183 167.092 31.3787 167.509 30.9053C167.926 30.432 168.552 30.1953 169.326 30.1953C169.863 30.1953 170.429 30.3136 171.055 30.5799L171.204 30.6686V27.3254L171.114 27.2959C170.578 27.1183 169.863 27 168.939 27C167.777 27 166.764 27.2663 165.84 27.7101C164.917 28.213 164.231 28.8935 163.725 29.8107C163.218 30.6982 162.95 31.7041 162.95 32.858V35.1361H160.239V38.2722H162.95V51.5266H166.853V38.3018H172.693V46.7337C172.693 50.1953 174.332 51.9408 177.61 51.9408C178.146 51.9408 178.712 51.8521 179.249 51.7633C179.815 51.645 180.232 51.497 180.47 51.3787L180.5 51.3491V48.1834L180.351 48.3018C180.113 48.4497 179.904 48.568 179.547 48.6568C179.249 48.7456 178.98 48.7751 178.772 48.7751C177.997 48.7751 177.461 48.5976 177.073 48.1538C176.716 47.7396 176.537 47.0592 176.537 46.0533V38.3018H180.5Z" fill="#BDBDBD"/>
<path d="M0.5 21H18.5V39H0.5V21Z" fill="#BDBDBD"/>
<path d="M20.5 21H38.5V39H20.5V21Z" fill="#BDBDBD"/>
<path d="M0.5 41H18.5V59H0.5V41Z" fill="#BDBDBD"/>
<path d="M20.5 41H38.5V59H20.5V41Z" fill="#BDBDBD"/>
</g>
<defs>
<clipPath id="clip0_41_6758">
<rect width="180" height="80" fill="white" transform="translate(0.5)"/>
</clipPath>
</defs>
</svg>
