<svg width="1386" height="356" viewBox="0 0 1386 356" fill="none" xmlns="http://www.w3.org/2000/svg">
<g filter="url(#filter0_ddii_126_327)">
<path d="M143.82 43.8574L133.059 52.1143C127.121 44.3831 119.978 38.5384 111.628 34.5801C103.34 30.5599 94.2174 28.5498 84.2598 28.5498C73.3743 28.5498 63.293 31.1784 54.0156 36.4355C44.7383 41.6309 37.5329 48.6507 32.3994 57.4951C27.3278 66.2777 24.792 76.1735 24.792 87.1826C24.792 103.82 30.4821 117.705 41.8623 128.838C53.3044 139.971 67.7152 145.537 85.0947 145.537C104.206 145.537 120.194 138.053 133.059 123.086L143.82 131.25C137.017 139.909 128.513 146.619 118.308 151.382C108.164 156.082 96.8151 158.433 84.2598 158.433C60.3861 158.433 41.5531 150.485 27.7607 134.59C16.195 121.169 10.4121 104.964 10.4121 85.9766C10.4121 65.9993 17.401 49.2074 31.3789 35.6006C45.4186 21.932 62.9837 15.0977 84.0742 15.0977C96.8151 15.0977 108.319 17.6335 118.586 22.7051C128.853 27.7148 137.264 34.7656 143.82 43.8574ZM257.928 121.509L268.875 127.261C265.288 134.312 261.144 140.002 256.444 144.331C251.743 148.66 246.455 151.969 240.579 154.258C234.704 156.484 228.055 157.598 220.633 157.598C204.181 157.598 191.317 152.217 182.039 141.455C172.762 130.632 168.123 118.416 168.123 104.81C168.123 92.0068 172.051 80.5957 179.905 70.5762C189.863 57.8353 203.192 51.4648 219.891 51.4648C237.085 51.4648 250.815 57.9899 261.082 71.04C268.38 80.2555 272.091 91.7594 272.215 105.552H181.483C181.73 117.303 185.472 126.951 192.708 134.497C199.945 141.981 208.882 145.723 219.52 145.723C224.653 145.723 229.632 144.826 234.456 143.032C239.342 141.239 243.486 138.857 246.888 135.889C250.29 132.92 253.97 128.127 257.928 121.509ZM257.928 94.3262C256.196 87.3991 253.66 81.8636 250.321 77.7197C247.043 73.5758 242.682 70.236 237.239 67.7002C231.797 65.1644 226.076 63.8965 220.076 63.8965C210.181 63.8965 201.676 67.0817 194.564 73.4521C189.368 78.0908 185.441 85.0488 182.781 94.3262H257.928ZM300.507 54.0625H313.403V72.6172C318.536 65.5664 324.443 60.2783 331.122 56.7529C337.802 53.2275 345.255 51.4648 353.481 51.4648C367.83 51.4648 380.107 56.6292 390.312 66.958C400.517 77.2868 405.62 89.7184 405.62 104.253C405.62 119.097 400.548 131.714 390.405 142.104C380.323 152.433 368.139 157.598 353.852 157.598C345.812 157.598 338.421 155.928 331.679 152.588C324.938 149.248 318.845 144.269 313.403 137.651V191.924H300.507V54.0625ZM352.46 63.9893C341.204 63.9893 331.71 67.9167 323.979 75.7715C316.31 83.6263 312.475 93.3984 312.475 105.088C312.475 112.757 314.176 119.653 317.578 125.776C321.041 131.899 325.958 136.755 332.329 140.342C338.761 143.929 345.533 145.723 352.646 145.723C359.635 145.723 366.191 143.929 372.314 140.342C378.499 136.693 383.416 131.621 387.065 125.127C390.714 118.633 392.538 111.829 392.538 104.717C392.538 97.5423 390.714 90.7389 387.065 84.3066C383.478 77.8743 378.622 72.8955 372.499 69.3701C366.376 65.7829 359.697 63.9893 352.46 63.9893ZM422.501 54.0625H488.926V65.2881H462.208V155H449.127V65.2881H422.501V54.0625ZM523.342 54.0625V128.745L597.468 54.0625H598.488V155H585.5V80.9668L511.93 155H510.353V54.0625H523.342ZM713.152 15.0977H726.048V69.2773C734.15 57.7734 745.809 52.0215 761.023 52.0215C775.682 52.0215 787.959 57.0003 797.854 66.958C807.812 76.9157 812.791 89.6875 812.791 105.273C812.791 120.674 807.781 133.322 797.762 143.218C787.742 153.114 775.62 158.062 761.395 158.062C745.809 158.062 734.026 152 726.048 139.878V191.924H713.152V139.878C705.298 152.062 693.423 158.154 677.527 158.154C663.549 158.154 651.52 153.206 641.438 143.311C631.419 133.415 626.409 120.736 626.409 105.273C626.409 89.6875 631.357 76.9157 641.253 66.958C651.211 57.0003 663.519 52.0215 678.177 52.0215C693.701 52.0215 705.359 57.7734 713.152 69.2773V15.0977ZM725.677 106.943C725.677 119.004 729.109 128.467 735.975 135.332C742.84 142.197 750.726 145.63 759.632 145.63C771.754 145.63 781.465 141.61 788.763 133.569C796.061 125.529 799.71 115.85 799.71 104.531C799.71 92.8418 795.844 83.1315 788.113 75.4004C780.444 67.6693 771.229 63.8037 760.467 63.8037C750.757 63.8037 742.531 67.2673 735.789 74.1943C729.048 81.0596 725.677 91.9759 725.677 106.943ZM639.49 104.624C639.49 115.881 643.108 125.529 650.345 133.569C657.643 141.61 667.384 145.63 679.568 145.63C683.774 145.63 688.289 144.578 693.113 142.476C697.938 140.311 701.803 137.62 704.71 134.404C707.679 131.126 709.905 127.354 711.39 123.086C712.874 118.818 713.616 112.572 713.616 104.346C713.616 91.2337 710.215 81.2142 703.411 74.2871C696.608 67.2982 688.382 63.8037 678.733 63.8037C667.91 63.8037 658.663 67.6693 650.994 75.4004C643.325 83.1315 639.49 92.8727 639.49 104.624ZM853.608 54.0625V128.745L927.734 54.0625H928.754V155H915.766V80.9668L842.196 155H840.619V54.0625H853.608ZM961.499 54.0625H974.58V96.5527L1021.25 54.0625H1039.34L988.218 100.264L1043.42 155H1025.05L978.662 108.335L974.58 111.953V155H961.499V54.0625ZM1161.24 54.0625V155H1148.43V137.651C1142.99 144.269 1136.87 149.248 1130.07 152.588C1123.32 155.928 1115.93 157.598 1107.89 157.598C1093.61 157.598 1081.39 152.433 1071.25 142.104C1061.17 131.714 1056.12 119.097 1056.12 104.253C1056.12 89.7184 1061.23 77.2868 1071.43 66.958C1081.64 56.6292 1093.91 51.4648 1108.26 51.4648C1116.55 51.4648 1124.03 53.2275 1130.71 56.7529C1137.46 60.2783 1143.36 65.5664 1148.43 72.6172V54.0625H1161.24ZM1109.28 63.9893C1102.05 63.9893 1095.37 65.7829 1089.24 69.3701C1083.12 72.8955 1078.24 77.8743 1074.59 84.3066C1071 90.7389 1069.21 97.5423 1069.21 104.717C1069.21 111.829 1071.03 118.633 1074.68 125.127C1078.33 131.621 1083.21 136.693 1089.34 140.342C1095.52 143.929 1102.14 145.723 1109.19 145.723C1116.3 145.723 1123.05 143.929 1129.42 140.342C1135.79 136.755 1140.67 131.899 1144.07 125.776C1147.54 119.653 1149.27 112.757 1149.27 105.088C1149.27 93.3984 1145.4 83.6263 1137.67 75.7715C1130 67.9167 1120.54 63.9893 1109.28 63.9893ZM1183.03 54.0625H1249.46V65.2881H1222.74V155H1209.66V65.2881H1183.03V54.0625ZM1283.78 94.0479H1296.12C1305.96 94.0479 1313.66 94.821 1319.22 96.3672C1324.79 97.9134 1329.58 101.346 1333.6 106.665C1337.62 111.922 1339.63 117.983 1339.63 124.849C1339.63 133.136 1336.73 140.249 1330.91 146.187C1325.1 152.062 1316.28 155 1304.47 155H1270.89V54.0625H1283.78V94.0479ZM1284.25 105.923V144.053H1299.18C1316.75 144.053 1325.53 137.868 1325.53 125.498C1325.53 121.973 1324.57 118.509 1322.66 115.107C1320.8 111.706 1318.05 109.325 1314.4 107.964C1310.81 106.603 1304.44 105.923 1295.29 105.923H1284.25ZM1357.54 54.0625H1370.62V155H1357.54V54.0625ZM168.264 224.062V298.745L242.39 224.062H243.411V325H230.422V250.967L156.853 325H155.276V224.062H168.264ZM418.096 325H404.272L370.503 251.523L337.012 325H323.096L369.297 224.062H371.616L418.096 325ZM454.83 224.062V298.745L528.956 224.062H529.977V325H516.988V250.967L443.419 325H441.842V224.062H454.83ZM657.073 325H562.722V224.062H575.803V312.754H634.436V224.062H647.517V312.754H669.319V340.957H657.073V325ZM775.633 291.509L786.581 297.261C782.993 304.312 778.85 310.002 774.149 314.331C769.449 318.66 764.16 321.969 758.285 324.258C752.409 326.484 745.76 327.598 738.339 327.598C721.887 327.598 709.022 322.217 699.745 311.455C690.467 300.632 685.829 288.416 685.829 274.81C685.829 262.007 689.756 250.596 697.611 240.576C707.569 227.835 720.897 221.465 737.596 221.465C754.79 221.465 768.521 227.99 778.788 241.04C786.086 250.256 789.797 261.759 789.921 275.552H699.188C699.436 287.303 703.177 296.951 710.414 304.497C717.65 311.981 726.587 315.723 737.225 315.723C742.359 315.723 747.338 314.826 752.162 313.032C757.048 311.239 761.192 308.857 764.593 305.889C767.995 302.92 771.675 298.127 775.633 291.509ZM775.633 264.326C773.902 257.399 771.366 251.864 768.026 247.72C764.748 243.576 760.388 240.236 754.945 237.7C749.502 235.164 743.781 233.896 737.782 233.896C727.886 233.896 719.382 237.082 712.269 243.452C707.074 248.091 703.146 255.049 700.487 264.326H775.633ZM889.741 276.387H831.108V325H818.027V224.062H831.108V264.141H889.741V224.062H902.729V325H889.741V276.387ZM952.452 266.553H959.225C963.554 266.553 967.512 265.13 971.1 262.285C974.749 259.44 976.573 255.358 976.573 250.039C976.573 245.524 975.12 241.659 972.213 238.442C969.306 235.164 964.853 233.525 958.854 233.525C951.865 233.525 944.845 236.247 937.794 241.689L930.465 232.69C939.557 225.083 949.205 221.279 959.41 221.279C967.822 221.279 974.872 223.784 980.562 228.794C986.253 233.804 989.098 240.267 989.098 248.184C989.098 258.698 984.459 265.841 975.182 269.614C987.304 274.686 993.365 283.561 993.365 296.24C993.365 304.281 990.52 311.548 984.83 318.042C979.202 324.474 970.759 327.69 959.503 327.69C945.711 327.69 934.609 323.206 926.197 314.238L934.361 304.961C940.608 312.012 948.618 315.537 958.39 315.537C964.946 315.537 970.079 313.774 973.79 310.249C977.563 306.724 979.449 302.085 979.449 296.333C979.449 290.705 977.563 286.19 973.79 282.788C970.017 279.386 965.564 277.686 960.431 277.686H952.452V266.553ZM1032.7 224.062V298.745L1106.82 224.062H1107.84V325H1094.86V250.967L1021.29 325H1019.71V224.062H1032.7ZM1153.58 224.062V298.745L1227.7 224.062H1228.72V325H1215.74V250.967L1142.17 325H1140.59V224.062H1153.58Z" fill="#F9F9F9"/>
</g>
<defs>
<filter id="filter0_ddii_126_327" x="-4.58789" y="0.0976562" width="1390.21" height="355.859" filterUnits="userSpaceOnUse" color-interpolation-filters="sRGB">
<feFlood flood-opacity="0" result="BackgroundImageFix"/>
<feColorMatrix in="SourceAlpha" type="matrix" values="0 0 0 0 0 0 0 0 0 0 0 0 0 0 0 0 0 0 127 0" result="hardAlpha"/>
<feOffset dx="5" dy="5"/>
<feGaussianBlur stdDeviation="5"/>
<feComposite in2="hardAlpha" operator="out"/>
<feColorMatrix type="matrix" values="0 0 0 0 0 0 0 0 0 0 0 0 0 0 0 0 0 0 0.02 0"/>
<feBlend mode="normal" in2="BackgroundImageFix" result="effect1_dropShadow_126_327"/>
<feColorMatrix in="SourceAlpha" type="matrix" values="0 0 0 0 0 0 0 0 0 0 0 0 0 0 0 0 0 0 127 0" result="hardAlpha"/>
<feOffset dx="-5" dy="-5"/>
<feGaussianBlur stdDeviation="5"/>
<feComposite in2="hardAlpha" operator="out"/>
<feColorMatrix type="matrix" values="0 0 0 0 1 0 0 0 0 1 0 0 0 0 1 0 0 0 0.5 0"/>
<feBlend mode="normal" in2="effect1_dropShadow_126_327" result="effect2_dropShadow_126_327"/>
<feBlend mode="normal" in="SourceGraphic" in2="effect2_dropShadow_126_327" result="shape"/>
<feColorMatrix in="SourceAlpha" type="matrix" values="0 0 0 0 0 0 0 0 0 0 0 0 0 0 0 0 0 0 127 0" result="hardAlpha"/>
<feOffset dx="5" dy="5"/>
<feGaussianBlur stdDeviation="5"/>
<feComposite in2="hardAlpha" operator="arithmetic" k2="-1" k3="1"/>
<feColorMatrix type="matrix" values="0 0 0 0 0 0 0 0 0 0 0 0 0 0 0 0 0 0 0.02 0"/>
<feBlend mode="normal" in2="shape" result="effect3_innerShadow_126_327"/>
<feColorMatrix in="SourceAlpha" type="matrix" values="0 0 0 0 0 0 0 0 0 0 0 0 0 0 0 0 0 0 127 0" result="hardAlpha"/>
<feOffset dx="-5" dy="-5"/>
<feGaussianBlur stdDeviation="5"/>
<feComposite in2="hardAlpha" operator="arithmetic" k2="-1" k3="1"/>
<feColorMatrix type="matrix" values="0 0 0 0 1 0 0 0 0 1 0 0 0 0 1 0 0 0 0.5 0"/>
<feBlend mode="normal" in2="effect3_innerShadow_126_327" result="effect4_innerShadow_126_327"/>
</filter>
</defs>
</svg>
