<svg width="992" height="314" viewBox="0 0 992 314" fill="none" xmlns="http://www.w3.org/2000/svg">
<path d="M54.3711 267.449H55.6104V271.475L60.0312 267.449H61.7451L56.9023 271.826L62.1318 277.012H60.3916L55.9971 272.591L55.6104 272.934V277.012H54.3711V267.449ZM76.721 277.012H75.4114L72.2122 270.051L69.0393 277.012H67.721L72.0979 267.449H72.3177L76.721 277.012ZM85.0611 267.449V274.524L92.0836 267.449H92.1802V277.012H90.9498V269.998L83.98 277.012H83.8306V267.449H85.0611ZM106.936 272.406H101.382V277.012H100.142V267.449H101.382V271.246H106.936V267.449H108.167V277.012H106.936V272.406ZM117.368 267.449V274.524L124.391 267.449H124.487V277.012H123.257V269.998L116.287 277.012H116.138V267.449H117.368ZM132.45 267.449H133.689V271.475L138.11 267.449H139.824L134.981 271.826L140.21 277.012H138.47L134.076 272.591L133.689 272.934V277.012H132.45V267.449ZM156.232 267.449V277.012H155.019V275.368C154.504 275.995 153.924 276.467 153.279 276.783C152.64 277.1 151.94 277.258 151.178 277.258C149.825 277.258 148.668 276.769 147.707 275.79C146.752 274.806 146.274 273.61 146.274 272.204C146.274 270.827 146.757 269.649 147.724 268.671C148.691 267.692 149.854 267.203 151.214 267.203C151.999 267.203 152.708 267.37 153.341 267.704C153.979 268.038 154.539 268.539 155.019 269.207V267.449H156.232ZM151.31 268.39C150.625 268.39 149.992 268.56 149.412 268.899C148.832 269.233 148.369 269.705 148.023 270.314C147.683 270.924 147.513 271.568 147.513 272.248C147.513 272.922 147.686 273.566 148.032 274.182C148.378 274.797 148.841 275.277 149.421 275.623C150.007 275.963 150.633 276.133 151.301 276.133C151.975 276.133 152.614 275.963 153.217 275.623C153.821 275.283 154.284 274.823 154.606 274.243C154.934 273.663 155.098 273.01 155.098 272.283C155.098 271.176 154.732 270.25 154 269.506C153.273 268.762 152.377 268.39 151.31 268.39ZM174.442 267.449H182.466V277.012H181.236V268.609H175.672V277.012H174.442V267.449ZM198.488 273.839L199.525 274.384C199.185 275.052 198.792 275.591 198.347 276.001C197.902 276.411 197.401 276.725 196.844 276.941C196.288 277.152 195.658 277.258 194.955 277.258C193.396 277.258 192.177 276.748 191.298 275.729C190.419 274.703 189.98 273.546 189.98 272.257C189.98 271.044 190.352 269.963 191.096 269.014C192.04 267.807 193.302 267.203 194.884 267.203C196.513 267.203 197.814 267.821 198.787 269.058C199.478 269.931 199.83 271.021 199.841 272.327H191.246C191.269 273.44 191.624 274.354 192.309 275.069C192.995 275.778 193.841 276.133 194.849 276.133C195.335 276.133 195.807 276.048 196.264 275.878C196.727 275.708 197.12 275.482 197.442 275.201C197.764 274.92 198.113 274.466 198.488 273.839ZM198.488 271.264C198.324 270.607 198.084 270.083 197.767 269.69C197.457 269.298 197.043 268.981 196.528 268.741C196.012 268.501 195.47 268.381 194.902 268.381C193.964 268.381 193.159 268.683 192.485 269.286C191.993 269.726 191.621 270.385 191.369 271.264H198.488ZM207.382 267.449H208.603V269.207C209.09 268.539 209.649 268.038 210.282 267.704C210.915 267.37 211.621 267.203 212.4 267.203C213.76 267.203 214.923 267.692 215.889 268.671C216.856 269.649 217.34 270.827 217.34 272.204C217.34 273.61 216.859 274.806 215.898 275.79C214.943 276.769 213.789 277.258 212.435 277.258C211.674 277.258 210.973 277.1 210.335 276.783C209.696 276.467 209.119 275.995 208.603 275.368V280.51H207.382V267.449ZM212.304 268.39C211.237 268.39 210.338 268.762 209.605 269.506C208.879 270.25 208.515 271.176 208.515 272.283C208.515 273.01 208.677 273.663 208.999 274.243C209.327 274.823 209.793 275.283 210.396 275.623C211.006 275.963 211.647 276.133 212.321 276.133C212.983 276.133 213.604 275.963 214.184 275.623C214.77 275.277 215.236 274.797 215.582 274.182C215.928 273.566 216.1 272.922 216.1 272.248C216.1 271.568 215.928 270.924 215.582 270.314C215.242 269.705 214.782 269.233 214.202 268.899C213.622 268.56 212.989 268.39 212.304 268.39ZM234.152 269.436L233.177 270.042C232.333 268.923 231.182 268.363 229.723 268.363C228.557 268.363 227.587 268.738 226.814 269.488C226.046 270.238 225.662 271.149 225.662 272.222C225.662 272.919 225.838 273.575 226.19 274.19C226.547 274.806 227.033 275.283 227.649 275.623C228.27 275.963 228.964 276.133 229.732 276.133C231.138 276.133 232.286 275.573 233.177 274.454L234.152 275.096C233.695 275.781 233.08 276.314 232.307 276.695C231.539 277.07 230.663 277.258 229.679 277.258C228.167 277.258 226.913 276.777 225.917 275.816C224.921 274.855 224.423 273.687 224.423 272.31C224.423 271.384 224.654 270.525 225.117 269.734C225.586 268.938 226.228 268.316 227.042 267.871C227.857 267.426 228.768 267.203 229.775 267.203C230.408 267.203 231.018 267.3 231.604 267.493C232.195 267.687 232.696 267.938 233.107 268.249C233.517 268.56 233.865 268.955 234.152 269.436ZM246.272 267.203C247.743 267.203 248.961 267.736 249.928 268.803C250.807 269.775 251.246 270.927 251.246 272.257C251.246 273.593 250.781 274.762 249.849 275.764C248.923 276.76 247.731 277.258 246.272 277.258C244.807 277.258 243.609 276.76 242.677 275.764C241.751 274.762 241.288 273.593 241.288 272.257C241.288 270.933 241.728 269.784 242.607 268.812C243.574 267.739 244.795 267.203 246.272 267.203ZM246.272 268.407C245.252 268.407 244.376 268.785 243.644 269.541C242.911 270.297 242.545 271.211 242.545 272.283C242.545 272.975 242.712 273.619 243.046 274.217C243.38 274.814 243.831 275.277 244.4 275.605C244.968 275.928 245.592 276.089 246.272 276.089C246.952 276.089 247.576 275.928 248.144 275.605C248.712 275.277 249.163 274.814 249.497 274.217C249.831 273.619 249.998 272.975 249.998 272.283C249.998 271.211 249.629 270.297 248.891 269.541C248.159 268.785 247.286 268.407 246.272 268.407ZM265.554 272.406H260V277.012H258.76V267.449H260V271.246H265.554V267.449H266.785V277.012H265.554V272.406ZM284.283 267.449V277.012H283.07V275.368C282.555 275.995 281.975 276.467 281.33 276.783C280.691 277.1 279.991 277.258 279.229 277.258C277.876 277.258 276.719 276.769 275.758 275.79C274.803 274.806 274.325 273.61 274.325 272.204C274.325 270.827 274.809 269.649 275.775 268.671C276.742 267.692 277.905 267.203 279.265 267.203C280.05 267.203 280.759 267.37 281.392 267.704C282.03 268.038 282.59 268.539 283.07 269.207V267.449H284.283ZM279.361 268.39C278.676 268.39 278.043 268.56 277.463 268.899C276.883 269.233 276.42 269.705 276.074 270.314C275.734 270.924 275.564 271.568 275.564 272.248C275.564 272.922 275.737 273.566 276.083 274.182C276.429 274.797 276.892 275.277 277.472 275.623C278.058 275.963 278.684 276.133 279.352 276.133C280.026 276.133 280.665 275.963 281.268 275.623C281.872 275.283 282.335 274.823 282.657 274.243C282.985 273.663 283.149 273.01 283.149 272.283C283.149 271.176 282.783 270.25 282.051 269.506C281.324 268.762 280.428 268.39 279.361 268.39ZM300.375 277.012H299.066L295.866 270.051L292.694 277.012H291.375L295.752 267.449H295.972L300.375 277.012ZM308.707 271.237H309.875C310.807 271.237 311.537 271.311 312.064 271.457C312.591 271.604 313.045 271.929 313.426 272.433C313.807 272.931 313.998 273.505 313.998 274.155C313.998 274.94 313.722 275.614 313.171 276.177C312.621 276.733 311.786 277.012 310.666 277.012H307.485V267.449H308.707V271.237ZM308.75 272.362V275.975H310.165C311.83 275.975 312.662 275.389 312.662 274.217C312.662 273.883 312.571 273.555 312.389 273.232C312.213 272.91 311.953 272.685 311.607 272.556C311.267 272.427 310.664 272.362 309.796 272.362H308.75ZM327.989 272.406H322.434V277.012H321.195V267.449H322.434V271.246H327.989V267.449H329.219V277.012H327.989V272.406ZM341.717 267.203C343.188 267.203 344.406 267.736 345.373 268.803C346.252 269.775 346.691 270.927 346.691 272.257C346.691 273.593 346.226 274.762 345.294 275.764C344.368 276.76 343.176 277.258 341.717 277.258C340.252 277.258 339.054 276.76 338.122 275.764C337.196 274.762 336.733 273.593 336.733 272.257C336.733 270.933 337.173 269.784 338.052 268.812C339.019 267.739 340.24 267.203 341.717 267.203ZM341.717 268.407C340.697 268.407 339.821 268.785 339.089 269.541C338.356 270.297 337.99 271.211 337.99 272.283C337.99 272.975 338.157 273.619 338.491 274.217C338.825 274.814 339.276 275.277 339.845 275.605C340.413 275.928 341.037 276.089 341.717 276.089C342.397 276.089 343.021 275.928 343.589 275.605C344.157 275.277 344.608 274.814 344.942 274.217C345.276 273.619 345.443 272.975 345.443 272.283C345.443 271.211 345.074 270.297 344.336 269.541C343.604 268.785 342.73 268.407 341.717 268.407ZM355.436 267.449V274.524L362.458 267.449H362.555V277.012H361.325V269.998L354.355 277.012H354.205V267.449H355.436ZM355.269 263.608H356.429C356.628 263.913 356.895 264.142 357.229 264.294C357.563 264.446 357.961 264.522 358.424 264.522C358.893 264.522 359.271 264.455 359.558 264.32C359.845 264.186 360.117 263.948 360.375 263.608H361.5C361.371 264.136 361.04 264.578 360.507 264.936C359.98 265.287 359.283 265.463 358.415 265.463C357.554 265.463 356.851 265.29 356.306 264.944C355.761 264.593 355.415 264.147 355.269 263.608ZM381.96 267.449V274.524L388.982 267.449H389.079V277.012H387.849V269.998L380.879 277.012H380.729V267.449H381.96ZM407.253 267.449H415.278V277.012H414.047V268.609H408.484V277.012H407.253V267.449ZM423.266 267.449H424.488V269.207C424.974 268.539 425.534 268.038 426.167 267.704C426.8 267.37 427.506 267.203 428.285 267.203C429.644 267.203 430.807 267.692 431.774 268.671C432.741 269.649 433.224 270.827 433.224 272.204C433.224 273.61 432.744 274.806 431.783 275.79C430.828 276.769 429.674 277.258 428.32 277.258C427.558 277.258 426.858 277.1 426.219 276.783C425.581 276.467 425.004 275.995 424.488 275.368V280.51H423.266V267.449ZM428.188 268.39C427.122 268.39 426.222 268.762 425.49 269.506C424.763 270.25 424.4 271.176 424.4 272.283C424.4 273.01 424.561 273.663 424.884 274.243C425.212 274.823 425.677 275.283 426.281 275.623C426.89 275.963 427.532 276.133 428.206 276.133C428.868 276.133 429.489 275.963 430.069 275.623C430.655 275.277 431.121 274.797 431.467 274.182C431.812 273.566 431.985 272.922 431.985 272.248C431.985 271.568 431.812 270.924 431.467 270.314C431.127 269.705 430.667 269.233 430.087 268.899C429.507 268.56 428.874 268.39 428.188 268.39ZM448.807 273.839L449.844 274.384C449.504 275.052 449.111 275.591 448.666 276.001C448.221 276.411 447.72 276.725 447.163 276.941C446.606 277.152 445.977 277.258 445.273 277.258C443.715 277.258 442.496 276.748 441.617 275.729C440.738 274.703 440.299 273.546 440.299 272.257C440.299 271.044 440.671 269.963 441.415 269.014C442.358 267.807 443.621 267.203 445.203 267.203C446.832 267.203 448.133 267.821 449.105 269.058C449.797 269.931 450.148 271.021 450.16 272.327H441.564C441.588 273.44 441.942 274.354 442.628 275.069C443.313 275.778 444.16 276.133 445.168 276.133C445.654 276.133 446.126 276.048 446.583 275.878C447.046 275.708 447.438 275.482 447.761 275.201C448.083 274.92 448.432 274.466 448.807 273.839ZM448.807 271.264C448.643 270.607 448.402 270.083 448.086 269.69C447.775 269.298 447.362 268.981 446.847 268.741C446.331 268.501 445.789 268.381 445.221 268.381C444.283 268.381 443.478 268.683 442.804 269.286C442.312 269.726 441.939 270.385 441.688 271.264H448.807ZM460.46 277.012H457.683V267.449H460.416C461.459 267.449 462.209 267.689 462.666 268.17C463.129 268.65 463.361 269.213 463.361 269.857C463.361 270.83 462.933 271.489 462.077 271.835C463.32 272.274 463.941 273.121 463.941 274.375C463.941 276.133 462.781 277.012 460.46 277.012ZM458.922 268.513V271.501H459.722C460.449 271.501 460.923 271.472 461.146 271.413C461.368 271.354 461.576 271.211 461.77 270.982C461.969 270.748 462.069 270.44 462.069 270.06C462.069 269.661 461.966 269.327 461.761 269.058C461.556 268.788 461.339 268.63 461.111 268.583C460.888 268.536 460.425 268.513 459.722 268.513H458.922ZM458.922 272.626V275.975H460.241C460.862 275.975 461.304 275.937 461.568 275.86C461.837 275.778 462.066 275.605 462.253 275.342C462.447 275.078 462.543 274.744 462.543 274.34C462.543 273.818 462.379 273.402 462.051 273.092C461.723 272.781 461.289 272.626 460.75 272.626H458.922ZM479.374 273.839L480.411 274.384C480.071 275.052 479.678 275.591 479.233 276.001C478.788 276.411 478.287 276.725 477.73 276.941C477.173 277.152 476.544 277.258 475.84 277.258C474.282 277.258 473.063 276.748 472.184 275.729C471.305 274.703 470.866 273.546 470.866 272.257C470.866 271.044 471.238 269.963 471.982 269.014C472.925 267.807 474.188 267.203 475.77 267.203C477.399 267.203 478.7 267.821 479.672 269.058C480.364 269.931 480.715 271.021 480.727 272.327H472.131C472.155 273.44 472.509 274.354 473.195 275.069C473.88 275.778 474.727 276.133 475.735 276.133C476.221 276.133 476.693 276.048 477.15 275.878C477.613 275.708 478.005 275.482 478.328 275.201C478.65 274.92 478.999 274.466 479.374 273.839ZM479.374 271.264C479.21 270.607 478.969 270.083 478.653 269.69C478.342 269.298 477.929 268.981 477.414 268.741C476.898 268.501 476.356 268.381 475.788 268.381C474.85 268.381 474.044 268.683 473.371 269.286C472.878 269.726 472.506 270.385 472.254 271.264H479.374ZM495.044 272.406H489.489V277.012H488.25V267.449H489.489V271.246H495.044V267.449H496.274V277.012H495.044V272.406ZM503.173 267.449H509.466V268.513H506.935V277.012H505.695V268.513H503.173V267.449ZM517.586 267.449V274.524L524.609 267.449H524.705V277.012H523.475V269.998L516.505 277.012H516.356V267.449H517.586ZM535.445 277.012H532.668V267.449H535.401C536.444 267.449 537.194 267.689 537.651 268.17C538.114 268.65 538.345 269.213 538.345 269.857C538.345 270.83 537.918 271.489 537.062 271.835C538.304 272.274 538.925 273.121 538.925 274.375C538.925 276.133 537.765 277.012 535.445 277.012ZM533.907 268.513V271.501H534.707C535.433 271.501 535.908 271.472 536.131 271.413C536.353 271.354 536.561 271.211 536.755 270.982C536.954 270.748 537.053 270.44 537.053 270.06C537.053 269.661 536.951 269.327 536.746 269.058C536.541 268.788 536.324 268.63 536.095 268.583C535.873 268.536 535.41 268.513 534.707 268.513H533.907ZM533.907 272.626V275.975H535.225C535.846 275.975 536.289 275.937 536.552 275.86C536.822 275.778 537.05 275.605 537.238 275.342C537.431 275.078 537.528 274.744 537.528 274.34C537.528 273.818 537.364 273.402 537.036 273.092C536.708 272.781 536.274 272.626 535.735 272.626H533.907ZM553.102 272.406H547.547V277.012H546.308V267.449H547.547V271.246H553.102V267.449H554.332V277.012H553.102V272.406ZM566.829 267.203C568.3 267.203 569.519 267.736 570.486 268.803C571.364 269.775 571.804 270.927 571.804 272.257C571.804 273.593 571.338 274.762 570.406 275.764C569.481 276.76 568.288 277.258 566.829 277.258C565.364 277.258 564.166 276.76 563.235 275.764C562.309 274.762 561.846 273.593 561.846 272.257C561.846 270.933 562.285 269.784 563.164 268.812C564.131 267.739 565.353 267.203 566.829 267.203ZM566.829 268.407C565.81 268.407 564.934 268.785 564.201 269.541C563.469 270.297 563.103 271.211 563.103 272.283C563.103 272.975 563.27 273.619 563.604 274.217C563.938 274.814 564.389 275.277 564.957 275.605C565.526 275.928 566.15 276.089 566.829 276.089C567.509 276.089 568.133 275.928 568.701 275.605C569.27 275.277 569.721 274.814 570.055 274.217C570.389 273.619 570.556 272.975 570.556 272.283C570.556 271.211 570.187 270.297 569.448 269.541C568.716 268.785 567.843 268.407 566.829 268.407ZM580.548 267.449V274.524L587.571 267.449H587.667V277.012H586.437V269.998L579.467 277.012H579.318V267.449H580.548ZM580.381 263.608H581.542C581.741 263.913 582.007 264.142 582.341 264.294C582.675 264.446 583.074 264.522 583.537 264.522C584.005 264.522 584.383 264.455 584.67 264.32C584.958 264.186 585.23 263.948 585.488 263.608H586.613C586.484 264.136 586.153 264.578 585.62 264.936C585.092 265.287 584.395 265.463 583.528 265.463C582.667 265.463 581.963 265.29 581.418 264.944C580.874 264.593 580.528 264.147 580.381 263.608ZM616.222 267.449H616.573L619.816 277.012H618.533L616.169 269.972L612.495 277.012H612.267L608.584 269.972L606.229 277.012H604.945L608.206 267.449H608.54L612.39 274.929L616.222 267.449ZM634.933 273.839L635.97 274.384C635.63 275.052 635.238 275.591 634.792 276.001C634.347 276.411 633.846 276.725 633.289 276.941C632.733 277.152 632.103 277.258 631.4 277.258C629.841 277.258 628.622 276.748 627.744 275.729C626.865 274.703 626.425 273.546 626.425 272.257C626.425 271.044 626.797 269.963 627.541 269.014C628.485 267.807 629.747 267.203 631.329 267.203C632.958 267.203 634.259 267.821 635.232 269.058C635.923 269.931 636.275 271.021 636.286 272.327H627.691C627.714 273.44 628.069 274.354 628.754 275.069C629.44 275.778 630.286 276.133 631.294 276.133C631.781 276.133 632.252 276.048 632.709 275.878C633.172 275.708 633.565 275.482 633.887 275.201C634.209 274.92 634.558 274.466 634.933 273.839ZM634.933 271.264C634.769 270.607 634.529 270.083 634.212 269.69C633.902 269.298 633.489 268.981 632.973 268.741C632.457 268.501 631.915 268.381 631.347 268.381C630.41 268.381 629.604 268.683 628.93 269.286C628.438 269.726 628.066 270.385 627.814 271.264H634.933ZM643.888 275.966L647.58 267.449H648.221L651.886 275.966H653.038V278.233H651.851V277.012H643.941V278.286H642.728V275.966H643.888ZM647.879 269.348L645.084 275.966H650.559L647.879 269.348ZM661.158 267.449V274.524L668.181 267.449H668.277V277.012H667.047V269.998L660.077 277.012H659.928V267.449H661.158ZM685.178 277.012H676.239V267.449H677.479V275.852H683.033V267.449H684.273V275.852H686.338V278.523H685.178V277.012ZM694.45 267.449V274.524L701.472 267.449H701.569V277.012H700.338V269.998L693.369 277.012H693.219V267.449H694.45ZM716.325 272.406H710.77V277.012H709.531V267.449H710.77V271.246H716.325V267.449H717.555V277.012H716.325V272.406ZM726.748 271.237H727.917C728.849 271.237 729.578 271.311 730.105 271.457C730.633 271.604 731.087 271.929 731.468 272.433C731.849 272.931 732.039 273.505 732.039 274.155C732.039 274.94 731.764 275.614 731.213 276.177C730.662 276.733 729.827 277.012 728.708 277.012H725.526V267.449H726.748V271.237ZM726.792 272.362V275.975H728.207C729.871 275.975 730.703 275.389 730.703 274.217C730.703 273.883 730.612 273.555 730.431 273.232C730.255 272.91 729.994 272.685 729.648 272.556C729.309 272.427 728.705 272.362 727.838 272.362H726.792ZM733.735 267.449H734.975V277.012H733.735V267.449Z" fill="#676767"/>
<g filter="url(#filter0_d_84_484)">
<path d="M50.8389 148.938H59.6621V160.872C62.7513 156.471 65.9251 153.254 69.1836 151.223C73.6693 148.515 78.3877 147.161 83.3389 147.161C86.682 147.161 89.8558 147.817 92.8604 149.128C95.8649 150.44 98.3193 152.196 100.224 154.397C102.128 156.555 103.778 159.666 105.175 163.728C108.137 158.311 111.84 154.207 116.283 151.414C120.727 148.578 125.508 147.161 130.629 147.161C135.411 147.161 139.621 148.367 143.261 150.779C146.942 153.191 149.672 156.555 151.449 160.872C153.227 165.188 154.115 171.663 154.115 180.295V218H145.038V180.295C145.038 172.89 144.509 167.812 143.451 165.061C142.393 162.268 140.574 160.025 137.992 158.333C135.453 156.64 132.406 155.793 128.852 155.793C124.535 155.793 120.578 157.063 116.981 159.602C113.427 162.141 110.824 165.527 109.174 169.758C107.523 173.99 106.698 181.057 106.698 190.959V218H97.875V182.644C97.875 174.307 97.346 168.658 96.2881 165.696C95.2725 162.691 93.474 160.3 90.8926 158.523C88.3112 156.703 85.2432 155.793 81.6885 155.793C77.5837 155.793 73.7327 157.042 70.1357 159.539C66.5811 161.993 63.9362 165.315 62.2012 169.504C60.5085 173.694 59.6621 180.105 59.6621 188.738V218H50.8389V148.938ZM168.078 148.938H177.472L201.212 202.131L224.254 148.938H233.712L192.516 243.264H183.121L196.452 212.795L168.078 148.938Z" fill="#EE964B"/>
<path d="M293.759 122.278C307.893 122.278 319.721 126.996 329.242 136.433C338.763 145.87 343.524 157.486 343.524 171.282C343.524 184.95 338.763 196.545 329.242 206.067C319.763 215.588 308.189 220.349 294.52 220.349C280.682 220.349 269.003 215.61 259.481 206.13C249.96 196.651 245.199 185.183 245.199 171.726C245.199 162.755 247.357 154.439 251.674 146.78C256.032 139.12 261.957 133.132 269.447 128.816C276.937 124.457 285.041 122.278 293.759 122.278ZM294.203 131.418C287.305 131.418 280.767 133.217 274.589 136.814C268.41 140.411 263.586 145.256 260.116 151.35C256.646 157.444 254.911 164.236 254.911 171.726C254.911 182.813 258.741 192.187 266.4 199.846C274.102 207.463 283.37 211.272 294.203 211.272C301.439 211.272 308.125 209.516 314.262 206.003C320.44 202.491 325.243 197.688 328.671 191.594C332.141 185.5 333.876 178.73 333.876 171.282C333.876 163.876 332.141 157.19 328.671 151.223C325.243 145.214 320.398 140.411 314.135 136.814C307.872 133.217 301.228 131.418 294.203 131.418ZM363.517 148.938H372.34V161.633C375.852 156.809 379.894 153.191 384.464 150.779C389.034 148.367 394.134 147.161 399.762 147.161C409.58 147.161 417.98 150.694 424.962 157.761C431.945 164.828 435.436 173.334 435.436 183.279C435.436 193.435 431.966 202.068 425.026 209.177C418.128 216.244 409.791 219.778 400.016 219.778C394.515 219.778 389.458 218.635 384.845 216.35C380.232 214.065 376.064 210.658 372.34 206.13V243.264H363.517V148.938ZM399.064 155.73C391.362 155.73 384.866 158.417 379.576 163.792C374.329 169.166 371.705 175.852 371.705 183.85C371.705 189.097 372.869 193.816 375.196 198.005C377.566 202.195 380.931 205.517 385.289 207.971C389.69 210.426 394.324 211.653 399.191 211.653C403.973 211.653 408.458 210.426 412.648 207.971C416.879 205.474 420.244 202.004 422.74 197.561C425.237 193.118 426.486 188.463 426.486 183.596C426.486 178.687 425.237 174.032 422.74 169.631C420.286 165.23 416.964 161.824 412.775 159.412C408.585 156.957 404.015 155.73 399.064 155.73ZM462.474 123.293H471.424V148.938H485.516V156.555H471.424V218H462.474V156.555H450.35V148.938H462.474V123.293ZM504.493 120.5C506.524 120.5 508.259 121.22 509.698 122.659C511.137 124.097 511.856 125.833 511.856 127.864C511.856 129.853 511.137 131.567 509.698 133.005C508.259 134.444 506.524 135.164 504.493 135.164C502.504 135.164 500.79 134.444 499.352 133.005C497.913 131.567 497.193 129.853 497.193 127.864C497.193 125.833 497.913 124.097 499.352 122.659C500.79 121.22 502.504 120.5 504.493 120.5ZM500.05 148.938H509V218H500.05V148.938ZM529.945 148.938H538.768V160.872C541.857 156.471 545.031 153.254 548.289 151.223C552.775 148.515 557.494 147.161 562.445 147.161C565.788 147.161 568.962 147.817 571.966 149.128C574.971 150.44 577.425 152.196 579.329 154.397C581.234 156.555 582.884 159.666 584.281 163.728C587.243 158.311 590.946 154.207 595.389 151.414C599.832 148.578 604.614 147.161 609.735 147.161C614.517 147.161 618.727 148.367 622.367 150.779C626.048 153.191 628.778 156.555 630.555 160.872C632.332 165.188 633.221 171.663 633.221 180.295V218H624.144V180.295C624.144 172.89 623.615 167.812 622.557 165.061C621.499 162.268 619.679 160.025 617.098 158.333C614.559 156.64 611.512 155.793 607.957 155.793C603.641 155.793 599.684 157.063 596.087 159.602C592.533 162.141 589.93 165.527 588.28 169.758C586.629 173.99 585.804 181.057 585.804 190.959V218H576.981V182.644C576.981 174.307 576.452 168.658 575.394 165.696C574.378 162.691 572.58 160.3 569.998 158.523C567.417 156.703 564.349 155.793 560.794 155.793C556.69 155.793 552.839 157.042 549.242 159.539C545.687 161.993 543.042 165.315 541.307 169.504C539.614 173.694 538.768 180.105 538.768 188.738V218H529.945V148.938ZM653.468 148.938H662.418V181.184C662.418 189.055 662.841 194.472 663.687 197.434C664.957 201.666 667.369 205.009 670.924 207.463C674.521 209.918 678.795 211.145 683.746 211.145C688.697 211.145 692.887 209.96 696.314 207.59C699.784 205.178 702.175 202.026 703.487 198.132C704.376 195.466 704.82 189.817 704.82 181.184V148.938H713.897V182.834C713.897 192.356 712.776 199.529 710.533 204.353C708.332 209.177 704.989 212.965 700.504 215.715C696.06 218.424 690.474 219.778 683.746 219.778C677.017 219.778 671.389 218.424 666.861 215.715C662.375 212.965 659.011 209.156 656.768 204.29C654.568 199.381 653.468 192.017 653.468 182.2V148.938ZM736.238 148.938H745.062V160.872C748.151 156.471 751.325 153.254 754.583 151.223C759.069 148.515 763.787 147.161 768.738 147.161C772.082 147.161 775.255 147.817 778.26 149.128C781.265 150.44 783.719 152.196 785.623 154.397C787.528 156.555 789.178 159.666 790.574 163.728C793.537 158.311 797.239 154.207 801.683 151.414C806.126 148.578 810.908 147.161 816.029 147.161C820.81 147.161 825.021 148.367 828.66 150.779C832.342 153.191 835.071 156.555 836.849 160.872C838.626 165.188 839.515 171.663 839.515 180.295V218H830.438V180.295C830.438 172.89 829.909 167.812 828.851 165.061C827.793 162.268 825.973 160.025 823.392 158.333C820.853 156.64 817.806 155.793 814.251 155.793C809.935 155.793 805.978 157.063 802.381 159.602C798.826 162.141 796.224 165.527 794.573 169.758C792.923 173.99 792.098 181.057 792.098 190.959V218H783.275V182.644C783.275 174.307 782.746 168.658 781.688 165.696C780.672 162.691 778.874 160.3 776.292 158.523C773.711 156.703 770.643 155.793 767.088 155.793C762.983 155.793 759.132 157.042 755.535 159.539C751.981 161.993 749.336 165.315 747.601 169.504C745.908 173.694 745.062 180.105 745.062 188.738V218H736.238V148.938Z" fill="white"/>
</g>
<circle cx="504" cy="128" r="8" fill="#EE964B"/>
<path d="M737.099 127.835C743.067 63.8189 799.801 16.7612 863.817 22.7293C927.834 28.6973 974.891 85.431 968.923 149.448C962.955 213.464 906.222 260.522 842.205 254.554C778.188 248.586 731.131 191.852 737.099 127.835Z" fill="#D9D9D9" fill-opacity="0.06"/>
<g filter="url(#filter1_d_84_484)">
<path d="M735.726 117.025L736.161 117.925C735.514 118.237 734.985 118.665 734.574 119.208C734.16 119.746 733.879 120.374 733.729 121.092C733.566 121.878 733.605 122.644 733.845 123.392C734.081 124.139 734.48 124.764 735.041 125.267C735.598 125.765 736.274 126.096 737.069 126.261C738.269 126.51 739.356 126.308 740.33 125.653C741.304 124.995 741.922 124.038 742.182 122.785C742.468 121.406 742.168 120.14 741.281 118.988L742.031 118.334C742.554 118.954 742.911 119.668 743.101 120.476C743.288 121.278 743.288 122.132 743.1 123.038C742.742 124.76 741.887 126 740.533 126.757C739.392 127.39 738.136 127.565 736.766 127.28C735.325 126.981 734.218 126.225 733.446 125.013C732.67 123.795 732.44 122.426 732.756 120.904C732.947 119.985 733.302 119.193 733.822 118.528C734.337 117.863 734.972 117.361 735.726 117.025Z" fill="#EE964B"/>
</g>
<g filter="url(#filter2_d_84_484)">
<path d="M747.689 96.0849L748.403 95.5198C748.771 95.9723 749.03 96.4215 749.181 96.8676C749.332 97.3136 749.397 97.7687 749.375 98.2328C749.349 98.6951 749.225 99.1761 749.003 99.6759C748.511 100.784 747.764 101.489 746.761 101.792C745.755 102.093 744.794 102.04 743.878 101.633C743.015 101.25 742.365 100.644 741.925 99.815C741.365 98.7633 741.335 97.6752 741.834 96.5507C742.348 95.3929 743.199 94.6636 744.385 94.3626C745.223 94.1469 746.109 94.2411 747.042 94.6454L744.327 100.755C745.126 101.09 745.888 101.127 746.612 100.865C747.333 100.602 747.852 100.112 748.17 99.3956C748.324 99.0499 748.412 98.6878 748.436 98.3093C748.461 97.9266 748.425 97.5764 748.327 97.2585C748.229 96.9406 748.016 96.5494 747.689 96.0849ZM745.858 95.2717C745.34 95.181 744.891 95.1862 744.512 95.2871C744.135 95.3839 743.78 95.5776 743.446 95.8682C743.113 96.1589 742.856 96.5062 742.677 96.9101C742.381 97.5765 742.341 98.2445 742.557 98.914C742.714 99.4026 743.065 99.8752 743.61 100.332L745.858 95.2717Z" fill="#EE964B"/>
</g>
<g filter="url(#filter3_d_84_484)">
<path d="M750.221 78.7163L750.772 77.9425L751.886 78.7359C751.682 78.1264 751.617 77.5458 751.692 76.9943C751.766 76.4427 751.979 75.9201 752.33 75.4265C752.944 74.5655 753.779 74.0497 754.835 73.879C755.891 73.7083 756.855 73.9338 757.728 74.5553C758.618 75.1901 759.158 76.034 759.348 77.087C759.537 78.1336 759.326 79.0856 758.715 79.9429C758.371 80.4253 757.955 80.7974 757.466 81.0591C756.977 81.3208 756.418 81.4735 755.788 81.5171L759.045 83.838L758.493 84.6117L750.221 78.7163ZM753.038 76.0233C752.557 76.6988 752.387 77.4364 752.527 78.2362C752.671 79.0323 753.093 79.6803 753.794 80.1802C754.255 80.5082 754.741 80.701 755.254 80.7587C755.77 80.8127 756.271 80.7253 756.759 80.4965C757.249 80.2639 757.646 79.9342 757.951 79.5074C758.249 79.0881 758.422 78.618 758.469 78.0971C758.514 77.57 758.42 77.058 758.187 76.5614C757.953 76.0647 757.623 75.6643 757.196 75.3601C756.765 75.0533 756.279 74.8718 755.737 74.8157C755.198 74.7559 754.691 74.8343 754.218 75.051C753.741 75.265 753.348 75.5891 753.038 76.0233Z" fill="#EE964B"/>
</g>
<g filter="url(#filter4_d_84_484)">
<path d="M771.598 62.8521L770.035 64.3426L764.903 58.9593L766.441 57.4924C767.029 56.9326 767.58 56.6654 768.095 56.6906C768.613 56.7127 769.046 56.9051 769.391 57.268C769.913 57.8155 770.026 58.4162 769.73 59.0699C770.665 58.6506 771.47 58.794 772.142 59.4999C773.086 60.4894 772.904 61.6068 771.598 62.8521ZM766.171 58.8929L767.775 60.5752L768.225 60.146C768.634 59.7561 768.886 59.4849 768.979 59.3324C769.073 59.1799 769.113 58.9874 769.1 58.755C769.086 58.5162 768.977 58.2895 768.773 58.0751C768.559 57.8508 768.322 57.7178 768.062 57.6762C767.802 57.6345 767.595 57.6618 767.441 57.758C767.29 57.8511 767.017 58.0864 766.621 58.4637L766.171 58.8929ZM768.379 61.2085L770.176 63.0937L770.918 62.3862C771.268 62.0528 771.496 61.794 771.604 61.6096C771.711 61.4188 771.747 61.1988 771.711 60.9498C771.679 60.6976 771.554 60.4576 771.337 60.23C771.057 59.9365 770.741 59.7903 770.39 59.7916C770.039 59.7929 769.711 59.9381 769.408 60.2274L768.379 61.2085Z" fill="#EE964B"/>
</g>
<g filter="url(#filter5_d_84_484)">
<path d="M780.457 44.5386L783.471 49.1425L785.027 41.5467L785.089 41.5055L789.164 47.7279L788.363 48.2521L785.375 43.6883L783.828 51.2216L783.73 51.2852L779.656 45.0628L780.457 44.5386Z" fill="#EE964B"/>
</g>
<g filter="url(#filter6_d_84_484)">
<path d="M806.4 31.3462L805.874 32.0685C804.938 31.5085 803.945 31.4417 802.893 31.8681C802.053 32.209 801.464 32.7627 801.125 33.5293C800.791 34.2943 800.781 35.0631 801.094 35.836C801.298 36.3386 801.617 36.7602 802.05 37.1009C802.487 37.4398 802.978 37.6419 803.52 37.707C804.067 37.7704 804.617 37.6899 805.171 37.4656C806.184 37.0546 806.848 36.3156 807.163 35.2486L808.054 35.4259C807.925 36.0536 807.637 36.6177 807.191 37.1183C806.748 37.613 806.171 38.0041 805.462 38.2919C804.372 38.7337 803.328 38.7539 802.329 38.3525C801.33 37.951 800.629 37.254 800.227 36.2616C799.956 35.5943 799.872 34.9079 799.975 34.2025C800.08 33.4911 800.361 32.8559 800.817 32.2969C801.274 31.7379 801.866 31.3111 802.592 31.0165C803.048 30.8316 803.516 30.7231 803.995 30.6912C804.478 30.6576 804.913 30.6928 805.299 30.7967C805.685 30.9007 806.052 31.0839 806.4 31.3462Z" fill="#EE964B"/>
</g>
<g filter="url(#filter7_d_84_484)">
<path d="M835.379 21.0137L836.389 20.9519L839.29 26.5138L841.417 20.6445L842.434 20.5823L838.626 30.9923L837.616 31.0541L838.849 27.6913L835.379 21.0137Z" fill="#EE964B"/>
</g>
<g filter="url(#filter8_d_84_484)">
<path d="M858.272 19.8761L864.463 20.6709L863.516 28.0479L862.567 27.926L863.399 21.4441L859.107 20.893L858.275 27.375L857.325 27.2531L858.272 19.8761Z" fill="#EE964B"/>
</g>
<g filter="url(#filter9_d_84_484)">
<path d="M881.164 23.0647L882.064 23.3701L881.625 24.6648C882.15 24.2944 882.687 24.0653 883.237 23.9775C883.786 23.8897 884.348 23.9432 884.922 24.138C885.923 24.4778 886.658 25.1289 887.125 26.0912C887.593 27.0536 887.654 28.0418 887.31 29.056C886.959 30.0917 886.306 30.852 885.352 31.3368C884.404 31.8187 883.432 31.8905 882.435 31.5522C881.874 31.3618 881.397 31.0702 881.006 30.6775C880.615 30.2848 880.308 29.7932 880.085 29.2025L878.799 32.9894L877.9 32.684L881.164 23.0647ZM884.554 24.9877C883.769 24.7211 883.013 24.7703 882.288 25.1353C881.567 25.5018 881.068 26.0928 880.791 26.9084C880.609 27.4436 880.565 27.965 880.657 28.4728C880.754 28.9821 880.982 29.4373 881.342 29.8384C881.705 30.2411 882.135 30.5266 882.632 30.695C883.119 30.8605 883.619 30.8907 884.131 30.7854C884.649 30.6772 885.113 30.4398 885.521 30.0731C885.929 29.7064 886.218 29.2749 886.386 28.7786C886.556 28.278 886.59 27.7601 886.488 27.2248C886.39 26.6911 886.169 26.2287 885.825 25.8377C885.483 25.4424 885.059 25.1591 884.554 24.9877Z" fill="#EE964B"/>
</g>
<g filter="url(#filter10_d_84_484)">
<path d="M910.66 35.0553L906.851 41.4429L906.04 40.9596L906.695 39.8618C906.101 40.0751 905.526 40.1591 904.969 40.1137C904.416 40.0706 903.886 39.8973 903.377 39.5938C902.473 39.0545 901.895 38.2667 901.643 37.2302C901.397 36.1921 901.554 35.2034 902.114 34.264C902.663 33.3443 903.455 32.7501 904.491 32.4817C905.526 32.2132 906.498 32.3498 907.406 32.8914C907.931 33.2042 908.338 33.5983 908.627 34.0735C908.921 34.551 909.095 35.1086 909.15 35.7462L909.85 34.572L910.66 35.0553ZM906.998 33.7225C906.54 33.4494 906.05 33.3108 905.527 33.3067C905.006 33.2987 904.509 33.4293 904.035 33.6986C903.566 33.9703 903.195 34.3331 902.925 34.7871C902.656 35.2372 902.515 35.7366 902.501 36.2853C902.486 36.834 902.604 37.3394 902.854 37.8015C903.11 38.2619 903.461 38.6252 903.907 38.8913C904.357 39.1598 904.852 39.3007 905.39 39.3142C905.929 39.3276 906.421 39.2048 906.868 38.9457C907.318 38.689 907.688 38.3179 907.977 37.8326C908.418 37.0928 908.543 36.3285 908.35 35.5396C908.161 34.7531 907.71 34.1474 906.998 33.7225Z" fill="#EE964B"/>
</g>
<g filter="url(#filter11_d_84_484)">
<path d="M921.731 51.173L920.115 49.7398L925.05 44.1753L926.64 45.5859C927.247 46.1241 927.56 46.651 927.578 47.1664C927.599 47.6849 927.443 48.1316 927.111 48.5067C926.609 49.0727 926.02 49.2355 925.344 48.9952C925.84 49.892 925.764 50.7052 925.117 51.4349C924.21 52.4577 923.081 52.3705 921.731 51.173ZM925.222 45.4337L923.68 47.1726L924.145 47.5853C924.568 47.9603 924.859 48.1881 925.019 48.2689C925.179 48.3498 925.374 48.3736 925.604 48.3404C925.841 48.3068 926.058 48.1792 926.255 47.9576C926.46 47.7257 926.573 47.4785 926.593 47.2158C926.612 46.9531 926.568 46.7492 926.459 46.604C926.354 46.4618 926.097 46.2093 925.687 45.8464L925.222 45.4337ZM923.099 47.8272L921.371 49.7758L922.138 50.4562C922.5 50.7767 922.777 50.9828 922.97 51.0746C923.169 51.1659 923.391 51.1833 923.636 51.1266C923.885 51.0729 924.113 50.9285 924.322 50.6932C924.591 50.3898 924.71 50.063 924.68 49.713C924.649 49.3629 924.477 49.0488 924.163 48.7706L923.099 47.8272Z" fill="#EE964B"/>
</g>
<g filter="url(#filter12_d_84_484)">
<path d="M938.098 67.2477L937.465 66.4498L940.16 61.1356L934.385 62.5671L933.748 61.7638L941.69 59.8085L941.797 59.9424L938.098 67.2477Z" fill="#EE964B"/>
</g>
<g filter="url(#filter13_d_84_484)">
<path d="M951.853 82.6949L951.85 83.6061C951.267 83.6122 950.754 83.5355 950.311 83.376C949.868 83.2166 949.472 82.984 949.122 82.6782C948.776 82.3703 948.477 81.9739 948.224 81.4891C947.663 80.4144 947.576 79.3906 947.962 78.4177C948.353 77.4427 948.993 76.7232 949.882 76.2593C950.718 75.8228 951.597 75.6903 952.52 75.8618C953.691 76.0779 954.562 76.7313 955.131 77.8222C955.718 78.9453 955.759 80.0647 955.257 81.1803C954.904 81.9712 954.279 82.6058 953.382 83.0841L950.289 77.1573C949.53 77.5741 949.027 78.1475 948.781 78.8774C948.539 79.6053 948.599 80.3166 948.962 81.0115C949.137 81.3469 949.365 81.6415 949.647 81.8955C949.93 82.1535 950.227 82.343 950.537 82.464C950.847 82.585 951.285 82.6619 951.853 82.6949ZM953.628 81.7681C954.022 81.4188 954.297 81.0645 954.454 80.705C954.613 80.3496 954.682 79.9509 954.662 79.5089C954.642 79.0669 954.53 78.65 954.326 78.2581C953.988 77.6117 953.49 77.1648 952.832 76.9174C952.351 76.7361 951.763 76.7168 951.066 76.8594L953.628 81.7681Z" fill="#EE964B"/>
</g>
<g filter="url(#filter14_d_84_484)">
<path d="M961.548 101.414L960.318 97.2724L956.884 98.2915L956.61 97.3675L963.74 95.2514L964.014 96.1754L961.183 97.0156L962.413 101.157L965.244 100.317L965.516 101.235L958.386 103.351L958.114 102.433L961.548 101.414Z" fill="#EE964B"/>
</g>
<g filter="url(#filter15_d_84_484)">
<path d="M970.142 118.444L964.662 118.948L970.642 123.883L970.649 123.958L963.242 124.639L963.155 123.686L968.587 123.186L962.658 118.288L962.648 118.172L970.054 117.491L970.142 118.444Z" fill="#EE964B"/>
</g>
<g filter="url(#filter16_d_84_484)">
<path d="M967.405 143.578L967.469 142.897L964.351 140.478L964.446 139.45L967.649 141.994C967.769 141.447 968.019 141.017 968.401 140.705C968.787 140.393 969.241 140.261 969.763 140.31C970.416 140.371 970.904 140.615 971.225 141.043C971.547 141.476 971.677 142.015 971.617 142.659L971.407 144.912L964.002 144.222L964.09 143.269L967.405 143.578ZM970.672 143.882L970.731 143.256C970.787 142.648 970.787 142.236 970.729 142.02C970.671 141.804 970.553 141.626 970.374 141.486C970.199 141.346 969.953 141.261 969.636 141.232C969.331 141.203 969.072 141.259 968.858 141.399C968.648 141.54 968.511 141.706 968.448 141.897C968.384 142.088 968.326 142.464 968.274 143.027L968.215 143.653L970.672 143.882Z" fill="#EE964B"/>
</g>
<g filter="url(#filter17_d_84_484)">
<path d="M962.274 176.307L962.084 176.768C961.962 177.063 961.947 177.372 962.04 177.697C962.131 178.025 962.358 178.264 962.72 178.414C963.028 178.541 963.332 178.551 963.633 178.443C963.938 178.337 964.175 178.08 964.343 177.672C964.54 177.196 964.552 176.641 964.38 176.008L965.199 175.762C965.461 176.595 965.449 177.359 965.162 178.054C964.925 178.627 964.556 179.036 964.055 179.283C963.554 179.53 963.033 179.542 962.494 179.319C961.778 179.023 961.422 178.506 961.426 177.768C960.74 178.451 959.965 178.615 959.101 178.258C958.554 178.032 958.139 177.634 957.857 177.063C957.577 176.499 957.595 175.834 957.912 175.067C958.3 174.128 958.918 173.498 959.765 173.177L960.167 173.994C959.511 174.221 959.046 174.668 958.771 175.333C958.587 175.78 958.562 176.179 958.698 176.531C958.832 176.887 959.095 177.146 959.486 177.308C959.87 177.466 960.23 177.464 960.568 177.303C960.906 177.142 961.147 176.886 961.291 176.537L961.516 175.993L962.274 176.307Z" fill="#EE964B"/>
</g>
<g filter="url(#filter18_d_84_484)">
<path d="M952.959 189.963L957.002 195.945L956.733 196.365L949.615 195.209L949.134 195.964L947.647 195.016L948.143 194.238L948.944 194.749L952.251 189.56L951.415 189.028L951.922 188.232L953.444 189.202L952.959 189.963ZM955.632 195.347L952.459 190.747L950.17 194.338L955.632 195.347Z" fill="#EE964B"/>
</g>
<g filter="url(#filter19_d_84_484)">
<path d="M943.567 215.704C942.771 216.526 941.814 216.919 940.695 216.882C939.676 216.847 938.795 216.469 938.052 215.75C937.305 215.027 936.904 214.134 936.848 213.072C936.792 212.015 937.159 211.08 937.949 210.264C938.741 209.446 939.668 209.046 940.728 209.064C941.789 209.089 942.693 209.463 943.439 210.185C944.179 210.902 944.583 211.769 944.651 212.786C944.727 213.907 944.366 214.879 943.567 215.704ZM942.894 215.053C943.446 214.483 943.708 213.789 943.682 212.971C943.656 212.153 943.344 211.454 942.744 210.874C942.358 210.499 941.908 210.244 941.393 210.107C940.878 209.971 940.375 209.972 939.885 210.112C939.397 210.256 938.969 210.517 938.602 210.897C938.234 211.277 937.986 211.713 937.859 212.204C937.735 212.7 937.749 213.202 937.903 213.712C938.056 214.222 938.326 214.664 938.712 215.038C939.311 215.618 940.022 215.907 940.843 215.903C941.662 215.903 942.346 215.619 942.894 215.053Z" fill="#EE964B"/>
</g>
<g filter="url(#filter20_d_84_484)">
<path d="M928.949 230.26L928.164 230.795L927.394 229.665C927.374 230.307 927.234 230.874 926.973 231.366C926.713 231.858 926.332 232.274 925.831 232.615C924.957 233.211 923.995 233.405 922.945 233.2C921.895 232.994 921.069 232.448 920.466 231.563C919.85 230.659 919.636 229.68 919.823 228.627C920.008 227.58 920.536 226.76 921.406 226.167C921.896 225.834 922.415 225.629 922.964 225.553C923.513 225.476 924.091 225.527 924.697 225.704L922.446 222.399L923.231 221.864L928.949 230.26ZM925.374 231.81C926.059 231.343 926.474 230.711 926.62 229.911C926.761 229.115 926.589 228.361 926.104 227.649C925.786 227.182 925.396 226.832 924.935 226.601C924.47 226.371 923.969 226.28 923.433 226.325C922.892 226.374 922.405 226.545 921.972 226.84C921.547 227.13 921.222 227.512 920.998 227.984C920.772 228.463 920.683 228.976 920.73 229.522C920.777 230.069 920.949 230.559 921.244 230.992C921.541 231.429 921.934 231.768 922.423 232.008C922.909 232.251 923.411 232.353 923.93 232.314C924.452 232.278 924.933 232.111 925.374 231.81Z" fill="#EE964B"/>
</g>
<g filter="url(#filter21_d_84_484)">
<path d="M904.893 245.641C903.834 246.075 902.8 246.051 901.79 245.568C900.87 245.128 900.214 244.429 899.822 243.471C899.428 242.51 899.418 241.531 899.793 240.535C900.166 239.545 900.877 238.835 901.927 238.405C902.981 237.973 903.99 237.978 904.955 238.42C905.917 238.868 906.594 239.573 906.989 240.534C907.379 241.487 907.402 242.443 907.056 243.403C906.676 244.459 905.955 245.206 904.893 245.641ZM904.538 244.775C905.271 244.474 905.79 243.944 906.094 243.183C906.399 242.423 906.392 241.658 906.076 240.886C905.872 240.388 905.562 239.974 905.145 239.642C904.729 239.311 904.267 239.11 903.762 239.042C903.258 238.978 902.761 239.046 902.272 239.246C901.783 239.447 901.381 239.747 901.067 240.146C900.755 240.55 900.567 241.016 900.503 241.545C900.438 242.074 900.508 242.587 900.712 243.084C901.029 243.856 901.564 244.405 902.318 244.731C903.068 245.059 903.808 245.074 904.538 244.775Z" fill="#EE964B"/>
</g>
<g filter="url(#filter22_d_84_484)">
<path d="M882.25 246.019L884.366 245.586L885.858 252.872L883.775 253.299C882.981 253.462 882.372 253.396 881.949 253.101C881.521 252.807 881.257 252.414 881.156 251.923C881.004 251.182 881.228 250.613 881.825 250.216C880.81 250.075 880.205 249.527 880.009 248.572C879.735 247.232 880.482 246.381 882.25 246.019ZM884.748 252.255L884.282 249.978L883.672 250.103C883.119 250.217 882.762 250.313 882.601 250.392C882.441 250.472 882.305 250.614 882.193 250.818C882.078 251.028 882.05 251.277 882.109 251.568C882.171 251.871 882.302 252.11 882.5 252.283C882.698 252.456 882.888 252.543 883.069 252.543C883.246 252.544 883.603 252.49 884.139 252.38L884.748 252.255ZM884.106 249.121L883.584 246.57L882.579 246.775C882.106 246.872 881.775 246.97 881.586 247.069C881.393 247.174 881.246 247.341 881.144 247.572C881.038 247.803 881.017 248.072 881.08 248.38C881.161 248.778 881.351 249.069 881.649 249.254C881.948 249.44 882.302 249.491 882.713 249.406L884.106 249.121Z" fill="#EE964B"/>
</g>
<g filter="url(#filter23_d_84_484)">
<path d="M864.884 253.868L863.975 253.895C863.25 253.917 862.682 253.878 862.268 253.776C861.855 253.675 861.494 253.433 861.186 253.05C860.878 252.672 860.717 252.23 860.701 251.724C860.683 251.114 860.881 250.583 861.296 250.133C861.711 249.687 862.353 249.451 863.223 249.425L865.697 249.35L865.923 256.784L864.973 256.813L864.884 253.868ZM864.823 252.994L864.738 250.186L863.637 250.219C862.344 250.259 861.711 250.734 861.738 251.645C861.746 251.904 861.825 252.157 861.973 252.404C862.118 252.65 862.326 252.819 862.598 252.911C862.865 253.004 863.336 253.039 864.01 253.019L864.823 252.994Z" fill="#EE964B"/>
</g>
<g filter="url(#filter24_d_84_484)">
<path d="M839.582 251.421L838.85 250.878C839.192 250.405 839.558 250.038 839.949 249.776C840.341 249.514 840.763 249.333 841.217 249.233C841.67 249.138 842.167 249.132 842.707 249.217C843.905 249.403 844.78 249.941 845.334 250.83C845.886 251.723 846.085 252.665 845.931 253.656C845.785 254.588 845.37 255.374 844.684 256.015C843.815 256.829 842.772 257.142 841.556 256.952C840.304 256.757 839.379 256.126 838.78 255.059C838.353 254.305 838.213 253.426 838.361 252.42L844.967 253.45C845.082 252.592 844.919 251.847 844.478 251.216C844.036 250.589 843.428 250.215 842.653 250.094C842.28 250.036 841.907 250.044 841.535 250.12C841.159 250.195 840.83 250.322 840.549 250.499C840.268 250.677 839.945 250.984 839.582 251.421ZM839.274 253.4C839.321 253.924 839.443 254.355 839.639 254.695C839.83 255.034 840.11 255.327 840.477 255.573C840.845 255.819 841.247 255.977 841.684 256.045C842.404 256.157 843.06 256.022 843.65 255.639C844.081 255.36 844.446 254.898 844.745 254.253L839.274 253.4Z" fill="#EE964B"/>
</g>
<g filter="url(#filter25_d_84_484)">
<path d="M814.799 250.935L814.545 250.835L814.904 242.99L815.833 243.353L815.552 249.123L820.207 245.064L820.373 245.128L821.046 251.271L824.747 246.839L825.676 247.202L820.605 253.205L820.364 253.111L819.694 246.602L814.799 250.935Z" fill="#EE964B"/>
</g>
<defs>
<filter id="filter0_d_84_484" x="0.838867" y="90.5005" width="888.676" height="222.764" filterUnits="userSpaceOnUse" color-interpolation-filters="sRGB">
<feFlood flood-opacity="0" result="BackgroundImageFix"/>
<feColorMatrix in="SourceAlpha" type="matrix" values="0 0 0 0 0 0 0 0 0 0 0 0 0 0 0 0 0 0 127 0" result="hardAlpha"/>
<feOffset dy="20"/>
<feGaussianBlur stdDeviation="25"/>
<feComposite in2="hardAlpha" operator="out"/>
<feColorMatrix type="matrix" values="0 0 0 0 0 0 0 0 0 0 0 0 0 0 0 0 0 0 0.2 0"/>
<feBlend mode="normal" in2="BackgroundImageFix" result="effect1_dropShadow_84_484"/>
<feBlend mode="normal" in="SourceGraphic" in2="effect1_dropShadow_84_484" result="shape"/>
</filter>
<filter id="filter1_d_84_484" x="727.652" y="116.594" width="20.3398" height="19.772" filterUnits="userSpaceOnUse" color-interpolation-filters="sRGB">
<feFlood flood-opacity="0" result="BackgroundImageFix"/>
<feColorMatrix in="SourceAlpha" type="matrix" values="0 0 0 0 0 0 0 0 0 0 0 0 0 0 0 0 0 0 127 0" result="hardAlpha"/>
<feOffset dy="4"/>
<feGaussianBlur stdDeviation="2"/>
<feComposite in2="hardAlpha" operator="out"/>
<feColorMatrix type="matrix" values="0 0 0 0 0 0 0 0 0 0 0 0 0 0 0 0 0 0 0.25 0"/>
<feBlend mode="normal" in2="BackgroundImageFix" result="effect1_dropShadow_84_484"/>
<feBlend mode="normal" in="SourceGraphic" in2="effect1_dropShadow_84_484" result="shape"/>
</filter>
<filter id="filter2_d_84_484" x="736.286" y="93.0273" width="18.2607" height="18.1846" filterUnits="userSpaceOnUse" color-interpolation-filters="sRGB">
<feFlood flood-opacity="0" result="BackgroundImageFix"/>
<feColorMatrix in="SourceAlpha" type="matrix" values="0 0 0 0 0 0 0 0 0 0 0 0 0 0 0 0 0 0 127 0" result="hardAlpha"/>
<feOffset dy="4"/>
<feGaussianBlur stdDeviation="2"/>
<feComposite in2="hardAlpha" operator="out"/>
<feColorMatrix type="matrix" values="0 0 0 0 0 0 0 0 0 0 0 0 0 0 0 0 0 0 0.25 0"/>
<feBlend mode="normal" in2="BackgroundImageFix" result="effect1_dropShadow_84_484"/>
<feBlend mode="normal" in="SourceGraphic" in2="effect1_dropShadow_84_484" result="shape"/>
</filter>
<filter id="filter3_d_84_484" x="746.065" y="72.2979" width="20.9233" height="20.314" filterUnits="userSpaceOnUse" color-interpolation-filters="sRGB">
<feFlood flood-opacity="0" result="BackgroundImageFix"/>
<feColorMatrix in="SourceAlpha" type="matrix" values="0 0 0 0 0 0 0 0 0 0 0 0 0 0 0 0 0 0 127 0" result="hardAlpha"/>
<feOffset dy="4"/>
<feGaussianBlur stdDeviation="2"/>
<feComposite in2="hardAlpha" operator="out"/>
<feColorMatrix type="matrix" values="0 0 0 0 0 0 0 0 0 0 0 0 0 0 0 0 0 0 0.25 0"/>
<feBlend mode="normal" in2="BackgroundImageFix" result="effect1_dropShadow_84_484"/>
<feBlend mode="normal" in="SourceGraphic" in2="effect1_dropShadow_84_484" result="shape"/>
</filter>
<filter id="filter4_d_84_484" x="760.903" y="55.6011" width="16.6548" height="16.7417" filterUnits="userSpaceOnUse" color-interpolation-filters="sRGB">
<feFlood flood-opacity="0" result="BackgroundImageFix"/>
<feColorMatrix in="SourceAlpha" type="matrix" values="0 0 0 0 0 0 0 0 0 0 0 0 0 0 0 0 0 0 127 0" result="hardAlpha"/>
<feOffset dy="4"/>
<feGaussianBlur stdDeviation="2"/>
<feComposite in2="hardAlpha" operator="out"/>
<feColorMatrix type="matrix" values="0 0 0 0 0 0 0 0 0 0 0 0 0 0 0 0 0 0 0.25 0"/>
<feBlend mode="normal" in2="BackgroundImageFix" result="effect1_dropShadow_84_484"/>
<feBlend mode="normal" in="SourceGraphic" in2="effect1_dropShadow_84_484" result="shape"/>
</filter>
<filter id="filter5_d_84_484" x="775.656" y="41.5054" width="17.5073" height="17.7798" filterUnits="userSpaceOnUse" color-interpolation-filters="sRGB">
<feFlood flood-opacity="0" result="BackgroundImageFix"/>
<feColorMatrix in="SourceAlpha" type="matrix" values="0 0 0 0 0 0 0 0 0 0 0 0 0 0 0 0 0 0 127 0" result="hardAlpha"/>
<feOffset dy="4"/>
<feGaussianBlur stdDeviation="2"/>
<feComposite in2="hardAlpha" operator="out"/>
<feColorMatrix type="matrix" values="0 0 0 0 0 0 0 0 0 0 0 0 0 0 0 0 0 0 0.25 0"/>
<feBlend mode="normal" in2="BackgroundImageFix" result="effect1_dropShadow_84_484"/>
<feBlend mode="normal" in="SourceGraphic" in2="effect1_dropShadow_84_484" result="shape"/>
</filter>
<filter id="filter6_d_84_484" x="794.734" y="29.7373" width="17.9517" height="18.0908" filterUnits="userSpaceOnUse" color-interpolation-filters="sRGB">
<feFlood flood-opacity="0" result="BackgroundImageFix"/>
<feColorMatrix in="SourceAlpha" type="matrix" values="0 0 0 0 0 0 0 0 0 0 0 0 0 0 0 0 0 0 127 0" result="hardAlpha"/>
<feOffset dy="4"/>
<feGaussianBlur stdDeviation="2"/>
<feComposite in2="hardAlpha" operator="out"/>
<feColorMatrix type="matrix" values="0 0 0 0 0 0 0 0 0 0 0 0 0 0 0 0 0 0 0.25 0"/>
<feBlend mode="normal" in2="BackgroundImageFix" result="effect1_dropShadow_84_484"/>
<feBlend mode="normal" in="SourceGraphic" in2="effect1_dropShadow_84_484" result="shape"/>
</filter>
<filter id="filter7_d_84_484" x="831.379" y="20.5825" width="15.6753" height="18.5703" filterUnits="userSpaceOnUse" color-interpolation-filters="sRGB">
<feFlood flood-opacity="0" result="BackgroundImageFix"/>
<feColorMatrix in="SourceAlpha" type="matrix" values="0 0 0 0 0 0 0 0 0 0 0 0 0 0 0 0 0 0 127 0" result="hardAlpha"/>
<feOffset dy="4"/>
<feGaussianBlur stdDeviation="2"/>
<feComposite in2="hardAlpha" operator="out"/>
<feColorMatrix type="matrix" values="0 0 0 0 0 0 0 0 0 0 0 0 0 0 0 0 0 0 0.25 0"/>
<feBlend mode="normal" in2="BackgroundImageFix" result="effect1_dropShadow_84_484"/>
<feBlend mode="normal" in="SourceGraphic" in2="effect1_dropShadow_84_484" result="shape"/>
</filter>
<filter id="filter8_d_84_484" x="853.325" y="19.876" width="15.1377" height="16.1719" filterUnits="userSpaceOnUse" color-interpolation-filters="sRGB">
<feFlood flood-opacity="0" result="BackgroundImageFix"/>
<feColorMatrix in="SourceAlpha" type="matrix" values="0 0 0 0 0 0 0 0 0 0 0 0 0 0 0 0 0 0 127 0" result="hardAlpha"/>
<feOffset dy="4"/>
<feGaussianBlur stdDeviation="2"/>
<feComposite in2="hardAlpha" operator="out"/>
<feColorMatrix type="matrix" values="0 0 0 0 0 0 0 0 0 0 0 0 0 0 0 0 0 0 0.25 0"/>
<feBlend mode="normal" in2="BackgroundImageFix" result="effect1_dropShadow_84_484"/>
<feBlend mode="normal" in="SourceGraphic" in2="effect1_dropShadow_84_484" result="shape"/>
</filter>
<filter id="filter9_d_84_484" x="873.899" y="22.8833" width="18.6606" height="20.29" filterUnits="userSpaceOnUse" color-interpolation-filters="sRGB">
<feFlood flood-opacity="0" result="BackgroundImageFix"/>
<feColorMatrix in="SourceAlpha" type="matrix" values="0 0 0 0 0 0 0 0 0 0 0 0 0 0 0 0 0 0 127 0" result="hardAlpha"/>
<feOffset dy="4"/>
<feGaussianBlur stdDeviation="2"/>
<feComposite in2="hardAlpha" operator="out"/>
<feColorMatrix type="matrix" values="0 0 0 0 0 0 0 0 0 0 0 0 0 0 0 0 0 0 0.25 0"/>
<feBlend mode="normal" in2="BackgroundImageFix" result="effect1_dropShadow_84_484"/>
<feBlend mode="normal" in="SourceGraphic" in2="effect1_dropShadow_84_484" result="shape"/>
</filter>
<filter id="filter10_d_84_484" x="896.101" y="30.9233" width="18.6577" height="18.6841" filterUnits="userSpaceOnUse" color-interpolation-filters="sRGB">
<feFlood flood-opacity="0" result="BackgroundImageFix"/>
<feColorMatrix in="SourceAlpha" type="matrix" values="0 0 0 0 0 0 0 0 0 0 0 0 0 0 0 0 0 0 127 0" result="hardAlpha"/>
<feOffset dy="4"/>
<feGaussianBlur stdDeviation="2"/>
<feComposite in2="hardAlpha" operator="out"/>
<feColorMatrix type="matrix" values="0 0 0 0 0 0 0 0 0 0 0 0 0 0 0 0 0 0 0.25 0"/>
<feBlend mode="normal" in2="BackgroundImageFix" result="effect1_dropShadow_84_484"/>
<feBlend mode="normal" in="SourceGraphic" in2="effect1_dropShadow_84_484" result="shape"/>
</filter>
<filter id="filter11_d_84_484" x="916.115" y="44.1753" width="16.5762" height="16.7939" filterUnits="userSpaceOnUse" color-interpolation-filters="sRGB">
<feFlood flood-opacity="0" result="BackgroundImageFix"/>
<feColorMatrix in="SourceAlpha" type="matrix" values="0 0 0 0 0 0 0 0 0 0 0 0 0 0 0 0 0 0 127 0" result="hardAlpha"/>
<feOffset dy="4"/>
<feGaussianBlur stdDeviation="2"/>
<feComposite in2="hardAlpha" operator="out"/>
<feColorMatrix type="matrix" values="0 0 0 0 0 0 0 0 0 0 0 0 0 0 0 0 0 0 0.25 0"/>
<feBlend mode="normal" in2="BackgroundImageFix" result="effect1_dropShadow_84_484"/>
<feBlend mode="normal" in="SourceGraphic" in2="effect1_dropShadow_84_484" result="shape"/>
</filter>
<filter id="filter12_d_84_484" x="929.748" y="57.1416" width="18.1772" height="18.106" filterUnits="userSpaceOnUse" color-interpolation-filters="sRGB">
<feFlood flood-opacity="0" result="BackgroundImageFix"/>
<feColorMatrix in="SourceAlpha" type="matrix" values="0 0 0 0 0 0 0 0 0 0 0 0 0 0 0 0 0 0 127 0" result="hardAlpha"/>
<feOffset dy="4"/>
<feGaussianBlur stdDeviation="2"/>
<feComposite in2="hardAlpha" operator="out"/>
<feColorMatrix type="matrix" values="0 0 0 0 0 0 0 0 0 0 0 0 0 0 0 0 0 0 0.25 0"/>
<feBlend mode="normal" in2="BackgroundImageFix" result="effect1_dropShadow_84_484"/>
<feBlend mode="normal" in="SourceGraphic" in2="effect1_dropShadow_84_484" result="shape"/>
</filter>
<filter id="filter13_d_84_484" x="942.434" y="74.4404" width="18.4814" height="18.418" filterUnits="userSpaceOnUse" color-interpolation-filters="sRGB">
<feFlood flood-opacity="0" result="BackgroundImageFix"/>
<feColorMatrix in="SourceAlpha" type="matrix" values="0 0 0 0 0 0 0 0 0 0 0 0 0 0 0 0 0 0 127 0" result="hardAlpha"/>
<feOffset dy="4"/>
<feGaussianBlur stdDeviation="2"/>
<feComposite in2="hardAlpha" operator="out"/>
<feColorMatrix type="matrix" values="0 0 0 0 0 0 0 0 0 0 0 0 0 0 0 0 0 0 0.25 0"/>
<feBlend mode="normal" in2="BackgroundImageFix" result="effect1_dropShadow_84_484"/>
<feBlend mode="normal" in="SourceGraphic" in2="effect1_dropShadow_84_484" result="shape"/>
</filter>
<filter id="filter14_d_84_484" x="952.61" y="95.2515" width="16.9058" height="16.0991" filterUnits="userSpaceOnUse" color-interpolation-filters="sRGB">
<feFlood flood-opacity="0" result="BackgroundImageFix"/>
<feColorMatrix in="SourceAlpha" type="matrix" values="0 0 0 0 0 0 0 0 0 0 0 0 0 0 0 0 0 0 127 0" result="hardAlpha"/>
<feOffset dy="4"/>
<feGaussianBlur stdDeviation="2"/>
<feComposite in2="hardAlpha" operator="out"/>
<feColorMatrix type="matrix" values="0 0 0 0 0 0 0 0 0 0 0 0 0 0 0 0 0 0 0.25 0"/>
<feBlend mode="normal" in2="BackgroundImageFix" result="effect1_dropShadow_84_484"/>
<feBlend mode="normal" in="SourceGraphic" in2="effect1_dropShadow_84_484" result="shape"/>
</filter>
<filter id="filter15_d_84_484" x="958.648" y="117.491" width="16.0005" height="15.1479" filterUnits="userSpaceOnUse" color-interpolation-filters="sRGB">
<feFlood flood-opacity="0" result="BackgroundImageFix"/>
<feColorMatrix in="SourceAlpha" type="matrix" values="0 0 0 0 0 0 0 0 0 0 0 0 0 0 0 0 0 0 127 0" result="hardAlpha"/>
<feOffset dy="4"/>
<feGaussianBlur stdDeviation="2"/>
<feComposite in2="hardAlpha" operator="out"/>
<feColorMatrix type="matrix" values="0 0 0 0 0 0 0 0 0 0 0 0 0 0 0 0 0 0 0.25 0"/>
<feBlend mode="normal" in2="BackgroundImageFix" result="effect1_dropShadow_84_484"/>
<feBlend mode="normal" in="SourceGraphic" in2="effect1_dropShadow_84_484" result="shape"/>
</filter>
<filter id="filter16_d_84_484" x="960.001" y="139.45" width="15.8506" height="13.4619" filterUnits="userSpaceOnUse" color-interpolation-filters="sRGB">
<feFlood flood-opacity="0" result="BackgroundImageFix"/>
<feColorMatrix in="SourceAlpha" type="matrix" values="0 0 0 0 0 0 0 0 0 0 0 0 0 0 0 0 0 0 127 0" result="hardAlpha"/>
<feOffset dy="4"/>
<feGaussianBlur stdDeviation="2"/>
<feComposite in2="hardAlpha" operator="out"/>
<feColorMatrix type="matrix" values="0 0 0 0 0 0 0 0 0 0 0 0 0 0 0 0 0 0 0.25 0"/>
<feBlend mode="normal" in2="BackgroundImageFix" result="effect1_dropShadow_84_484"/>
<feBlend mode="normal" in="SourceGraphic" in2="effect1_dropShadow_84_484" result="shape"/>
</filter>
<filter id="filter17_d_84_484" x="952.959" y="172.799" width="17.1362" height="15.5674" filterUnits="userSpaceOnUse" color-interpolation-filters="sRGB">
<feFlood flood-opacity="0" result="BackgroundImageFix"/>
<feColorMatrix in="SourceAlpha" type="matrix" values="0 0 0 0 0 0 0 0 0 0 0 0 0 0 0 0 0 0 127 0" result="hardAlpha"/>
<feOffset dy="4"/>
<feGaussianBlur stdDeviation="2"/>
<feComposite in2="hardAlpha" operator="out"/>
<feColorMatrix type="matrix" values="0 0 0 0 0 0 0 0 0 0 0 0 0 0 0 0 0 0 0.25 0"/>
<feBlend mode="normal" in2="BackgroundImageFix" result="effect1_dropShadow_84_484"/>
<feBlend mode="normal" in="SourceGraphic" in2="effect1_dropShadow_84_484" result="shape"/>
</filter>
<filter id="filter18_d_84_484" x="943.612" y="188.232" width="19.4175" height="19.292" filterUnits="userSpaceOnUse" color-interpolation-filters="sRGB">
<feFlood flood-opacity="0" result="BackgroundImageFix"/>
<feColorMatrix in="SourceAlpha" type="matrix" values="0 0 0 0 0 0 0 0 0 0 0 0 0 0 0 0 0 0 127 0" result="hardAlpha"/>
<feOffset dy="4"/>
<feGaussianBlur stdDeviation="2"/>
<feComposite in2="hardAlpha" operator="out"/>
<feColorMatrix type="matrix" values="0 0 0 0 0 0 0 0 0 0 0 0 0 0 0 0 0 0 0.25 0"/>
<feBlend mode="normal" in2="BackgroundImageFix" result="effect1_dropShadow_84_484"/>
<feBlend mode="normal" in="SourceGraphic" in2="effect1_dropShadow_84_484" result="shape"/>
</filter>
<filter id="filter19_d_84_484" x="931.257" y="207.48" width="19.0059" height="19.0039" filterUnits="userSpaceOnUse" color-interpolation-filters="sRGB">
<feFlood flood-opacity="0" result="BackgroundImageFix"/>
<feColorMatrix in="SourceAlpha" type="matrix" values="0 0 0 0 0 0 0 0 0 0 0 0 0 0 0 0 0 0 127 0" result="hardAlpha"/>
<feOffset dy="4"/>
<feGaussianBlur stdDeviation="2"/>
<feComposite in2="hardAlpha" operator="out"/>
<feColorMatrix type="matrix" values="0 0 0 0 0 0 0 0 0 0 0 0 0 0 0 0 0 0 0.25 0"/>
<feBlend mode="normal" in2="BackgroundImageFix" result="effect1_dropShadow_84_484"/>
<feBlend mode="normal" in="SourceGraphic" in2="effect1_dropShadow_84_484" result="shape"/>
</filter>
<filter id="filter20_d_84_484" x="912.83" y="221.864" width="20.2275" height="20.9141" filterUnits="userSpaceOnUse" color-interpolation-filters="sRGB">
<feFlood flood-opacity="0" result="BackgroundImageFix"/>
<feColorMatrix in="SourceAlpha" type="matrix" values="0 0 0 0 0 0 0 0 0 0 0 0 0 0 0 0 0 0 127 0" result="hardAlpha"/>
<feOffset dy="4"/>
<feGaussianBlur stdDeviation="2"/>
<feComposite in2="hardAlpha" operator="out"/>
<feColorMatrix type="matrix" values="0 0 0 0 0 0 0 0 0 0 0 0 0 0 0 0 0 0 0.25 0"/>
<feBlend mode="normal" in2="BackgroundImageFix" result="effect1_dropShadow_84_484"/>
<feBlend mode="normal" in="SourceGraphic" in2="effect1_dropShadow_84_484" result="shape"/>
</filter>
<filter id="filter21_d_84_484" x="894.347" y="236.935" width="18.1323" height="18.1733" filterUnits="userSpaceOnUse" color-interpolation-filters="sRGB">
<feFlood flood-opacity="0" result="BackgroundImageFix"/>
<feColorMatrix in="SourceAlpha" type="matrix" values="0 0 0 0 0 0 0 0 0 0 0 0 0 0 0 0 0 0 127 0" result="hardAlpha"/>
<feOffset dy="4"/>
<feGaussianBlur stdDeviation="2"/>
<feComposite in2="hardAlpha" operator="out"/>
<feColorMatrix type="matrix" values="0 0 0 0 0 0 0 0 0 0 0 0 0 0 0 0 0 0 0.25 0"/>
<feBlend mode="normal" in2="BackgroundImageFix" result="effect1_dropShadow_84_484"/>
<feBlend mode="normal" in="SourceGraphic" in2="effect1_dropShadow_84_484" result="shape"/>
</filter>
<filter id="filter22_d_84_484" x="875.598" y="245.586" width="14.2603" height="16.2627" filterUnits="userSpaceOnUse" color-interpolation-filters="sRGB">
<feFlood flood-opacity="0" result="BackgroundImageFix"/>
<feColorMatrix in="SourceAlpha" type="matrix" values="0 0 0 0 0 0 0 0 0 0 0 0 0 0 0 0 0 0 127 0" result="hardAlpha"/>
<feOffset dy="4"/>
<feGaussianBlur stdDeviation="2"/>
<feComposite in2="hardAlpha" operator="out"/>
<feColorMatrix type="matrix" values="0 0 0 0 0 0 0 0 0 0 0 0 0 0 0 0 0 0 0.25 0"/>
<feBlend mode="normal" in2="BackgroundImageFix" result="effect1_dropShadow_84_484"/>
<feBlend mode="normal" in="SourceGraphic" in2="effect1_dropShadow_84_484" result="shape"/>
</filter>
<filter id="filter23_d_84_484" x="856.634" y="249.35" width="13.2891" height="15.5879" filterUnits="userSpaceOnUse" color-interpolation-filters="sRGB">
<feFlood flood-opacity="0" result="BackgroundImageFix"/>
<feColorMatrix in="SourceAlpha" type="matrix" values="0 0 0 0 0 0 0 0 0 0 0 0 0 0 0 0 0 0 127 0" result="hardAlpha"/>
<feOffset dy="4"/>
<feGaussianBlur stdDeviation="2"/>
<feComposite in2="hardAlpha" operator="out"/>
<feColorMatrix type="matrix" values="0 0 0 0 0 0 0 0 0 0 0 0 0 0 0 0 0 0 0.25 0"/>
<feBlend mode="normal" in2="BackgroundImageFix" result="effect1_dropShadow_84_484"/>
<feBlend mode="normal" in="SourceGraphic" in2="effect1_dropShadow_84_484" result="shape"/>
</filter>
<filter id="filter24_d_84_484" x="833.747" y="248.631" width="16.7832" height="16.9087" filterUnits="userSpaceOnUse" color-interpolation-filters="sRGB">
<feFlood flood-opacity="0" result="BackgroundImageFix"/>
<feColorMatrix in="SourceAlpha" type="matrix" values="0 0 0 0 0 0 0 0 0 0 0 0 0 0 0 0 0 0 127 0" result="hardAlpha"/>
<feOffset dy="4"/>
<feGaussianBlur stdDeviation="2"/>
<feComposite in2="hardAlpha" operator="out"/>
<feColorMatrix type="matrix" values="0 0 0 0 0 0 0 0 0 0 0 0 0 0 0 0 0 0 0.25 0"/>
<feBlend mode="normal" in2="BackgroundImageFix" result="effect1_dropShadow_84_484"/>
<feBlend mode="normal" in="SourceGraphic" in2="effect1_dropShadow_84_484" result="shape"/>
</filter>
<filter id="filter25_d_84_484" x="808.195" y="242.99" width="21.4805" height="19.1392" filterUnits="userSpaceOnUse" color-interpolation-filters="sRGB">
<feFlood flood-opacity="0" result="BackgroundImageFix"/>
<feColorMatrix in="SourceAlpha" type="matrix" values="0 0 0 0 0 0 0 0 0 0 0 0 0 0 0 0 0 0 127 0" result="hardAlpha"/>
<feOffset dy="4"/>
<feGaussianBlur stdDeviation="2"/>
<feComposite in2="hardAlpha" operator="out"/>
<feColorMatrix type="matrix" values="0 0 0 0 0 0 0 0 0 0 0 0 0 0 0 0 0 0 0.25 0"/>
<feBlend mode="normal" in2="BackgroundImageFix" result="effect1_dropShadow_84_484"/>
<feBlend mode="normal" in="SourceGraphic" in2="effect1_dropShadow_84_484" result="shape"/>
</filter>
</defs>
</svg>
