<svg width="428" height="199" viewBox="0 0 428 199" fill="none" xmlns="http://www.w3.org/2000/svg">
<path d="M22.7617 132.297H23.4502V134.534L25.9062 132.297H26.8584L24.168 134.729L27.0732 137.61H26.1064L23.665 135.154L23.4502 135.344V137.61H22.7617V132.297ZM32.2783 137.61H31.5508L29.7734 133.743L28.0107 137.61H27.2783L29.71 132.297H29.832L32.2783 137.61ZM34.0117 132.297V136.228L37.9131 132.297H37.9668V137.61H37.2832V133.713L33.4111 137.61H33.3281V132.297H34.0117ZM43.2646 135.051H40.1787V137.61H39.4902V132.297H40.1787V134.407H43.2646V132.297H43.9482V137.61H43.2646V135.051ZM46.1602 132.297V136.228L50.0615 132.297H50.1152V137.61H49.4316V133.713L45.5596 137.61H45.4766V132.297H46.1602ZM51.6387 132.297H52.3271V134.534L54.7832 132.297H55.7354L53.0449 134.729L55.9502 137.61H54.9834L52.542 135.154L52.3271 135.344V137.61H51.6387V132.297ZM61.9512 132.297V137.61H61.2773V136.697C60.9909 137.045 60.6686 137.307 60.3105 137.483C59.9557 137.659 59.5667 137.747 59.1436 137.747C58.3916 137.747 57.7487 137.475 57.2148 136.931C56.6842 136.384 56.4189 135.72 56.4189 134.939C56.4189 134.174 56.6875 133.52 57.2246 132.976C57.7617 132.432 58.4079 132.161 59.1631 132.161C59.5993 132.161 59.9932 132.253 60.3447 132.439C60.6995 132.625 61.0104 132.903 61.2773 133.274V132.297H61.9512ZM59.2168 132.82C58.8359 132.82 58.4844 132.914 58.1621 133.103C57.8398 133.289 57.5827 133.551 57.3906 133.889C57.2018 134.228 57.1074 134.586 57.1074 134.963C57.1074 135.338 57.2035 135.696 57.3955 136.038C57.5876 136.379 57.8447 136.646 58.167 136.838C58.4925 137.027 58.8408 137.122 59.2119 137.122C59.5863 137.122 59.9411 137.027 60.2764 136.838C60.6117 136.65 60.8688 136.394 61.0479 136.072C61.2301 135.75 61.3213 135.387 61.3213 134.983C61.3213 134.368 61.1178 133.853 60.7109 133.44C60.3073 133.027 59.8092 132.82 59.2168 132.82ZM66.2676 132.297H70.7256V137.61H70.042V132.942H66.9512V137.61H66.2676V132.297ZM76.7266 135.847L77.3027 136.15C77.1139 136.521 76.8958 136.82 76.6484 137.048C76.401 137.276 76.1227 137.45 75.8135 137.571C75.5042 137.688 75.1543 137.747 74.7637 137.747C73.8978 137.747 73.2207 137.463 72.7324 136.897C72.2441 136.327 72 135.684 72 134.968C72 134.294 72.2067 133.694 72.6201 133.167C73.1442 132.496 73.8457 132.161 74.7246 132.161C75.6296 132.161 76.3522 132.504 76.8926 133.191C77.2767 133.676 77.472 134.281 77.4785 135.007H72.7031C72.7161 135.626 72.9131 136.134 73.2939 136.531C73.6748 136.925 74.1452 137.122 74.7051 137.122C74.9753 137.122 75.2373 137.074 75.4912 136.98C75.7484 136.886 75.9665 136.76 76.1455 136.604C76.3245 136.448 76.5182 136.195 76.7266 135.847ZM76.7266 134.417C76.6354 134.052 76.502 133.761 76.3262 133.542C76.1536 133.324 75.9242 133.149 75.6377 133.015C75.3512 132.882 75.0501 132.815 74.7344 132.815C74.2135 132.815 73.766 132.983 73.3916 133.318C73.1182 133.562 72.9115 133.928 72.7715 134.417H76.7266ZM78.7676 132.297H79.4463V133.274C79.7165 132.903 80.0273 132.625 80.3789 132.439C80.7305 132.253 81.1227 132.161 81.5557 132.161C82.3109 132.161 82.957 132.432 83.4941 132.976C84.0312 133.52 84.2998 134.174 84.2998 134.939C84.2998 135.72 84.0329 136.384 83.499 136.931C82.9684 137.475 82.3271 137.747 81.5752 137.747C81.152 137.747 80.763 137.659 80.4082 137.483C80.0534 137.307 79.7327 137.045 79.4463 136.697V139.553H78.7676V132.297ZM81.502 132.82C80.9095 132.82 80.4098 133.027 80.0029 133.44C79.5993 133.853 79.3975 134.368 79.3975 134.983C79.3975 135.387 79.487 135.75 79.666 136.072C79.8483 136.394 80.1071 136.65 80.4424 136.838C80.7809 137.027 81.1374 137.122 81.5117 137.122C81.8796 137.122 82.2246 137.027 82.5469 136.838C82.8724 136.646 83.1312 136.379 83.3232 136.038C83.5153 135.696 83.6113 135.338 83.6113 134.963C83.6113 134.586 83.5153 134.228 83.3232 133.889C83.1344 133.551 82.8789 133.289 82.5566 133.103C82.2344 132.914 81.8828 132.82 81.502 132.82ZM90.7402 133.401L90.1982 133.738C89.7295 133.116 89.0898 132.805 88.2793 132.805C87.6315 132.805 87.0928 133.014 86.6631 133.43C86.2367 133.847 86.0234 134.353 86.0234 134.949C86.0234 135.336 86.1211 135.701 86.3164 136.042C86.515 136.384 86.7852 136.65 87.127 136.838C87.472 137.027 87.8577 137.122 88.2842 137.122C89.0654 137.122 89.7035 136.811 90.1982 136.189L90.7402 136.545C90.4863 136.926 90.1445 137.222 89.7148 137.434C89.2884 137.642 88.8018 137.747 88.2549 137.747C87.415 137.747 86.7184 137.48 86.165 136.946C85.6117 136.412 85.335 135.763 85.335 134.998C85.335 134.483 85.4635 134.006 85.7207 133.567C85.9811 133.124 86.3376 132.779 86.79 132.532C87.2425 132.284 87.7487 132.161 88.3086 132.161C88.6602 132.161 88.9987 132.214 89.3242 132.322C89.653 132.429 89.9313 132.569 90.1592 132.742C90.387 132.914 90.5807 133.134 90.7402 133.401ZM94.5732 132.161C95.3903 132.161 96.0674 132.457 96.6045 133.049C97.0928 133.59 97.3369 134.229 97.3369 134.968C97.3369 135.71 97.0781 136.36 96.5605 136.917C96.0462 137.47 95.3838 137.747 94.5732 137.747C93.7594 137.747 93.0938 137.47 92.5762 136.917C92.0618 136.36 91.8047 135.71 91.8047 134.968C91.8047 134.233 92.0488 133.595 92.5371 133.054C93.0742 132.458 93.7529 132.161 94.5732 132.161ZM94.5732 132.83C94.0068 132.83 93.5202 133.04 93.1133 133.459C92.7064 133.879 92.5029 134.387 92.5029 134.983C92.5029 135.367 92.5957 135.725 92.7812 136.057C92.9668 136.389 93.2174 136.646 93.5332 136.829C93.849 137.008 94.1956 137.097 94.5732 137.097C94.9508 137.097 95.2975 137.008 95.6133 136.829C95.929 136.646 96.1797 136.389 96.3652 136.057C96.5508 135.725 96.6436 135.367 96.6436 134.983C96.6436 134.387 96.4385 133.879 96.0283 133.459C95.6214 133.04 95.1364 132.83 94.5732 132.83ZM102.386 135.051H99.2998V137.61H98.6113V132.297H99.2998V134.407H102.386V132.297H103.069V137.61H102.386V135.051ZM109.891 132.297V137.61H109.217V136.697C108.93 137.045 108.608 137.307 108.25 137.483C107.895 137.659 107.506 137.747 107.083 137.747C106.331 137.747 105.688 137.475 105.154 136.931C104.624 136.384 104.358 135.72 104.358 134.939C104.358 134.174 104.627 133.52 105.164 132.976C105.701 132.432 106.347 132.161 107.103 132.161C107.539 132.161 107.933 132.253 108.284 132.439C108.639 132.625 108.95 132.903 109.217 133.274V132.297H109.891ZM107.156 132.82C106.775 132.82 106.424 132.914 106.102 133.103C105.779 133.289 105.522 133.551 105.33 133.889C105.141 134.228 105.047 134.586 105.047 134.963C105.047 135.338 105.143 135.696 105.335 136.038C105.527 136.379 105.784 136.646 106.106 136.838C106.432 137.027 106.78 137.122 107.151 137.122C107.526 137.122 107.881 137.027 108.216 136.838C108.551 136.65 108.808 136.394 108.987 136.072C109.17 135.75 109.261 135.387 109.261 134.983C109.261 134.368 109.057 133.853 108.65 133.44C108.247 133.027 107.749 132.82 107.156 132.82ZM115.931 137.61H115.203L113.426 133.743L111.663 137.61H110.931L113.362 132.297H113.484L115.931 137.61ZM117.659 134.402H118.309C118.826 134.402 119.231 134.443 119.524 134.524C119.817 134.605 120.07 134.786 120.281 135.066C120.493 135.343 120.599 135.662 120.599 136.023C120.599 136.459 120.446 136.833 120.14 137.146C119.834 137.455 119.37 137.61 118.748 137.61H116.98V132.297H117.659V134.402ZM117.684 135.027V137.034H118.47C119.394 137.034 119.856 136.708 119.856 136.057C119.856 135.872 119.806 135.689 119.705 135.51C119.607 135.331 119.463 135.206 119.271 135.134C119.082 135.063 118.746 135.027 118.265 135.027H117.684ZM125.472 135.051H122.386V137.61H121.697V132.297H122.386V134.407H125.472V132.297H126.155V137.61H125.472V135.051ZM130.198 132.161C131.015 132.161 131.692 132.457 132.229 133.049C132.718 133.59 132.962 134.229 132.962 134.968C132.962 135.71 132.703 136.36 132.186 136.917C131.671 137.47 131.009 137.747 130.198 137.747C129.384 137.747 128.719 137.47 128.201 136.917C127.687 136.36 127.43 135.71 127.43 134.968C127.43 134.233 127.674 133.595 128.162 133.054C128.699 132.458 129.378 132.161 130.198 132.161ZM130.198 132.83C129.632 132.83 129.145 133.04 128.738 133.459C128.331 133.879 128.128 134.387 128.128 134.983C128.128 135.367 128.221 135.725 128.406 136.057C128.592 136.389 128.842 136.646 129.158 136.829C129.474 137.008 129.821 137.097 130.198 137.097C130.576 137.097 130.923 137.008 131.238 136.829C131.554 136.646 131.805 136.389 131.99 136.057C132.176 135.725 132.269 135.367 132.269 134.983C132.269 134.387 132.063 133.879 131.653 133.459C131.246 133.04 130.761 132.83 130.198 132.83ZM134.92 132.297V136.228L138.821 132.297H138.875V137.61H138.191V133.713L134.319 137.61H134.236V132.297H134.92ZM134.827 130.164H135.472C135.582 130.333 135.73 130.46 135.916 130.544C136.102 130.629 136.323 130.671 136.58 130.671C136.84 130.671 137.05 130.634 137.21 130.559C137.369 130.484 137.521 130.352 137.664 130.164H138.289C138.217 130.457 138.034 130.702 137.737 130.901C137.444 131.096 137.057 131.194 136.575 131.194C136.097 131.194 135.706 131.098 135.403 130.906C135.101 130.71 134.909 130.463 134.827 130.164ZM143.855 132.297V136.228L147.757 132.297H147.811V137.61H147.127V133.713L143.255 137.61H143.172V132.297H143.855ZM152.107 132.297H156.565V137.61H155.882V132.942H152.791V137.61H152.107V132.297ZM158.104 132.297H158.782V133.274C159.052 132.903 159.363 132.625 159.715 132.439C160.066 132.253 160.459 132.161 160.892 132.161C161.647 132.161 162.293 132.432 162.83 132.976C163.367 133.52 163.636 134.174 163.636 134.939C163.636 135.72 163.369 136.384 162.835 136.931C162.304 137.475 161.663 137.747 160.911 137.747C160.488 137.747 160.099 137.659 159.744 137.483C159.389 137.307 159.069 137.045 158.782 136.697V139.553H158.104V132.297ZM160.838 132.82C160.245 132.82 159.746 133.027 159.339 133.44C158.935 133.853 158.733 134.368 158.733 134.983C158.733 135.387 158.823 135.75 159.002 136.072C159.184 136.394 159.443 136.65 159.778 136.838C160.117 137.027 160.473 137.122 160.848 137.122C161.215 137.122 161.561 137.027 161.883 136.838C162.208 136.646 162.467 136.379 162.659 136.038C162.851 135.696 162.947 135.338 162.947 134.963C162.947 134.586 162.851 134.228 162.659 133.889C162.47 133.551 162.215 133.289 161.893 133.103C161.57 132.914 161.219 132.82 160.838 132.82ZM169.393 135.847L169.969 136.15C169.78 136.521 169.562 136.82 169.314 137.048C169.067 137.276 168.789 137.45 168.479 137.571C168.17 137.688 167.82 137.747 167.43 137.747C166.564 137.747 165.887 137.463 165.398 136.897C164.91 136.327 164.666 135.684 164.666 134.968C164.666 134.294 164.873 133.694 165.286 133.167C165.81 132.496 166.512 132.161 167.391 132.161C168.296 132.161 169.018 132.504 169.559 133.191C169.943 133.676 170.138 134.281 170.145 135.007H165.369C165.382 135.626 165.579 136.134 165.96 136.531C166.341 136.925 166.811 137.122 167.371 137.122C167.641 137.122 167.903 137.074 168.157 136.98C168.414 136.886 168.632 136.76 168.812 136.604C168.991 136.448 169.184 136.195 169.393 135.847ZM169.393 134.417C169.301 134.052 169.168 133.761 168.992 133.542C168.82 133.324 168.59 133.149 168.304 133.015C168.017 132.882 167.716 132.815 167.4 132.815C166.88 132.815 166.432 132.983 166.058 133.318C165.784 133.562 165.577 133.928 165.438 134.417H169.393ZM172.967 137.61H171.424V132.297H172.942C173.522 132.297 173.938 132.431 174.192 132.698C174.45 132.965 174.578 133.277 174.578 133.635C174.578 134.176 174.34 134.542 173.865 134.734C174.555 134.978 174.9 135.448 174.9 136.145C174.9 137.122 174.256 137.61 172.967 137.61ZM172.112 132.888V134.548H172.557C172.96 134.548 173.224 134.532 173.348 134.5C173.471 134.467 173.587 134.387 173.694 134.26C173.805 134.13 173.86 133.959 173.86 133.748C173.86 133.526 173.803 133.341 173.689 133.191C173.576 133.041 173.455 132.953 173.328 132.927C173.204 132.901 172.947 132.888 172.557 132.888H172.112ZM172.112 135.173V137.034H172.845C173.19 137.034 173.436 137.013 173.582 136.97C173.732 136.925 173.859 136.829 173.963 136.682C174.07 136.536 174.124 136.35 174.124 136.125C174.124 135.836 174.033 135.605 173.851 135.432C173.668 135.26 173.427 135.173 173.128 135.173H172.112ZM180.574 135.847L181.15 136.15C180.962 136.521 180.743 136.82 180.496 137.048C180.249 137.276 179.97 137.45 179.661 137.571C179.352 137.688 179.002 137.747 178.611 137.747C177.745 137.747 177.068 137.463 176.58 136.897C176.092 136.327 175.848 135.684 175.848 134.968C175.848 134.294 176.054 133.694 176.468 133.167C176.992 132.496 177.693 132.161 178.572 132.161C179.477 132.161 180.2 132.504 180.74 133.191C181.124 133.676 181.32 134.281 181.326 135.007H176.551C176.564 135.626 176.761 136.134 177.142 136.531C177.522 136.925 177.993 137.122 178.553 137.122C178.823 137.122 179.085 137.074 179.339 136.98C179.596 136.886 179.814 136.76 179.993 136.604C180.172 136.448 180.366 136.195 180.574 135.847ZM180.574 134.417C180.483 134.052 180.35 133.761 180.174 133.542C180.001 133.324 179.772 133.149 179.485 133.015C179.199 132.882 178.898 132.815 178.582 132.815C178.061 132.815 177.614 132.983 177.239 133.318C176.966 133.562 176.759 133.928 176.619 134.417H180.574ZM186.38 135.051H183.294V137.61H182.605V132.297H183.294V134.407H186.38V132.297H187.063V137.61H186.38V135.051ZM187.996 132.297H191.492V132.888H190.086V137.61H189.397V132.888H187.996V132.297ZM193.104 132.297V136.228L197.005 132.297H197.059V137.61H196.375V133.713L192.503 137.61H192.42V132.297H193.104ZM200.125 137.61H198.582V132.297H200.101C200.68 132.297 201.097 132.431 201.351 132.698C201.608 132.965 201.736 133.277 201.736 133.635C201.736 134.176 201.499 134.542 201.023 134.734C201.714 134.978 202.059 135.448 202.059 136.145C202.059 137.122 201.414 137.61 200.125 137.61ZM199.271 132.888V134.548H199.715C200.118 134.548 200.382 134.532 200.506 134.5C200.63 134.467 200.745 134.387 200.853 134.26C200.963 134.13 201.019 133.959 201.019 133.748C201.019 133.526 200.962 133.341 200.848 133.191C200.734 133.041 200.613 132.953 200.486 132.927C200.363 132.901 200.105 132.888 199.715 132.888H199.271ZM199.271 135.173V137.034H200.003C200.348 137.034 200.594 137.013 200.74 136.97C200.89 136.925 201.017 136.829 201.121 136.682C201.229 136.536 201.282 136.35 201.282 136.125C201.282 135.836 201.191 135.605 201.009 135.432C200.826 135.26 200.586 135.173 200.286 135.173H199.271ZM207.034 135.051H203.948V137.61H203.26V132.297H203.948V134.407H207.034V132.297H207.718V137.61H207.034V135.051ZM211.761 132.161C212.578 132.161 213.255 132.457 213.792 133.049C214.28 133.59 214.524 134.229 214.524 134.968C214.524 135.71 214.266 136.36 213.748 136.917C213.234 137.47 212.571 137.747 211.761 137.747C210.947 137.747 210.281 137.47 209.764 136.917C209.249 136.36 208.992 135.71 208.992 134.968C208.992 134.233 209.236 133.595 209.725 133.054C210.262 132.458 210.94 132.161 211.761 132.161ZM211.761 132.83C211.194 132.83 210.708 133.04 210.301 133.459C209.894 133.879 209.69 134.387 209.69 134.983C209.69 135.367 209.783 135.725 209.969 136.057C210.154 136.389 210.405 136.646 210.721 136.829C211.036 137.008 211.383 137.097 211.761 137.097C212.138 137.097 212.485 137.008 212.801 136.829C213.117 136.646 213.367 136.389 213.553 136.057C213.738 135.725 213.831 135.367 213.831 134.983C213.831 134.387 213.626 133.879 213.216 133.459C212.809 133.04 212.324 132.83 211.761 132.83ZM216.482 132.297V136.228L220.384 132.297H220.438V137.61H219.754V133.713L215.882 137.61H215.799V132.297H216.482ZM216.39 130.164H217.034C217.145 130.333 217.293 130.46 217.479 130.544C217.664 130.629 217.885 130.671 218.143 130.671C218.403 130.671 218.613 130.634 218.772 130.559C218.932 130.484 219.083 130.352 219.227 130.164H219.852C219.78 130.457 219.596 130.702 219.3 130.901C219.007 131.096 218.619 131.194 218.138 131.194C217.659 131.194 217.269 131.098 216.966 130.906C216.663 130.71 216.471 130.463 216.39 130.164ZM230.501 132.297H230.696L232.498 137.61H231.785L230.472 133.699L228.431 137.61H228.304L226.258 133.699L224.949 137.61H224.236L226.048 132.297H226.233L228.372 136.453L230.501 132.297ZM237.996 135.847L238.572 136.15C238.383 136.521 238.165 136.82 237.918 137.048C237.671 137.276 237.392 137.45 237.083 137.571C236.774 137.688 236.424 137.747 236.033 137.747C235.167 137.747 234.49 137.463 234.002 136.897C233.514 136.327 233.27 135.684 233.27 134.968C233.27 134.294 233.476 133.694 233.89 133.167C234.414 132.496 235.115 132.161 235.994 132.161C236.899 132.161 237.622 132.504 238.162 133.191C238.546 133.676 238.742 134.281 238.748 135.007H233.973C233.986 135.626 234.183 136.134 234.563 136.531C234.944 136.925 235.415 137.122 235.975 137.122C236.245 137.122 236.507 137.074 236.761 136.98C237.018 136.886 237.236 136.76 237.415 136.604C237.594 136.448 237.788 136.195 237.996 135.847ZM237.996 134.417C237.905 134.052 237.771 133.761 237.596 133.542C237.423 133.324 237.194 133.149 236.907 133.015C236.621 132.882 236.32 132.815 236.004 132.815C235.483 132.815 235.035 132.983 234.661 133.318C234.388 133.562 234.181 133.928 234.041 134.417H237.996ZM240.071 137.029L242.122 132.297H242.479L244.515 137.029H245.154V138.289H244.495V137.61H240.101V138.318H239.427V137.029H240.071ZM242.288 133.352L240.735 137.029H243.777L242.288 133.352ZM246.766 132.297V136.228L250.667 132.297H250.721V137.61H250.037V133.713L246.165 137.61H246.082V132.297H246.766ZM257.21 137.61H252.244V132.297H252.933V136.965H256.019V132.297H256.707V136.965H257.854V138.45H257.21V137.61ZM259.461 132.297V136.228L263.362 132.297H263.416V137.61H262.732V133.713L258.86 137.61H258.777V132.297H259.461ZM268.714 135.051H265.628V137.61H264.939V132.297H265.628V134.407H268.714V132.297H269.397V137.61H268.714V135.051ZM271.604 134.402H272.254C272.771 134.402 273.177 134.443 273.47 134.524C273.763 134.605 274.015 134.786 274.227 135.066C274.438 135.343 274.544 135.662 274.544 136.023C274.544 136.459 274.391 136.833 274.085 137.146C273.779 137.455 273.315 137.61 272.693 137.61H270.926V132.297H271.604V134.402ZM271.629 135.027V137.034H272.415C273.34 137.034 273.802 136.708 273.802 136.057C273.802 135.872 273.751 135.689 273.65 135.51C273.553 135.331 273.408 135.206 273.216 135.134C273.027 135.063 272.692 135.027 272.21 135.027H271.629ZM275.486 132.297H276.175V137.61H275.486V132.297Z" fill="#676767"/>
<g filter="url(#filter0_d_95_606)">
<path d="M25.7842 92.0474H29.1777V96.6372C30.3659 94.9445 31.5866 93.7075 32.8398 92.9263C34.5651 91.8846 36.3799 91.3638 38.2842 91.3638C39.57 91.3638 40.7907 91.616 41.9463 92.1206C43.1019 92.6252 44.0459 93.3006 44.7783 94.147C45.5107 94.9771 46.1455 96.1733 46.6826 97.7358C47.8219 95.6525 49.2461 94.0737 50.9551 92.9995C52.6641 91.909 54.5033 91.3638 56.4727 91.3638C58.3118 91.3638 59.9313 91.8276 61.3311 92.7554C62.7471 93.6831 63.7969 94.9771 64.4805 96.6372C65.1641 98.2974 65.5059 100.788 65.5059 104.108V118.61H62.0146V104.108C62.0146 101.26 61.8112 99.3065 61.4043 98.2485C60.9974 97.1743 60.2975 96.3117 59.3047 95.6606C58.3281 95.0096 57.1562 94.6841 55.7891 94.6841C54.1289 94.6841 52.6071 95.1724 51.2236 96.1489C49.8564 97.1255 48.8555 98.4276 48.2207 100.055C47.5859 101.683 47.2686 104.401 47.2686 108.209V118.61H43.875V105.011C43.875 101.805 43.6715 99.632 43.2646 98.4927C42.874 97.3371 42.1823 96.4175 41.1895 95.7339C40.1966 95.034 39.0166 94.6841 37.6494 94.6841C36.0706 94.6841 34.5895 95.1642 33.2061 96.1245C31.8389 97.0685 30.8216 98.3462 30.1543 99.9575C29.5033 101.569 29.1777 104.035 29.1777 107.355V118.61H25.7842V92.0474ZM70.876 92.0474H74.4893L83.6201 112.506L92.4824 92.0474H96.1201L80.2754 128.327H76.6621L81.7891 116.608L70.876 92.0474Z" fill="#EE964B"/>
<path d="M119.215 81.7935C124.651 81.7935 129.2 83.6082 132.862 87.2378C136.524 90.8674 138.355 95.3351 138.355 100.641C138.355 105.898 136.524 110.358 132.862 114.02C129.216 117.682 124.765 119.513 119.508 119.513C114.186 119.513 109.693 117.69 106.031 114.044C102.369 110.399 100.538 105.988 100.538 100.812C100.538 97.3615 101.368 94.1632 103.028 91.2173C104.705 88.2713 106.983 85.9683 109.864 84.3081C112.745 82.6317 115.862 81.7935 119.215 81.7935ZM119.386 85.3091C116.733 85.3091 114.218 86.0008 111.842 87.3843C109.465 88.7677 107.61 90.6313 106.275 92.9751C104.941 95.3188 104.273 97.9312 104.273 100.812C104.273 105.076 105.746 108.681 108.692 111.627C111.655 114.557 115.219 116.022 119.386 116.022C122.169 116.022 124.741 115.347 127.101 113.996C129.477 112.645 131.324 110.797 132.643 108.454C133.977 106.11 134.645 103.506 134.645 100.641C134.645 97.7928 133.977 95.2212 132.643 92.9263C131.324 90.6151 129.461 88.7677 127.052 87.3843C124.643 86.0008 122.088 85.3091 119.386 85.3091ZM146.045 92.0474H149.438V96.9302C150.789 95.0747 152.344 93.6831 154.102 92.7554C155.859 91.8276 157.821 91.3638 159.985 91.3638C163.761 91.3638 166.992 92.7228 169.678 95.4409C172.363 98.159 173.706 101.431 173.706 105.255C173.706 109.162 172.371 112.482 169.702 115.216C167.049 117.934 163.843 119.293 160.083 119.293C157.967 119.293 156.022 118.854 154.248 117.975C152.474 117.096 150.871 115.786 149.438 114.044V128.327H146.045V92.0474ZM159.717 94.6597C156.755 94.6597 154.256 95.6932 152.222 97.7603C150.203 99.8273 149.194 102.399 149.194 105.475C149.194 107.493 149.642 109.308 150.537 110.919C151.449 112.531 152.743 113.808 154.419 114.752C156.112 115.696 157.894 116.168 159.766 116.168C161.605 116.168 163.33 115.696 164.941 114.752C166.569 113.792 167.863 112.458 168.823 110.749C169.784 109.04 170.264 107.249 170.264 105.377C170.264 103.489 169.784 101.699 168.823 100.006C167.879 98.3136 166.602 97.0034 164.99 96.0757C163.379 95.1317 161.621 94.6597 159.717 94.6597ZM184.105 82.1841H187.548V92.0474H192.968V94.9771H187.548V118.61H184.105V94.9771H179.442V92.0474H184.105V82.1841ZM200.267 81.1099C201.048 81.1099 201.715 81.3866 202.269 81.9399C202.822 82.4933 203.099 83.1606 203.099 83.9419C203.099 84.7069 202.822 85.366 202.269 85.9194C201.715 86.4728 201.048 86.7495 200.267 86.7495C199.502 86.7495 198.842 86.4728 198.289 85.9194C197.736 85.366 197.459 84.7069 197.459 83.9419C197.459 83.1606 197.736 82.4933 198.289 81.9399C198.842 81.3866 199.502 81.1099 200.267 81.1099ZM198.558 92.0474H202V118.61H198.558V92.0474ZM210.056 92.0474H213.449V96.6372C214.637 94.9445 215.858 93.7075 217.111 92.9263C218.837 91.8846 220.651 91.3638 222.556 91.3638C223.841 91.3638 225.062 91.616 226.218 92.1206C227.373 92.6252 228.317 93.3006 229.05 94.147C229.782 94.9771 230.417 96.1733 230.954 97.7358C232.093 95.6525 233.518 94.0737 235.227 92.9995C236.936 91.909 238.775 91.3638 240.744 91.3638C242.583 91.3638 244.203 91.8276 245.603 92.7554C247.019 93.6831 248.068 94.9771 248.752 96.6372C249.436 98.2974 249.777 100.788 249.777 104.108V118.61H246.286V104.108C246.286 101.26 246.083 99.3065 245.676 98.2485C245.269 97.1743 244.569 96.3117 243.576 95.6606C242.6 95.0096 241.428 94.6841 240.061 94.6841C238.4 94.6841 236.879 95.1724 235.495 96.1489C234.128 97.1255 233.127 98.4276 232.492 100.055C231.857 101.683 231.54 104.401 231.54 108.209V118.61H228.146V105.011C228.146 101.805 227.943 99.632 227.536 98.4927C227.146 97.3371 226.454 96.4175 225.461 95.7339C224.468 95.034 223.288 94.6841 221.921 94.6841C220.342 94.6841 218.861 95.1642 217.478 96.1245C216.11 97.0685 215.093 98.3462 214.426 99.9575C213.775 101.569 213.449 104.035 213.449 107.355V118.61H210.056V92.0474ZM257.564 92.0474H261.007V104.45C261.007 107.477 261.17 109.56 261.495 110.7C261.983 112.327 262.911 113.613 264.278 114.557C265.662 115.501 267.306 115.973 269.21 115.973C271.114 115.973 272.726 115.517 274.044 114.606C275.379 113.678 276.298 112.466 276.803 110.968C277.145 109.943 277.315 107.77 277.315 104.45V92.0474H280.807V105.084C280.807 108.747 280.375 111.505 279.513 113.361C278.666 115.216 277.381 116.673 275.655 117.731C273.946 118.773 271.798 119.293 269.21 119.293C266.622 119.293 264.457 118.773 262.716 117.731C260.991 116.673 259.697 115.208 258.834 113.336C257.988 111.448 257.564 108.616 257.564 104.84V92.0474ZM289.399 92.0474H292.793V96.6372C293.981 94.9445 295.202 93.7075 296.455 92.9263C298.18 91.8846 299.995 91.3638 301.899 91.3638C303.185 91.3638 304.406 91.616 305.562 92.1206C306.717 92.6252 307.661 93.3006 308.394 94.147C309.126 94.9771 309.761 96.1733 310.298 97.7358C311.437 95.6525 312.861 94.0737 314.57 92.9995C316.279 91.909 318.118 91.3638 320.088 91.3638C321.927 91.3638 323.547 91.8276 324.946 92.7554C326.362 93.6831 327.412 94.9771 328.096 96.6372C328.779 98.2974 329.121 100.788 329.121 104.108V118.61H325.63V104.108C325.63 101.26 325.426 99.3065 325.02 98.2485C324.613 97.1743 323.913 96.3117 322.92 95.6606C321.943 95.0096 320.771 94.6841 319.404 94.6841C317.744 94.6841 316.222 95.1724 314.839 96.1489C313.472 97.1255 312.471 98.4276 311.836 100.055C311.201 101.683 310.884 104.401 310.884 108.209V118.61H307.49V105.011C307.49 101.805 307.287 99.632 306.88 98.4927C306.489 97.3371 305.798 96.4175 304.805 95.7339C303.812 95.034 302.632 94.6841 301.265 94.6841C299.686 94.6841 298.205 95.1642 296.821 96.1245C295.454 97.0685 294.437 98.3462 293.77 99.9575C293.118 101.569 292.793 104.035 292.793 107.355V118.61H289.399V92.0474Z" fill="white"/>
</g>
<circle cx="200" cy="83.6099" r="3" fill="#EE964B"/>
<path d="M246.962 82.7864C250.826 41.3291 287.567 10.8544 329.025 14.7193C370.482 18.5842 400.957 55.3252 397.092 96.7825C393.227 138.24 356.486 168.715 315.029 164.85C273.571 160.985 243.097 124.244 246.962 82.7864Z" fill="#D9D9D9" fill-opacity="0.06"/>
<g filter="url(#filter1_d_95_606)">
<path d="M245.61 71.8777L246.045 72.7779C245.398 73.0904 244.869 73.5182 244.459 74.0613C244.045 74.599 243.763 75.227 243.614 75.9454C243.451 76.7308 243.489 77.4975 243.73 78.2455C243.965 78.9927 244.364 79.6177 244.925 80.1205C245.483 80.618 246.159 80.9492 246.953 81.1141C248.153 81.3634 249.24 81.1609 250.214 80.5066C251.188 79.8479 251.806 78.8916 252.066 77.6378C252.353 76.259 252.052 74.9934 251.165 73.8411L251.915 73.187C252.438 73.8075 252.795 74.5216 252.986 75.3292C253.173 76.1314 253.172 76.9854 252.984 77.8912C252.627 79.6136 251.771 80.8532 250.418 81.6102C249.276 82.2435 248.02 82.418 246.65 82.1335C245.209 81.8342 244.102 81.0784 243.33 79.8662C242.554 78.6485 242.324 77.2789 242.64 75.7573C242.831 74.8381 243.187 74.0461 243.706 73.3814C244.222 72.7157 244.856 72.2145 245.61 71.8777Z" fill="#EE964B"/>
</g>
<g filter="url(#filter2_d_95_606)">
<path d="M255.565 60.1771L256.28 59.6121C256.648 60.0645 256.907 60.5138 257.058 60.9599C257.209 61.4059 257.273 61.861 257.252 62.3251C257.226 62.7874 257.102 63.2684 256.88 63.7681C256.388 64.876 255.64 65.5813 254.638 65.884C253.632 66.1849 252.671 66.1319 251.754 65.7248C250.892 65.3418 250.241 64.7359 249.802 63.9073C249.242 62.8556 249.211 61.7675 249.711 60.643C250.225 59.4852 251.075 58.7558 252.261 58.4549C253.1 58.2391 253.986 58.3334 254.918 58.7377L252.204 64.8474C253.003 65.1823 253.764 65.219 254.489 64.9575C255.209 64.6941 255.729 64.2042 256.047 63.4879C256.2 63.1422 256.289 62.7801 256.313 62.4016C256.338 62.0189 256.302 61.6686 256.203 61.3507C256.105 61.0329 255.893 60.6417 255.565 60.1771ZM253.735 59.3639C253.217 59.2733 252.768 59.2785 252.389 59.3794C252.012 59.4762 251.657 59.6699 251.323 59.9605C250.99 60.2511 250.733 60.5984 250.554 61.0024C250.257 61.6688 250.218 62.3367 250.434 63.0063C250.591 63.4949 250.942 63.9675 251.487 64.4241L253.735 59.3639Z" fill="#EE964B"/>
</g>
<g filter="url(#filter3_d_95_606)">
<path d="M254.877 50.0965L255.429 49.3227L256.542 50.1161C256.339 49.5066 256.274 48.926 256.348 48.3745C256.422 47.8229 256.635 47.3003 256.987 46.8067C257.601 45.9457 258.435 45.4298 259.492 45.2592C260.548 45.0885 261.512 45.314 262.384 45.9355C263.275 46.5703 263.815 47.4142 264.005 48.4672C264.193 49.5138 263.982 50.4658 263.371 51.3231C263.028 51.8055 262.611 52.1776 262.123 52.4393C261.634 52.701 261.075 52.8537 260.445 52.8973L263.701 55.2182L263.15 55.9919L254.877 50.0965ZM257.695 47.4035C257.213 48.079 257.043 48.8166 257.184 49.6164C257.327 50.4125 257.75 51.0605 258.451 51.5604C258.911 51.8884 259.398 52.0812 259.911 52.1389C260.426 52.1929 260.928 52.1055 261.415 51.8767C261.906 51.6441 262.303 51.3144 262.607 50.8876C262.906 50.4682 263.079 49.9982 263.125 49.4773C263.171 48.9502 263.077 48.4382 262.843 47.9416C262.61 47.4449 262.279 47.0445 261.853 46.7403C261.422 46.4335 260.936 46.252 260.394 46.1959C259.854 46.1361 259.348 46.2145 258.875 46.4312C258.398 46.6452 258.004 46.9693 257.695 47.4035Z" fill="#EE964B"/>
</g>
<g filter="url(#filter4_d_95_606)">
<path d="M271.256 41.1043L269.693 42.5949L264.561 37.2116L266.099 35.7446C266.687 35.1849 267.238 34.9176 267.753 34.9428C268.271 34.9649 268.703 35.1574 269.049 35.5202C269.571 36.0678 269.684 36.6684 269.388 37.3221C270.323 36.9029 271.127 37.0462 271.8 37.7521C272.744 38.7417 272.562 39.8591 271.256 41.1043ZM265.829 37.1452L267.433 38.8275L267.883 38.3982C268.292 38.0083 268.543 37.7371 268.637 37.5846C268.731 37.4321 268.771 37.2397 268.758 37.0073C268.744 36.7684 268.635 36.5418 268.431 36.3274C268.217 36.1031 267.98 35.9701 267.72 35.9284C267.46 35.8867 267.253 35.914 267.099 36.0103C266.948 36.1034 266.675 36.3386 266.279 36.7159L265.829 37.1452ZM268.037 39.4608L269.834 41.3459L270.576 40.6384C270.925 40.3051 271.154 40.0462 271.262 39.8618C271.369 39.671 271.405 39.4511 271.369 39.202C271.337 38.9498 271.212 38.7099 270.995 38.4823C270.715 38.1887 270.399 38.0426 270.048 38.0438C269.697 38.0451 269.369 38.1904 269.066 38.4797L268.037 39.4608Z" fill="#EE964B"/>
</g>
<g filter="url(#filter5_d_95_606)">
<path d="M275.098 27.6301L278.113 32.234L279.668 24.6382L279.731 24.597L283.805 30.8194L283.004 31.3436L280.016 26.7798L278.469 34.3131L278.372 34.3767L274.298 28.1543L275.098 27.6301Z" fill="#EE964B"/>
</g>
<g filter="url(#filter6_d_95_606)">
<path d="M294.379 18.7962L293.853 19.5184C292.918 18.9584 291.925 18.8916 290.873 19.3181C290.033 19.6589 289.443 20.2126 289.105 20.9793C288.771 21.7442 288.761 22.5131 289.074 23.2859C289.278 23.7885 289.596 24.2101 290.03 24.5508C290.467 24.8898 290.957 25.0918 291.5 25.1569C292.047 25.2204 292.597 25.1399 293.15 24.9155C294.164 24.5045 294.828 23.7655 295.143 22.6985L296.034 22.8758C295.905 23.5035 295.617 24.0677 295.171 24.5683C294.727 25.0629 294.151 25.4541 293.441 25.7418C292.352 26.1837 291.307 26.2039 290.309 25.8024C289.31 25.4009 288.609 24.704 288.207 23.7115C287.936 23.0442 287.852 22.3579 287.954 21.6524C288.059 20.9411 288.34 20.3059 288.797 19.7469C289.254 19.1878 289.846 18.761 290.572 18.4665C291.028 18.2815 291.496 18.1731 291.974 18.1412C292.457 18.1076 292.892 18.1427 293.279 18.2467C293.665 18.3506 294.032 18.5338 294.379 18.7962Z" fill="#EE964B"/>
</g>
<g filter="url(#filter7_d_95_606)">
<path d="M310.642 12.6217L311.652 12.56L314.553 18.1218L316.681 12.2525L317.697 12.1904L313.889 22.6004L312.879 22.6621L314.112 19.2994L310.642 12.6217Z" fill="#EE964B"/>
</g>
<g filter="url(#filter8_d_95_606)">
<path d="M325.93 11.9448L332.12 12.7396L331.173 20.1166L330.224 19.9947L331.056 13.5128L326.764 12.9617L325.932 19.4437L324.983 19.3218L325.93 11.9448Z" fill="#EE964B"/>
</g>
<g filter="url(#filter9_d_95_606)">
<path d="M340.935 14.1285L341.835 14.4339L341.396 15.7285C341.921 15.3581 342.458 15.129 343.008 15.0412C343.557 14.9535 344.119 15.007 344.693 15.2018C345.694 15.5416 346.429 16.1926 346.896 17.155C347.364 18.1174 347.425 19.1056 347.081 20.1198C346.729 21.1555 346.077 21.9158 345.123 22.4005C344.175 22.8825 343.202 22.9543 342.206 22.616C341.645 22.4255 341.168 22.134 340.777 21.7413C340.386 21.3486 340.079 20.857 339.856 20.2663L338.57 24.0532L337.671 23.7478L340.935 14.1285ZM344.325 16.0515C343.54 15.7849 342.784 15.8341 342.059 16.1991C341.338 16.5655 340.839 17.1566 340.562 17.9722C340.38 18.5073 340.336 19.0288 340.428 19.5366C340.525 20.0459 340.753 20.5011 341.112 20.9022C341.476 21.3048 341.906 21.5904 342.403 21.7588C342.89 21.9243 343.39 21.9544 343.902 21.8491C344.42 21.741 344.884 21.5036 345.292 21.1368C345.7 20.7701 345.989 20.3386 346.157 19.8424C346.327 19.3418 346.361 18.8238 346.259 18.2886C346.161 17.7548 345.94 17.2925 345.596 16.9015C345.254 16.5062 344.83 16.2228 344.325 16.0515Z" fill="#EE964B"/>
</g>
<g filter="url(#filter10_d_95_606)">
<path d="M362.427 23.388L358.617 29.7756L357.807 29.2924L358.462 28.1945C357.868 28.4079 357.292 28.4918 356.736 28.4464C356.183 28.4033 355.652 28.23 355.144 27.9265C354.239 27.3872 353.661 26.5994 353.409 25.5629C353.164 24.5248 353.321 23.5361 353.881 22.5968C354.43 21.677 355.222 21.0829 356.257 20.8144C357.293 20.546 358.265 20.6825 359.173 21.2241C359.697 21.537 360.104 21.931 360.394 22.4062C360.688 22.8837 360.862 23.4413 360.917 24.079L361.617 22.9048L362.427 23.388ZM358.765 22.0552C358.307 21.7821 357.816 21.6435 357.294 21.6394C356.773 21.6314 356.276 21.762 355.802 22.0313C355.332 22.303 354.962 22.6658 354.691 23.1199C354.423 23.57 354.282 24.0694 354.267 24.6181C354.253 25.1668 354.371 25.6721 354.621 26.1342C354.877 26.5946 355.228 26.9579 355.674 27.224C356.124 27.4925 356.618 27.6335 357.157 27.6469C357.695 27.6603 358.188 27.5375 358.634 27.2784C359.085 27.0217 359.454 26.6506 359.744 26.1653C360.185 25.4256 360.309 24.6612 360.117 23.8724C359.928 23.0858 359.477 22.4801 358.765 22.0552Z" fill="#EE964B"/>
</g>
<g filter="url(#filter11_d_95_606)">
<path d="M366.292 35.1198L364.676 33.6865L369.61 28.1221L371.201 29.5327C371.808 30.0709 372.12 30.5977 372.138 31.1132C372.16 31.6317 372.004 32.0784 371.672 32.4535C371.17 33.0195 370.581 33.1823 369.904 32.942C370.4 33.8388 370.325 34.652 369.678 35.3817C368.771 36.4045 367.642 36.3173 366.292 35.1198ZM369.783 29.3804L368.241 31.1193L368.706 31.5321C369.129 31.907 369.42 32.1349 369.58 32.2157C369.74 32.2965 369.935 32.3204 370.165 32.2872C370.402 32.2536 370.619 32.126 370.815 31.9044C371.021 31.6725 371.134 31.4252 371.153 31.1626C371.173 30.8999 371.129 30.696 371.02 30.5507C370.915 30.4086 370.657 30.156 370.248 29.7932L369.783 29.3804ZM367.66 31.774L365.932 33.7226L366.699 34.4029C367.06 34.7235 367.338 34.9296 367.53 35.0213C367.729 35.1127 367.952 35.1301 368.197 35.0734C368.445 35.0197 368.674 34.8753 368.883 34.64C369.152 34.3366 369.271 34.0098 369.24 33.6598C369.21 33.3097 369.038 32.9956 368.724 32.7174L367.66 31.774Z" fill="#EE964B"/>
</g>
<g filter="url(#filter12_d_95_606)">
<path d="M377.456 46.6002L376.823 45.8022L379.518 40.4881L373.743 41.9195L373.105 41.1162L381.048 39.1609L381.154 39.2948L377.456 46.6002Z" fill="#EE964B"/>
</g>
<g filter="url(#filter13_d_95_606)">
<path d="M386.55 56.1986L386.547 57.1098C385.964 57.1158 385.451 57.0391 385.008 56.8797C384.565 56.7203 384.169 56.4876 383.819 56.1819C383.473 55.874 383.174 55.4776 382.921 54.9928C382.36 53.9181 382.273 52.8943 382.659 51.9214C383.05 50.9464 383.69 50.2269 384.579 49.763C385.415 49.3265 386.294 49.194 387.217 49.3655C388.388 49.5816 389.259 50.235 389.828 51.3258C390.414 52.449 390.456 53.5684 389.954 54.6839C389.601 55.4749 388.976 56.1095 388.079 56.5878L384.986 50.661C384.227 51.0778 383.724 51.6512 383.478 52.3811C383.236 53.1089 383.296 53.8203 383.658 54.5152C383.833 54.8505 384.062 55.1452 384.343 55.3992C384.627 55.6572 384.924 55.8467 385.234 55.9677C385.544 56.0887 385.982 56.1656 386.55 56.1986ZM388.325 55.2718C388.719 54.9225 388.994 54.5681 389.151 54.2087C389.31 53.8533 389.379 53.4546 389.359 53.0126C389.339 52.5706 389.227 52.1537 389.023 51.7618C388.685 51.1154 388.187 50.6685 387.528 50.421C387.048 50.2398 386.46 50.2205 385.763 50.3631L388.325 55.2718Z" fill="#EE964B"/>
</g>
<g filter="url(#filter14_d_95_606)">
<path d="M392.592 67.9284L391.363 63.7867L387.929 64.8058L387.655 63.8818L394.785 61.7657L395.059 62.6898L392.228 63.5299L393.457 67.6717L396.288 66.8315L396.561 67.749L389.43 69.865L389.158 68.9476L392.592 67.9284Z" fill="#EE964B"/>
</g>
<g filter="url(#filter15_d_95_606)">
<path d="M398.923 77.3243L393.443 77.8282L399.423 82.7633L399.43 82.8381L392.024 83.5192L391.936 82.5661L397.368 82.0667L391.44 77.168L391.429 77.0523L398.836 76.3713L398.923 77.3243Z" fill="#EE964B"/>
</g>
<g filter="url(#filter16_d_95_606)">
<path d="M395.508 94.4133L395.571 93.7327L392.453 91.3137L392.549 90.2859L395.751 92.8295C395.871 92.2822 396.122 91.8525 396.503 91.5402C396.889 91.2283 397.343 91.0967 397.865 91.1454C398.518 91.2063 399.006 91.4508 399.328 91.879C399.649 92.3118 399.779 92.8503 399.719 93.4946L399.509 95.7476L392.104 95.0572L392.193 94.1043L395.508 94.4133ZM398.775 94.7179L398.833 94.0917C398.89 93.4837 398.889 93.0717 398.832 92.8558C398.774 92.6398 398.655 92.4617 398.476 92.3214C398.302 92.1816 398.056 92.0969 397.738 92.0672C397.434 92.0389 397.175 92.0948 396.96 92.235C396.75 92.3757 396.613 92.5414 396.55 92.7323C396.486 92.9232 396.428 93.3 396.376 93.8626L396.318 94.4888L398.775 94.7179Z" fill="#EE964B"/>
</g>
<g filter="url(#filter17_d_95_606)">
<path d="M392.363 114.883L392.172 115.344C392.05 115.639 392.036 115.949 392.129 116.273C392.22 116.601 392.447 116.84 392.809 116.99C393.116 117.117 393.421 117.127 393.721 117.019C394.026 116.914 394.263 116.656 394.432 116.248C394.629 115.772 394.641 115.217 394.468 114.584L395.287 114.338C395.55 115.171 395.537 115.935 395.25 116.63C395.014 117.203 394.645 117.613 394.144 117.859C393.642 118.106 393.122 118.118 392.583 117.895C391.867 117.599 391.511 117.083 391.515 116.345C390.828 117.028 390.054 117.191 389.19 116.834C388.642 116.608 388.228 116.21 387.945 115.64C387.666 115.075 387.684 114.41 388.001 113.643C388.389 112.704 389.006 112.074 389.854 111.753L390.256 112.57C389.6 112.798 389.135 113.244 388.86 113.909C388.675 114.356 388.651 114.755 388.787 115.107C388.921 115.463 389.183 115.722 389.575 115.884C389.958 116.042 390.319 116.041 390.657 115.879C390.995 115.718 391.236 115.463 391.38 115.113L391.605 114.57L392.363 114.883Z" fill="#EE964B"/>
</g>
<g filter="url(#filter18_d_95_606)">
<path d="M385.398 122.629L389.441 128.611L389.172 129.032L382.054 127.875L381.573 128.63L380.086 127.682L380.582 126.904L381.383 127.415L384.69 122.227L383.854 121.694L384.361 120.898L385.883 121.868L385.398 122.629ZM388.071 128.013L384.898 123.413L382.609 127.004L388.071 128.013Z" fill="#EE964B"/>
</g>
<g filter="url(#filter19_d_95_606)">
<path d="M380.302 141.582C379.506 142.404 378.549 142.796 377.43 142.76C376.411 142.724 375.53 142.347 374.787 141.627C374.04 140.905 373.639 140.012 373.583 138.949C373.527 137.893 373.894 136.957 374.684 136.142C375.476 135.324 376.403 134.923 377.463 134.942C378.524 134.967 379.428 135.34 380.174 136.063C380.914 136.78 381.318 137.646 381.386 138.664C381.462 139.784 381.101 140.757 380.302 141.582ZM379.629 140.93C380.181 140.361 380.443 139.667 380.417 138.849C380.391 138.03 380.079 137.331 379.479 136.751C379.093 136.377 378.643 136.122 378.128 135.985C377.613 135.848 377.111 135.85 376.62 135.99C376.132 136.133 375.704 136.395 375.337 136.774C374.969 137.154 374.721 137.59 374.594 138.082C374.47 138.577 374.484 139.08 374.638 139.59C374.791 140.1 375.061 140.542 375.447 140.916C376.046 141.496 376.757 141.784 377.578 141.781C378.397 141.78 379.081 141.497 379.629 140.93Z" fill="#EE964B"/>
</g>
<g filter="url(#filter20_d_95_606)">
<path d="M371.441 150.143L370.656 150.678L369.886 149.548C369.866 150.19 369.726 150.757 369.465 151.249C369.205 151.741 368.824 152.157 368.323 152.499C367.449 153.094 366.487 153.289 365.437 153.083C364.387 152.877 363.561 152.332 362.958 151.446C362.342 150.542 362.128 149.564 362.315 148.51C362.5 147.463 363.028 146.643 363.898 146.05C364.388 145.717 364.907 145.512 365.456 145.436C366.005 145.36 366.583 145.41 367.189 145.587L364.938 142.282L365.723 141.747L371.441 150.143ZM367.866 151.694C368.551 151.227 368.966 150.594 369.111 149.795C369.253 148.998 369.081 148.244 368.596 147.532C368.278 147.065 367.888 146.716 367.427 146.484C366.962 146.255 366.461 146.163 365.925 146.209C365.384 146.257 364.897 146.429 364.464 146.724C364.038 147.014 363.714 147.395 363.49 147.867C363.264 148.346 363.175 148.859 363.222 149.406C363.269 149.952 363.44 150.442 363.735 150.876C364.033 151.313 364.426 151.651 364.915 151.892C365.401 152.135 365.903 152.236 366.422 152.197C366.944 152.162 367.425 151.994 367.866 151.694Z" fill="#EE964B"/>
</g>
<g filter="url(#filter21_d_95_606)">
<path d="M354.528 160.663C353.469 161.096 352.435 161.072 351.425 160.59C350.505 160.149 349.849 159.45 349.457 158.493C349.063 157.531 349.053 156.553 349.428 155.557C349.801 154.567 350.512 153.857 351.562 153.427C352.616 152.994 353.626 152.999 354.59 153.442C355.552 153.89 356.23 154.594 356.624 155.556C357.014 156.509 357.037 157.465 356.691 158.424C356.311 159.481 355.59 160.227 354.528 160.663ZM354.173 159.796C354.906 159.495 355.425 158.965 355.729 158.205C356.034 157.445 356.028 156.679 355.711 155.907C355.507 155.41 355.197 154.995 354.78 154.664C354.364 154.332 353.903 154.132 353.397 154.063C352.893 153.999 352.396 154.067 351.907 154.268C351.418 154.468 351.016 154.768 350.702 155.168C350.39 155.572 350.202 156.038 350.138 156.566C350.074 157.095 350.143 157.608 350.347 158.106C350.664 158.878 351.199 159.426 351.953 159.753C352.703 160.081 353.443 160.095 354.173 159.796Z" fill="#EE964B"/>
</g>
<g filter="url(#filter22_d_95_606)">
<path d="M339.518 157.946L341.634 157.513L343.126 164.799L341.043 165.225C340.248 165.388 339.64 165.322 339.216 165.027C338.789 164.733 338.525 164.341 338.424 163.85C338.272 163.109 338.495 162.54 339.093 162.143C338.078 162.002 337.473 161.453 337.277 160.498C337.003 159.159 337.75 158.308 339.518 157.946ZM342.016 164.182L341.549 161.905L340.94 162.03C340.386 162.143 340.029 162.239 339.869 162.319C339.708 162.398 339.572 162.54 339.461 162.744C339.345 162.954 339.317 163.204 339.377 163.494C339.439 163.798 339.569 164.036 339.768 164.21C339.966 164.383 340.156 164.47 340.337 164.47C340.514 164.471 340.871 164.416 341.406 164.307L342.016 164.182ZM341.374 161.048L340.851 158.496L339.847 158.702C339.374 158.799 339.043 158.897 338.854 158.996C338.661 159.101 338.514 159.268 338.412 159.498C338.306 159.729 338.284 159.999 338.347 160.307C338.429 160.704 338.619 160.996 338.917 161.181C339.216 161.366 339.57 161.417 339.981 161.333L341.374 161.048Z" fill="#EE964B"/>
</g>
<g filter="url(#filter23_d_95_606)">
<path d="M329.002 164.371L328.094 164.399C327.369 164.421 326.801 164.381 326.387 164.28C325.974 164.178 325.613 163.936 325.305 163.553C324.997 163.175 324.836 162.733 324.82 162.228C324.802 161.617 325 161.087 325.415 160.637C325.83 160.191 326.472 159.955 327.342 159.928L329.816 159.853L330.042 167.287L329.092 167.316L329.002 164.371ZM328.942 163.498L328.856 160.689L327.756 160.723C326.463 160.762 325.83 161.237 325.857 162.148C325.865 162.408 325.944 162.661 326.092 162.907C326.237 163.154 326.445 163.323 326.717 163.415C326.984 163.507 327.455 163.543 328.129 163.522L328.942 163.498Z" fill="#EE964B"/>
</g>
<g filter="url(#filter24_d_95_606)">
<path d="M310.896 161.663L310.164 161.12C310.506 160.648 310.872 160.281 311.263 160.019C311.655 159.757 312.077 159.576 312.531 159.476C312.984 159.381 313.481 159.375 314.021 159.459C315.219 159.646 316.094 160.184 316.647 161.073C317.2 161.966 317.399 162.908 317.245 163.899C317.099 164.831 316.684 165.617 315.998 166.257C315.129 167.072 314.086 167.384 312.87 167.195C311.618 167 310.693 166.369 310.093 165.302C309.667 164.548 309.527 163.669 309.675 162.663L316.28 163.693C316.396 162.835 316.233 162.09 315.792 161.458C315.35 160.831 314.742 160.457 313.967 160.337C313.593 160.278 313.221 160.287 312.849 160.363C312.473 160.438 312.144 160.564 311.863 160.742C311.582 160.919 311.259 161.227 310.896 161.663ZM310.587 163.642C310.635 164.166 310.757 164.598 310.953 164.938C311.144 165.277 311.424 165.569 311.791 165.816C312.159 166.062 312.561 166.22 312.998 166.288C313.718 166.4 314.373 166.265 314.964 165.882C315.395 165.603 315.759 165.141 316.058 164.496L310.587 163.642Z" fill="#EE964B"/>
</g>
<g filter="url(#filter25_d_95_606)">
<path d="M293.923 162.248L293.668 162.148L294.028 154.303L294.957 154.666L294.676 160.436L299.331 156.377L299.497 156.442L300.17 162.584L303.87 158.152L304.8 158.515L299.729 164.518L299.487 164.424L298.817 157.916L293.923 162.248Z" fill="#EE964B"/>
</g>
<defs>
<filter id="filter0_d_95_606" x="-24.2158" y="51.1099" width="403.337" height="147.217" filterUnits="userSpaceOnUse" color-interpolation-filters="sRGB">
<feFlood flood-opacity="0" result="BackgroundImageFix"/>
<feColorMatrix in="SourceAlpha" type="matrix" values="0 0 0 0 0 0 0 0 0 0 0 0 0 0 0 0 0 0 127 0" result="hardAlpha"/>
<feOffset dy="20"/>
<feGaussianBlur stdDeviation="25"/>
<feComposite in2="hardAlpha" operator="out"/>
<feColorMatrix type="matrix" values="0 0 0 0 0 0 0 0 0 0 0 0 0 0 0 0 0 0 0.2 0"/>
<feBlend mode="normal" in2="BackgroundImageFix" result="effect1_dropShadow_95_606"/>
<feBlend mode="normal" in="SourceGraphic" in2="effect1_dropShadow_95_606" result="shape"/>
</filter>
<filter id="filter1_d_95_606" x="237.537" y="71.4468" width="20.3394" height="19.772" filterUnits="userSpaceOnUse" color-interpolation-filters="sRGB">
<feFlood flood-opacity="0" result="BackgroundImageFix"/>
<feColorMatrix in="SourceAlpha" type="matrix" values="0 0 0 0 0 0 0 0 0 0 0 0 0 0 0 0 0 0 127 0" result="hardAlpha"/>
<feOffset dy="4"/>
<feGaussianBlur stdDeviation="2"/>
<feComposite in2="hardAlpha" operator="out"/>
<feColorMatrix type="matrix" values="0 0 0 0 0 0 0 0 0 0 0 0 0 0 0 0 0 0 0.25 0"/>
<feBlend mode="normal" in2="BackgroundImageFix" result="effect1_dropShadow_95_606"/>
<feBlend mode="normal" in="SourceGraphic" in2="effect1_dropShadow_95_606" result="shape"/>
</filter>
<filter id="filter2_d_95_606" x="244.162" y="57.1196" width="18.2607" height="18.1846" filterUnits="userSpaceOnUse" color-interpolation-filters="sRGB">
<feFlood flood-opacity="0" result="BackgroundImageFix"/>
<feColorMatrix in="SourceAlpha" type="matrix" values="0 0 0 0 0 0 0 0 0 0 0 0 0 0 0 0 0 0 127 0" result="hardAlpha"/>
<feOffset dy="4"/>
<feGaussianBlur stdDeviation="2"/>
<feComposite in2="hardAlpha" operator="out"/>
<feColorMatrix type="matrix" values="0 0 0 0 0 0 0 0 0 0 0 0 0 0 0 0 0 0 0.25 0"/>
<feBlend mode="normal" in2="BackgroundImageFix" result="effect1_dropShadow_95_606"/>
<feBlend mode="normal" in="SourceGraphic" in2="effect1_dropShadow_95_606" result="shape"/>
</filter>
<filter id="filter3_d_95_606" x="250.722" y="43.6782" width="20.9233" height="20.314" filterUnits="userSpaceOnUse" color-interpolation-filters="sRGB">
<feFlood flood-opacity="0" result="BackgroundImageFix"/>
<feColorMatrix in="SourceAlpha" type="matrix" values="0 0 0 0 0 0 0 0 0 0 0 0 0 0 0 0 0 0 127 0" result="hardAlpha"/>
<feOffset dy="4"/>
<feGaussianBlur stdDeviation="2"/>
<feComposite in2="hardAlpha" operator="out"/>
<feColorMatrix type="matrix" values="0 0 0 0 0 0 0 0 0 0 0 0 0 0 0 0 0 0 0.25 0"/>
<feBlend mode="normal" in2="BackgroundImageFix" result="effect1_dropShadow_95_606"/>
<feBlend mode="normal" in="SourceGraphic" in2="effect1_dropShadow_95_606" result="shape"/>
</filter>
<filter id="filter4_d_95_606" x="260.561" y="33.853" width="16.6548" height="16.7417" filterUnits="userSpaceOnUse" color-interpolation-filters="sRGB">
<feFlood flood-opacity="0" result="BackgroundImageFix"/>
<feColorMatrix in="SourceAlpha" type="matrix" values="0 0 0 0 0 0 0 0 0 0 0 0 0 0 0 0 0 0 127 0" result="hardAlpha"/>
<feOffset dy="4"/>
<feGaussianBlur stdDeviation="2"/>
<feComposite in2="hardAlpha" operator="out"/>
<feColorMatrix type="matrix" values="0 0 0 0 0 0 0 0 0 0 0 0 0 0 0 0 0 0 0.25 0"/>
<feBlend mode="normal" in2="BackgroundImageFix" result="effect1_dropShadow_95_606"/>
<feBlend mode="normal" in="SourceGraphic" in2="effect1_dropShadow_95_606" result="shape"/>
</filter>
<filter id="filter5_d_95_606" x="270.298" y="24.5972" width="17.5068" height="17.7798" filterUnits="userSpaceOnUse" color-interpolation-filters="sRGB">
<feFlood flood-opacity="0" result="BackgroundImageFix"/>
<feColorMatrix in="SourceAlpha" type="matrix" values="0 0 0 0 0 0 0 0 0 0 0 0 0 0 0 0 0 0 127 0" result="hardAlpha"/>
<feOffset dy="4"/>
<feGaussianBlur stdDeviation="2"/>
<feComposite in2="hardAlpha" operator="out"/>
<feColorMatrix type="matrix" values="0 0 0 0 0 0 0 0 0 0 0 0 0 0 0 0 0 0 0.25 0"/>
<feBlend mode="normal" in2="BackgroundImageFix" result="effect1_dropShadow_95_606"/>
<feBlend mode="normal" in="SourceGraphic" in2="effect1_dropShadow_95_606" result="shape"/>
</filter>
<filter id="filter6_d_95_606" x="282.714" y="17.187" width="17.9517" height="18.0908" filterUnits="userSpaceOnUse" color-interpolation-filters="sRGB">
<feFlood flood-opacity="0" result="BackgroundImageFix"/>
<feColorMatrix in="SourceAlpha" type="matrix" values="0 0 0 0 0 0 0 0 0 0 0 0 0 0 0 0 0 0 127 0" result="hardAlpha"/>
<feOffset dy="4"/>
<feGaussianBlur stdDeviation="2"/>
<feComposite in2="hardAlpha" operator="out"/>
<feColorMatrix type="matrix" values="0 0 0 0 0 0 0 0 0 0 0 0 0 0 0 0 0 0 0.25 0"/>
<feBlend mode="normal" in2="BackgroundImageFix" result="effect1_dropShadow_95_606"/>
<feBlend mode="normal" in="SourceGraphic" in2="effect1_dropShadow_95_606" result="shape"/>
</filter>
<filter id="filter7_d_95_606" x="306.642" y="12.1904" width="15.6753" height="18.5703" filterUnits="userSpaceOnUse" color-interpolation-filters="sRGB">
<feFlood flood-opacity="0" result="BackgroundImageFix"/>
<feColorMatrix in="SourceAlpha" type="matrix" values="0 0 0 0 0 0 0 0 0 0 0 0 0 0 0 0 0 0 127 0" result="hardAlpha"/>
<feOffset dy="4"/>
<feGaussianBlur stdDeviation="2"/>
<feComposite in2="hardAlpha" operator="out"/>
<feColorMatrix type="matrix" values="0 0 0 0 0 0 0 0 0 0 0 0 0 0 0 0 0 0 0.25 0"/>
<feBlend mode="normal" in2="BackgroundImageFix" result="effect1_dropShadow_95_606"/>
<feBlend mode="normal" in="SourceGraphic" in2="effect1_dropShadow_95_606" result="shape"/>
</filter>
<filter id="filter8_d_95_606" x="320.983" y="11.9448" width="15.1372" height="16.1719" filterUnits="userSpaceOnUse" color-interpolation-filters="sRGB">
<feFlood flood-opacity="0" result="BackgroundImageFix"/>
<feColorMatrix in="SourceAlpha" type="matrix" values="0 0 0 0 0 0 0 0 0 0 0 0 0 0 0 0 0 0 127 0" result="hardAlpha"/>
<feOffset dy="4"/>
<feGaussianBlur stdDeviation="2"/>
<feComposite in2="hardAlpha" operator="out"/>
<feColorMatrix type="matrix" values="0 0 0 0 0 0 0 0 0 0 0 0 0 0 0 0 0 0 0.25 0"/>
<feBlend mode="normal" in2="BackgroundImageFix" result="effect1_dropShadow_95_606"/>
<feBlend mode="normal" in="SourceGraphic" in2="effect1_dropShadow_95_606" result="shape"/>
</filter>
<filter id="filter9_d_95_606" x="333.67" y="13.9473" width="18.6606" height="20.2896" filterUnits="userSpaceOnUse" color-interpolation-filters="sRGB">
<feFlood flood-opacity="0" result="BackgroundImageFix"/>
<feColorMatrix in="SourceAlpha" type="matrix" values="0 0 0 0 0 0 0 0 0 0 0 0 0 0 0 0 0 0 127 0" result="hardAlpha"/>
<feOffset dy="4"/>
<feGaussianBlur stdDeviation="2"/>
<feComposite in2="hardAlpha" operator="out"/>
<feColorMatrix type="matrix" values="0 0 0 0 0 0 0 0 0 0 0 0 0 0 0 0 0 0 0.25 0"/>
<feBlend mode="normal" in2="BackgroundImageFix" result="effect1_dropShadow_95_606"/>
<feBlend mode="normal" in="SourceGraphic" in2="effect1_dropShadow_95_606" result="shape"/>
</filter>
<filter id="filter10_d_95_606" x="347.868" y="19.2563" width="18.6577" height="18.6836" filterUnits="userSpaceOnUse" color-interpolation-filters="sRGB">
<feFlood flood-opacity="0" result="BackgroundImageFix"/>
<feColorMatrix in="SourceAlpha" type="matrix" values="0 0 0 0 0 0 0 0 0 0 0 0 0 0 0 0 0 0 127 0" result="hardAlpha"/>
<feOffset dy="4"/>
<feGaussianBlur stdDeviation="2"/>
<feComposite in2="hardAlpha" operator="out"/>
<feColorMatrix type="matrix" values="0 0 0 0 0 0 0 0 0 0 0 0 0 0 0 0 0 0 0.25 0"/>
<feBlend mode="normal" in2="BackgroundImageFix" result="effect1_dropShadow_95_606"/>
<feBlend mode="normal" in="SourceGraphic" in2="effect1_dropShadow_95_606" result="shape"/>
</filter>
<filter id="filter11_d_95_606" x="360.676" y="28.1221" width="16.5762" height="16.7939" filterUnits="userSpaceOnUse" color-interpolation-filters="sRGB">
<feFlood flood-opacity="0" result="BackgroundImageFix"/>
<feColorMatrix in="SourceAlpha" type="matrix" values="0 0 0 0 0 0 0 0 0 0 0 0 0 0 0 0 0 0 127 0" result="hardAlpha"/>
<feOffset dy="4"/>
<feGaussianBlur stdDeviation="2"/>
<feComposite in2="hardAlpha" operator="out"/>
<feColorMatrix type="matrix" values="0 0 0 0 0 0 0 0 0 0 0 0 0 0 0 0 0 0 0.25 0"/>
<feBlend mode="normal" in2="BackgroundImageFix" result="effect1_dropShadow_95_606"/>
<feBlend mode="normal" in="SourceGraphic" in2="effect1_dropShadow_95_606" result="shape"/>
</filter>
<filter id="filter12_d_95_606" x="369.105" y="36.4937" width="18.1768" height="18.1064" filterUnits="userSpaceOnUse" color-interpolation-filters="sRGB">
<feFlood flood-opacity="0" result="BackgroundImageFix"/>
<feColorMatrix in="SourceAlpha" type="matrix" values="0 0 0 0 0 0 0 0 0 0 0 0 0 0 0 0 0 0 127 0" result="hardAlpha"/>
<feOffset dy="4"/>
<feGaussianBlur stdDeviation="2"/>
<feComposite in2="hardAlpha" operator="out"/>
<feColorMatrix type="matrix" values="0 0 0 0 0 0 0 0 0 0 0 0 0 0 0 0 0 0 0.25 0"/>
<feBlend mode="normal" in2="BackgroundImageFix" result="effect1_dropShadow_95_606"/>
<feBlend mode="normal" in="SourceGraphic" in2="effect1_dropShadow_95_606" result="shape"/>
</filter>
<filter id="filter13_d_95_606" x="377.13" y="47.9443" width="18.4819" height="18.418" filterUnits="userSpaceOnUse" color-interpolation-filters="sRGB">
<feFlood flood-opacity="0" result="BackgroundImageFix"/>
<feColorMatrix in="SourceAlpha" type="matrix" values="0 0 0 0 0 0 0 0 0 0 0 0 0 0 0 0 0 0 127 0" result="hardAlpha"/>
<feOffset dy="4"/>
<feGaussianBlur stdDeviation="2"/>
<feComposite in2="hardAlpha" operator="out"/>
<feColorMatrix type="matrix" values="0 0 0 0 0 0 0 0 0 0 0 0 0 0 0 0 0 0 0.25 0"/>
<feBlend mode="normal" in2="BackgroundImageFix" result="effect1_dropShadow_95_606"/>
<feBlend mode="normal" in="SourceGraphic" in2="effect1_dropShadow_95_606" result="shape"/>
</filter>
<filter id="filter14_d_95_606" x="383.655" y="61.7656" width="16.9058" height="16.0996" filterUnits="userSpaceOnUse" color-interpolation-filters="sRGB">
<feFlood flood-opacity="0" result="BackgroundImageFix"/>
<feColorMatrix in="SourceAlpha" type="matrix" values="0 0 0 0 0 0 0 0 0 0 0 0 0 0 0 0 0 0 127 0" result="hardAlpha"/>
<feOffset dy="4"/>
<feGaussianBlur stdDeviation="2"/>
<feComposite in2="hardAlpha" operator="out"/>
<feColorMatrix type="matrix" values="0 0 0 0 0 0 0 0 0 0 0 0 0 0 0 0 0 0 0.25 0"/>
<feBlend mode="normal" in2="BackgroundImageFix" result="effect1_dropShadow_95_606"/>
<feBlend mode="normal" in="SourceGraphic" in2="effect1_dropShadow_95_606" result="shape"/>
</filter>
<filter id="filter15_d_95_606" x="387.429" y="76.3711" width="16.001" height="15.1479" filterUnits="userSpaceOnUse" color-interpolation-filters="sRGB">
<feFlood flood-opacity="0" result="BackgroundImageFix"/>
<feColorMatrix in="SourceAlpha" type="matrix" values="0 0 0 0 0 0 0 0 0 0 0 0 0 0 0 0 0 0 127 0" result="hardAlpha"/>
<feOffset dy="4"/>
<feGaussianBlur stdDeviation="2"/>
<feComposite in2="hardAlpha" operator="out"/>
<feColorMatrix type="matrix" values="0 0 0 0 0 0 0 0 0 0 0 0 0 0 0 0 0 0 0.25 0"/>
<feBlend mode="normal" in2="BackgroundImageFix" result="effect1_dropShadow_95_606"/>
<feBlend mode="normal" in="SourceGraphic" in2="effect1_dropShadow_95_606" result="shape"/>
</filter>
<filter id="filter16_d_95_606" x="388.104" y="90.2856" width="15.8501" height="13.4619" filterUnits="userSpaceOnUse" color-interpolation-filters="sRGB">
<feFlood flood-opacity="0" result="BackgroundImageFix"/>
<feColorMatrix in="SourceAlpha" type="matrix" values="0 0 0 0 0 0 0 0 0 0 0 0 0 0 0 0 0 0 127 0" result="hardAlpha"/>
<feOffset dy="4"/>
<feGaussianBlur stdDeviation="2"/>
<feComposite in2="hardAlpha" operator="out"/>
<feColorMatrix type="matrix" values="0 0 0 0 0 0 0 0 0 0 0 0 0 0 0 0 0 0 0.25 0"/>
<feBlend mode="normal" in2="BackgroundImageFix" result="effect1_dropShadow_95_606"/>
<feBlend mode="normal" in="SourceGraphic" in2="effect1_dropShadow_95_606" result="shape"/>
</filter>
<filter id="filter17_d_95_606" x="383.048" y="111.375" width="17.1362" height="15.5679" filterUnits="userSpaceOnUse" color-interpolation-filters="sRGB">
<feFlood flood-opacity="0" result="BackgroundImageFix"/>
<feColorMatrix in="SourceAlpha" type="matrix" values="0 0 0 0 0 0 0 0 0 0 0 0 0 0 0 0 0 0 127 0" result="hardAlpha"/>
<feOffset dy="4"/>
<feGaussianBlur stdDeviation="2"/>
<feComposite in2="hardAlpha" operator="out"/>
<feColorMatrix type="matrix" values="0 0 0 0 0 0 0 0 0 0 0 0 0 0 0 0 0 0 0.25 0"/>
<feBlend mode="normal" in2="BackgroundImageFix" result="effect1_dropShadow_95_606"/>
<feBlend mode="normal" in="SourceGraphic" in2="effect1_dropShadow_95_606" result="shape"/>
</filter>
<filter id="filter18_d_95_606" x="376.051" y="120.898" width="19.4175" height="19.292" filterUnits="userSpaceOnUse" color-interpolation-filters="sRGB">
<feFlood flood-opacity="0" result="BackgroundImageFix"/>
<feColorMatrix in="SourceAlpha" type="matrix" values="0 0 0 0 0 0 0 0 0 0 0 0 0 0 0 0 0 0 127 0" result="hardAlpha"/>
<feOffset dy="4"/>
<feGaussianBlur stdDeviation="2"/>
<feComposite in2="hardAlpha" operator="out"/>
<feColorMatrix type="matrix" values="0 0 0 0 0 0 0 0 0 0 0 0 0 0 0 0 0 0 0.25 0"/>
<feBlend mode="normal" in2="BackgroundImageFix" result="effect1_dropShadow_95_606"/>
<feBlend mode="normal" in="SourceGraphic" in2="effect1_dropShadow_95_606" result="shape"/>
</filter>
<filter id="filter19_d_95_606" x="367.992" y="133.357" width="19.0059" height="19.0044" filterUnits="userSpaceOnUse" color-interpolation-filters="sRGB">
<feFlood flood-opacity="0" result="BackgroundImageFix"/>
<feColorMatrix in="SourceAlpha" type="matrix" values="0 0 0 0 0 0 0 0 0 0 0 0 0 0 0 0 0 0 127 0" result="hardAlpha"/>
<feOffset dy="4"/>
<feGaussianBlur stdDeviation="2"/>
<feComposite in2="hardAlpha" operator="out"/>
<feColorMatrix type="matrix" values="0 0 0 0 0 0 0 0 0 0 0 0 0 0 0 0 0 0 0.25 0"/>
<feBlend mode="normal" in2="BackgroundImageFix" result="effect1_dropShadow_95_606"/>
<feBlend mode="normal" in="SourceGraphic" in2="effect1_dropShadow_95_606" result="shape"/>
</filter>
<filter id="filter20_d_95_606" x="355.322" y="141.748" width="20.2271" height="20.9136" filterUnits="userSpaceOnUse" color-interpolation-filters="sRGB">
<feFlood flood-opacity="0" result="BackgroundImageFix"/>
<feColorMatrix in="SourceAlpha" type="matrix" values="0 0 0 0 0 0 0 0 0 0 0 0 0 0 0 0 0 0 127 0" result="hardAlpha"/>
<feOffset dy="4"/>
<feGaussianBlur stdDeviation="2"/>
<feComposite in2="hardAlpha" operator="out"/>
<feColorMatrix type="matrix" values="0 0 0 0 0 0 0 0 0 0 0 0 0 0 0 0 0 0 0.25 0"/>
<feBlend mode="normal" in2="BackgroundImageFix" result="effect1_dropShadow_95_606"/>
<feBlend mode="normal" in="SourceGraphic" in2="effect1_dropShadow_95_606" result="shape"/>
</filter>
<filter id="filter21_d_95_606" x="343.982" y="151.957" width="18.1323" height="18.1733" filterUnits="userSpaceOnUse" color-interpolation-filters="sRGB">
<feFlood flood-opacity="0" result="BackgroundImageFix"/>
<feColorMatrix in="SourceAlpha" type="matrix" values="0 0 0 0 0 0 0 0 0 0 0 0 0 0 0 0 0 0 127 0" result="hardAlpha"/>
<feOffset dy="4"/>
<feGaussianBlur stdDeviation="2"/>
<feComposite in2="hardAlpha" operator="out"/>
<feColorMatrix type="matrix" values="0 0 0 0 0 0 0 0 0 0 0 0 0 0 0 0 0 0 0.25 0"/>
<feBlend mode="normal" in2="BackgroundImageFix" result="effect1_dropShadow_95_606"/>
<feBlend mode="normal" in="SourceGraphic" in2="effect1_dropShadow_95_606" result="shape"/>
</filter>
<filter id="filter22_d_95_606" x="332.866" y="157.513" width="14.2603" height="16.2627" filterUnits="userSpaceOnUse" color-interpolation-filters="sRGB">
<feFlood flood-opacity="0" result="BackgroundImageFix"/>
<feColorMatrix in="SourceAlpha" type="matrix" values="0 0 0 0 0 0 0 0 0 0 0 0 0 0 0 0 0 0 127 0" result="hardAlpha"/>
<feOffset dy="4"/>
<feGaussianBlur stdDeviation="2"/>
<feComposite in2="hardAlpha" operator="out"/>
<feColorMatrix type="matrix" values="0 0 0 0 0 0 0 0 0 0 0 0 0 0 0 0 0 0 0.25 0"/>
<feBlend mode="normal" in2="BackgroundImageFix" result="effect1_dropShadow_95_606"/>
<feBlend mode="normal" in="SourceGraphic" in2="effect1_dropShadow_95_606" result="shape"/>
</filter>
<filter id="filter23_d_95_606" x="320.753" y="159.854" width="13.2886" height="15.5874" filterUnits="userSpaceOnUse" color-interpolation-filters="sRGB">
<feFlood flood-opacity="0" result="BackgroundImageFix"/>
<feColorMatrix in="SourceAlpha" type="matrix" values="0 0 0 0 0 0 0 0 0 0 0 0 0 0 0 0 0 0 127 0" result="hardAlpha"/>
<feOffset dy="4"/>
<feGaussianBlur stdDeviation="2"/>
<feComposite in2="hardAlpha" operator="out"/>
<feColorMatrix type="matrix" values="0 0 0 0 0 0 0 0 0 0 0 0 0 0 0 0 0 0 0.25 0"/>
<feBlend mode="normal" in2="BackgroundImageFix" result="effect1_dropShadow_95_606"/>
<feBlend mode="normal" in="SourceGraphic" in2="effect1_dropShadow_95_606" result="shape"/>
</filter>
<filter id="filter24_d_95_606" x="305.061" y="158.874" width="16.7832" height="16.9087" filterUnits="userSpaceOnUse" color-interpolation-filters="sRGB">
<feFlood flood-opacity="0" result="BackgroundImageFix"/>
<feColorMatrix in="SourceAlpha" type="matrix" values="0 0 0 0 0 0 0 0 0 0 0 0 0 0 0 0 0 0 127 0" result="hardAlpha"/>
<feOffset dy="4"/>
<feGaussianBlur stdDeviation="2"/>
<feComposite in2="hardAlpha" operator="out"/>
<feColorMatrix type="matrix" values="0 0 0 0 0 0 0 0 0 0 0 0 0 0 0 0 0 0 0.25 0"/>
<feBlend mode="normal" in2="BackgroundImageFix" result="effect1_dropShadow_95_606"/>
<feBlend mode="normal" in="SourceGraphic" in2="effect1_dropShadow_95_606" result="shape"/>
</filter>
<filter id="filter25_d_95_606" x="287.319" y="154.303" width="21.4805" height="19.1387" filterUnits="userSpaceOnUse" color-interpolation-filters="sRGB">
<feFlood flood-opacity="0" result="BackgroundImageFix"/>
<feColorMatrix in="SourceAlpha" type="matrix" values="0 0 0 0 0 0 0 0 0 0 0 0 0 0 0 0 0 0 127 0" result="hardAlpha"/>
<feOffset dy="4"/>
<feGaussianBlur stdDeviation="2"/>
<feComposite in2="hardAlpha" operator="out"/>
<feColorMatrix type="matrix" values="0 0 0 0 0 0 0 0 0 0 0 0 0 0 0 0 0 0 0.25 0"/>
<feBlend mode="normal" in2="BackgroundImageFix" result="effect1_dropShadow_95_606"/>
<feBlend mode="normal" in="SourceGraphic" in2="effect1_dropShadow_95_606" result="shape"/>
</filter>
</defs>
</svg>
