<svg width="40" height="40" viewBox="0 0 40 40" fill="none" xmlns="http://www.w3.org/2000/svg">
<rect x="0.5" y="0.5" width="39" height="39" rx="19.5" fill="#EE964B"/>
<g clip-path="url(#clip0_168_548)">
<path d="M12 28V13.7778C12 12.7959 12.7959 12 13.7778 12H26.2222C27.2041 12 28 12.7959 28 13.7778V22.6667C28 23.6485 27.2041 24.4444 26.2222 24.4444H17.3333C16.9486 24.4437 16.5741 24.5686 16.2667 24.8L12 28ZM13.7778 13.7778V24.4444L15.6747 23.0222C15.9819 22.7905 16.3565 22.6656 16.7413 22.6667H26.2222V13.7778H13.7778Z" fill="white"/>
<path d="M13.7778 13.7778V24.4444L15.6747 23.0222C15.9819 22.7905 16.3565 22.6656 16.7413 22.6667H26.2222V13.7778H13.7778Z" fill="white"/>
</g>
<rect x="0.5" y="0.5" width="39" height="39" rx="19.5" stroke="#EE964B"/>
<defs>
<clipPath id="clip0_168_548">
<rect width="16" height="16" fill="white" transform="translate(12 12)"/>
</clipPath>
</defs>
</svg>
